<?xml version="1.0" encoding="utf-8"?>
<!-- Generator: Adobe Illustrator 19.0.0, SVG Export Plug-In . SVG Version: 6.00 Build 0)  -->
<svg version="1.0" id="Layer_1" xmlns="http://www.w3.org/2000/svg" xmlns:xlink="http://www.w3.org/1999/xlink" x="0px" y="0px"
	 viewBox="0 0 94.3 37" style="enable-background:new 0 0 94.3 37;" xml:space="preserve">
<style type="text/css">
	.st0{fill:#3A3733;}
	.st1{fill:#F58220;}
	.st2{fill:#F37221;}
</style>
<g id="XMLID_2_">
	<g id="XMLID_379_">
		<path id="XMLID_401_" class="st0" d="M6.1,28.8c-0.2,0.3-0.6,0.5-1,0.6c-0.2,0-0.5,0-0.6,0c-0.7-0.2-1.2-0.7-1.6-1.4
			c-0.4-0.7-0.6-1.6-0.9-2.8c-1.1-5.7-1.7-8.9-1.9-9.7l0-0.1c0-0.2,0-0.5,0.2-0.7c0.2-0.2,0.4-0.4,0.7-0.5c0.1,0,0.1-0.1,0.2-0.1
			c0.3-0.1,0.5,0,0.8,0.1c0.2,0.1,0.4,0.2,0.4,0.4c0.3,0.9,0.9,4.2,2,9.8c0.2,0.9,0.4,1.6,0.7,2.2c0.3,0.5,0.5,0.8,0.8,0.9
			c0.3,0.1,0.4,0.3,0.5,0.5C6.3,28.3,6.3,28.5,6.1,28.8z M12.1,27.4c-0.2,0.2-0.5,0.3-0.8,0.4c-0.4,0.1-0.7,0-0.9-0.2
			c-0.8-0.6-1.5-2-1.9-4.2c-1.1-5.6-1.7-8.8-1.9-9.4l0-0.1c0-0.2,0-0.5,0.2-0.7C7,13,7.3,12.8,7.6,12.7c0.1,0,0.2-0.1,0.3-0.1
			c0.3,0,0.5,0,0.7,0.1c0.2,0.1,0.4,0.2,0.4,0.4c0.2,0.7,0.7,2.8,1.4,6.5l0.6,3.1c0.1,0.7,0.3,1.3,0.5,1.8c0.2,0.5,0.4,0.9,0.5,1.1
			c0.1,0.2,0.3,0.4,0.4,0.4c0.1,0.1,0.2,0.2,0.3,0.4C12.6,26.8,12.5,27.1,12.1,27.4z"/>
		<path id="XMLID_399_" class="st0" d="M21.9,17.3c0.1,0.1,0.1,0.2,0.1,0.3c0,0.4-0.2,0.7-0.6,0.9c-0.7,0.4-1.2,1-1.6,1.8
			c-0.4,0.8-0.7,1.6-0.8,2.4c-0.1,0.7-0.2,1.5-0.2,2.3c-0.1,0.8-0.1,1.2-0.1,1.3c-0.4,0.6-0.8,1-1.3,1c-0.3,0-0.6-0.1-0.9-0.4
			c-0.2-0.3-0.6-1.1-1.2-2.6c-0.6-1.5-1-3-1.4-4.5c-0.1-0.5-0.2-1-0.3-1.4c0-0.4,0-0.8,0-1.1c0.1-1.7,0.7-3.1,1.9-4.2
			c1.2-1.2,2.6-1.8,4.3-2l0.3,0c1.9-0.2,3.5,0.3,4.8,1.3c1.4,1.1,2.1,2.6,2.3,4.6c0,0.5,0,0.9,0,1.4c-0.1,1-0.2,2-0.3,3.2
			c-0.2,1.2-0.3,2.1-0.5,2.8c-0.1,0.7-0.2,1-0.2,1.1c-0.2,0.5-0.6,0.8-1.2,0.9l-0.1,0c-0.3,0-0.5-0.1-0.7-0.2
			c-0.2-0.1-0.3-0.3-0.3-0.5c0-0.1,0-0.2,0-0.2c0.6-2.5,0.9-4.8,1-6.8c0-0.6,0-1,0-1.2c-0.2-1.7-0.7-2.9-1.8-3.7
			c-1-0.8-2.1-1.1-3.3-1l-0.2,0c-1,0.1-1.8,0.5-2.6,1.2c-0.7,0.7-1.1,1.7-1.2,3c0,0.3,0,0.6,0,1c0,0.2,0.1,0.6,0.2,1.2
			c0.2,0.8,0.5,2,1,3.4c0.3-2.6,1.3-4.3,3.1-5.3c0.2-0.1,0.4-0.2,0.6-0.2C21.3,17,21.7,17.1,21.9,17.3z"/>
		<path id="XMLID_396_" class="st0" d="M40.3,25.7c-1.7-2-2.9-3.4-3.8-4.2c-0.5-0.4-0.9-0.7-1.2-1c0,1.6-0.1,2.8-0.2,3.4
			c-0.2,1-0.6,1.7-1.2,2.1c-0.4,0.2-0.8,0.3-1.3,0.3c-1.2,0-2.1-0.3-2.8-1c-0.7-0.7-1-1.7-1.1-3c0-0.4,0-0.7,0.1-1
			c0.2-0.9,0.6-1.7,1.3-2.4c0.7-0.7,1.7-1,2.8-1.1l0.1,0l-0.1-2.7c0-0.8-0.1-1.5-0.2-2c-0.1-0.5-0.2-0.9-0.4-1
			c-0.1-0.2-0.3-0.3-0.4-0.2c-0.3,0-0.6,0.1-1,0.4c-0.2,0.1-0.5,0.2-0.7,0.2c-0.4,0-0.6-0.1-0.8-0.2c-0.1-0.1-0.2-0.2-0.2-0.4
			c0-0.3,0.1-0.5,0.4-0.7c0.8-0.5,1.6-0.8,2.6-0.8c0.5,0,1,0.1,1.4,0.3c0.4,0.2,0.7,0.4,0.9,0.7c0.2,0.3,0.3,0.6,0.5,1.1
			c0.1,0.5,0.2,0.9,0.2,1.2c0,0.3,0.1,0.8,0.1,1.3v0.1c0,0.5,0,1.1,0,1.9c0,0.8,0,1.3,0,1.7c0,0,0.1,0,0.2,0.1
			c0.1,0,0.1,0.1,0.2,0.1c0.5,0.3,1.4,0.9,2.5,1.9c1.1,1.1,1.8,1.8,2.1,2.1c-0.1-7-0.2-10.7-0.2-11.3c0-0.2,0.1-0.4,0.3-0.6
			c0.2-0.2,0.5-0.3,0.8-0.3l0.1,0c0.3,0,0.5,0.1,0.7,0.2c0.2,0.1,0.3,0.3,0.3,0.5v0c0,1.5,0.1,6.1,0.2,13.9c0,0.2-0.1,0.5-0.2,0.7
			c-0.2,0.2-0.4,0.3-0.6,0.3c-0.2,0-0.4,0-0.6-0.1c-0.2-0.1-0.4-0.1-0.5-0.1L40.3,25.7z M33.1,19.6c-0.2,0-0.4,0-0.5,0
			c-0.4,0-0.7,0.2-1.1,0.4c-0.3,0.3-0.5,0.7-0.6,1.3c0,0.2,0,0.4,0,0.8c0,1,0.3,1.7,0.7,2.1c0.4,0.4,0.9,0.7,1.3,0.7
			c0.2-0.5,0.3-2.1,0.2-4.9L33.1,19.6z"/>
		<path id="XMLID_394_" class="st0" d="M58.3,4.3l0.1,0c0.3,0,0.6,0.1,0.8,0.2c0.2,0.2,0.3,0.3,0.3,0.6l0,0
			c-0.1,2.4-0.3,6.5-0.4,12.3l-0.1,4.6c0,0.3,0,0.6-0.1,0.7c-0.2,1.1-1,2-2.2,2.6c-1.2,0.6-2.6,0.9-4.3,0.9
			c-4.3-0.1-6.4-1.2-6.4-3.2c0-1,0.1-2.4,0.1-4.4c0.1-1.9,0.1-3.3,0.1-4.2c0-0.5,0-1-0.1-1.5c-0.1-0.5-0.1-0.8-0.2-1
			c-0.1-0.2-0.1-0.4-0.2-0.4c-0.2-0.2-0.2-0.3-0.2-0.5c0-0.3,0.2-0.6,0.5-0.8c0.3-0.2,0.6-0.2,0.9-0.2c0.4,0,0.6,0.1,0.8,0.3
			c0.4,0.4,0.7,0.8,0.8,1.4c0.1,0.6,0.1,1.4,0.1,2.5c0,0.9-0.1,2.3-0.1,4.2c-0.1,1.9-0.1,3.4-0.1,4.3c0,0.5,0.3,0.9,0.9,1.2
			c0.6,0.2,1.8,0.4,3.4,0.4c2.2,0,3.4-0.5,3.6-1.7c0-0.2,0.1-0.4,0.1-0.5l0.1-4.6c0.1-5.7,0.3-9.8,0.4-12.3c0-0.3,0.2-0.5,0.4-0.7
			C57.7,4.4,58,4.3,58.3,4.3z"/>
		<path id="XMLID_392_" class="st0" d="M55,5.8c-0.2,0.1-0.3,0.1-0.6,0.1c-0.5,0-0.7-0.2-0.9-0.4c-0.2-0.5-0.3-0.9-0.3-1.4
			c0-1,0.6-1.7,1.8-2c0.3-0.1,0.8-0.2,1.5-0.4c0.7-0.2,1.2-0.3,1.4-0.4c0.3-0.1,0.5-0.3,0.6-0.5C58.6,0.2,59,0,59.5,0l0.1,0
			c0.5,0.1,0.7,0.3,0.7,0.7c0,0.1,0,0.2-0.1,0.2c-0.3,0.7-0.9,1.3-1.8,1.7l-2.8,0.9c-0.2,0.1-0.3,0.2-0.3,0.4c0,0.2,0.1,0.5,0.3,0.9
			c0,0.1,0.1,0.2,0.1,0.3C55.7,5.4,55.5,5.7,55,5.8z"/>
		<path id="XMLID_390_" class="st1" d="M85.6,3.4c0.4,0.2,0.6,0.4,0.5,0.7c0,0.1-0.1,0.2-0.2,0.4c-1.3,1.5-2.7,2.6-4.2,3.3
			c-1.6,0.7-3,1-4.4,0.8c-0.2,0-0.4-0.1-0.5-0.1c-0.9-0.2-1.5-0.5-2-1.1c-0.4-0.5-0.6-1.1-0.5-1.8c0.1-0.4,0.2-0.8,0.3-1.1
			c0.1-0.2,0.3-0.3,0.5-0.4c0.3-0.1,0.5-0.1,0.8-0.1l0.1,0c0.2,0,0.4,0.1,0.5,0.3c0.1,0.2,0.2,0.3,0.2,0.5c0,0.1,0,0.1-0.1,0.2
			c-0.1,0.3-0.2,0.5-0.2,0.7c-0.1,0.7,0.3,1.1,1.1,1.3l0.2,0c0.5,0.1,1,0,1.6-0.1c0.6-0.1,1.3-0.5,2.2-1c0.8-0.5,1.6-1.2,2.4-2.1
			c0.3-0.3,0.7-0.5,1.2-0.4C85.4,3.3,85.5,3.3,85.6,3.4z"/>
		<path id="XMLID_388_" class="st2" d="M93.3,14.4l0.1,0c0.3,0.1,0.5,0.2,0.7,0.4c0.2,0.2,0.2,0.4,0.2,0.6l0,0
			c-0.5,2.4-1.1,5-1.6,7.9L92.2,26c-0.1,0.3-0.1,0.6-0.2,0.7c-0.4,1-1.3,1.8-2.5,2.2c-1.2,0.4-2.7,0.4-4.3,0.1
			c-4.2-0.8-6-2.2-5.7-4.2c0.2-1,0.5-2.4,0.9-4.3c0.4-1.9,0.7-3.3,0.8-4.1c0.1-0.5,0.2-1,0.2-1.5c0-0.5,0-0.8,0-1
			c0-0.2-0.1-0.4-0.1-0.4c-0.1-0.2-0.2-0.3-0.1-0.5c0.1-0.3,0.3-0.5,0.6-0.7c0.3-0.1,0.6-0.1,1-0.1c0.3,0.1,0.6,0.2,0.7,0.4
			c0.3,0.4,0.5,0.9,0.5,1.5c0,0.6-0.1,1.4-0.3,2.5c-0.2,0.9-0.4,2.2-0.8,4.1c-0.4,1.9-0.7,3.3-0.9,4.3c-0.1,0.5,0.1,1,0.7,1.3
			c0.5,0.3,1.6,0.7,3.2,1c1.1,0.2,2,0.2,2.5,0c0.6-0.2,1-0.5,1.2-1.1c0.1-0.2,0.1-0.4,0.1-0.5l0.5-2.7c0.5-2.9,1.1-5.5,1.6-7.9
			c0.1-0.2,0.2-0.4,0.5-0.6C92.6,14.4,92.9,14.3,93.3,14.4z"/>
		<g id="XMLID_380_">
			<path id="XMLID_387_" class="st2" d="M74.4,20.7c0-0.5,0.1-1.7,0.1-2.9c0,0.5,0,0.9,0,1.2C74.5,19.1,74.5,19.8,74.4,20.7z"/>
			<path id="XMLID_386_" class="st2" d="M70.6,10.2c0-0.4,0-0.8,0.4-0.7c0.2,0,0.4,0.1,0.7,0.2c0.4,0.1,0.2,2.1,0.2,2.1l1.3,0.6
				c0.1-1.4-0.1-3.1-0.5-3.2c-0.6-0.2-1.4-0.6-2.3-0.5c-0.6,0.1-0.9,2.2-0.9,2.2l1,0.3C70.5,11.1,70.5,10.8,70.6,10.2z"/>
			<path id="XMLID_385_" class="st2" d="M64,17c0.2,0.1,0.6,0.2,1,0.4c0.4-0.8,1-1.5,1-1.5s0.1-0.3,0.8-0.1c0.6,0.2,0.6,0.5,0.6,0.5
				s-0.4,0.6-0.9,1.5c0,0.1-0.1,0.1-0.1,0.2c1,0.3,1.9,0.7,2.1,0.7c0.5,0.1,1.9,0.2,2.2-1c0.3-1.3,0.6-2,0.9-2.5
				c0-0.1,0.1-0.2,0.1-0.2c0.1-0.1,0.3-0.4,0.5-0.6l0,0c0,0,0,0,0,0c0.4-0.3,0.9-0.6,1.4-0.6c0,0,0.1,0,0.1,0
				c-0.3-0.4-0.6-0.7-1-0.9c-0.1,0-3.2-1.5-4.1-1.4c0,0-0.1,0-0.1,0c0,0,0.1,0,0.1,0s-2.2-0.1-3.7,1.2c-0.8,0.7-1.6,2-2.1,3.3
				C62.7,16.2,63.1,16.6,64,17z"/>
			<path id="XMLID_384_" class="st2" d="M68.1,19.6c-0.4-0.1-1.2-0.4-2-0.7c-0.2,0.5-0.1,1.4-0.1,1.4s-0.2,0.4-0.8,0.2
				c-0.6-0.2-0.5-0.6-0.5-0.6s-0.1-0.8,0.1-1.5c-0.8-0.3-1.5-0.6-1.7-0.7c-0.3-0.1-0.5-0.3-0.6-0.5c0,0.1,0,0.4-0.1,0.4
				c-0.8,4,0.2,5.9,0.3,6.2c0.1,0.5,2.2,1.7,4.2,2.6c1.2,0.5,2.5,0.5,3.1,0.5h0c0.2-1.6,0.7-5.6,1-8.1
				C70.6,19.7,69.1,19.8,68.1,19.6z"/>
			<path id="XMLID_383_" class="st2" d="M74.4,20.7c0-0.9,0.1-1.6,0.1-1.7c0-0.2,0-0.7,0-1.2c0-1-0.2-2.2-0.4-2.8
				c-0.3-1-1.5,0.1-1.9,0.9c-0.4,0.8-1.3,10-1.4,10.9c0.8-0.2,1.9-0.4,2.1-0.6c0.3-0.4,0.5-0.9,0.6-1.2c0.1-0.2,0.7-0.4,0.7-0.4
				s0.1-2,0.2-3.6l0,0C74.4,21,74.4,20.9,74.4,20.7z"/>
			<path id="XMLID_382_" class="st2" d="M77.6,16.8c0,0,0-2,0-2.4c0-0.9-0.7-4-3.7-1.9l0.7,0.9c0,0,2.1-1.6,1.8,2.5
				c0,0.4,0,0.8,0,3.8c0,3.3-1.3,3.2-1.3,3.2l0,1.4c0,0,0.5-0.1,1-0.3c0.7-0.2,1.5-1.4,1.6-3.2C77.7,20.2,77.6,16.8,77.6,16.8z"/>
			<path id="XMLID_381_" class="st2" d="M68,10.6l0.6-0.1l0-0.5l0.2-0.4c0,0-0.6,0.2-0.8,0.5c-0.2,0.3-0.3,0.4-0.3,0.5
				C67.7,10.7,68,10.6,68,10.6z"/>
		</g>
	</g>
	<g id="XMLID_3_">
		<path id="XMLID_377_" class="st2" d="M7.4,32.5c0.1-0.1,0.1-0.1,0.2-0.1c0.1,0,0.1,0,0.2,0c0.3,0.1,0.6,0.3,1.1,0.6
			c0.5,0.2,0.9,0.5,1.2,0.7c0.1,0,0.1,0.1,0.1,0.1c0,0.1,0,0.1-0.1,0.2c-0.4,0.3-1.1,0.8-2,1.5c-0.1,0.1-0.1,0.1-0.2,0.1
			c-0.1,0-0.1,0-0.2,0c-0.1,0-0.1-0.1-0.1-0.1c0-0.1,0-0.1,0.1-0.2c0.8-0.7,1.3-1.1,1.8-1.4c-0.8-0.5-1.5-0.8-2-1.1
			c-0.1,0-0.1-0.1-0.1-0.1C7.3,32.6,7.3,32.5,7.4,32.5z"/>
		<path id="XMLID_375_" class="st2" d="M10.8,32.2c0.1-0.1,0.1-0.1,0.2-0.1c0.1,0,0.1,0,0.2,0c0.3,0.1,0.6,0.3,1.1,0.6
			c0.4,0.3,0.8,0.5,1.2,0.7c0.1,0,0.1,0.1,0.1,0.1c0,0.1,0,0.1-0.1,0.2c-0.4,0.3-1.1,0.8-2,1.5c-0.1,0.1-0.1,0.1-0.2,0.1
			c-0.1,0-0.1,0-0.2,0c0,0-0.1-0.1-0.1-0.1c0-0.1,0-0.1,0.1-0.2c0.8-0.6,1.4-1.1,1.8-1.4c-0.8-0.5-1.5-0.9-2-1.1
			c-0.1,0-0.1-0.1-0.1-0.1C10.7,32.3,10.8,32.3,10.8,32.2z"/>
		<path id="XMLID_373_" class="st2" d="M14.2,32c0.1-0.1,0.1-0.1,0.2-0.1c0.1,0,0.1,0,0.2,0c0.3,0.1,0.6,0.3,1.1,0.6
			c0.4,0.3,0.8,0.5,1.2,0.7c0.1,0,0.1,0.1,0.1,0.1c0,0.1,0,0.1-0.1,0.2c-0.4,0.3-1.1,0.8-2,1.5c-0.1,0.1-0.1,0.1-0.2,0.1
			c-0.1,0-0.1,0-0.2,0c0,0-0.1-0.1-0.1-0.1c0-0.1,0-0.1,0.1-0.2c0.8-0.6,1.4-1.1,1.8-1.4c-0.8-0.5-1.5-0.9-2-1.1
			c-0.1,0-0.1-0.1-0.1-0.1C14.2,32.1,14.2,32,14.2,32z"/>
		<path id="XMLID_371_" class="st2" d="M19.5,32.7c-0.1,0-0.2-0.1-0.2-0.2c0,0,0-0.1,0-0.1c0.2-0.2,0.4-0.4,0.6-0.6
			c0.2-0.2,0.5-0.3,0.8-0.3c0.1,0,0.2,0,0.2,0c0.4,0,0.7,0.1,1,0.4c0.3,0.3,0.4,0.6,0.4,1.1c0,0.3,0,0.6-0.1,0.8
			c-0.1,0.3-0.2,0.5-0.3,0.7c-0.1,0.2-0.2,0.3-0.3,0.4c-0.1,0.1-0.2,0.2-0.2,0.2c-0.1,0.1-0.2,0.1-0.2,0.1c-0.1,0-0.2,0-0.2-0.1
			c0,0,0-0.1-0.1-0.4c-0.1-0.2-0.2-0.4-0.3-0.6c-0.1-0.2-0.2-0.3-0.3-0.3l0,0c-0.1,0-0.1,0.1-0.2,0.1c-0.1,0-0.1,0-0.2,0
			c0,0-0.1-0.1-0.1-0.1c0-0.1,0-0.1,0.1-0.2c0.1-0.1,0.3-0.2,0.5-0.2h0c0.2,0,0.3,0,0.4,0.1c0.1,0.1,0.2,0.2,0.2,0.4
			c0.1,0.2,0.1,0.3,0.2,0.4c0,0.1,0.1,0.2,0.1,0.4c0.1-0.1,0.2-0.3,0.2-0.4c0.1-0.1,0.1-0.3,0.2-0.5c0.1-0.2,0.1-0.5,0.1-0.7
			c0-0.4-0.1-0.7-0.3-0.9c-0.2-0.2-0.4-0.3-0.6-0.3c0,0,0,0,0,0c0,0,0,0,0,0c-0.1,0-0.3,0.1-0.5,0.2c-0.2,0.1-0.3,0.2-0.4,0.4
			C19.8,32.7,19.7,32.7,19.5,32.7C19.5,32.7,19.5,32.7,19.5,32.7z"/>
		<path id="XMLID_369_" class="st2" d="M21.1,36.1C21.1,36.1,21,36,21.1,36.1c-0.1-0.2,0-0.2,0.1-0.3c0.2-0.1,0.4-0.2,0.5-0.2
			c0.1,0,0.1,0,0.2,0c0.1,0,0.2,0.1,0.2,0.1c0.1,0.1,0.1,0.1,0.1,0.2c0,0.1,0,0.2,0,0.3c0,0.1,0,0.2,0,0.2c0,0.1,0,0.2,0,0.2v0
			c0,0,0,0.1-0.1,0.1c0,0-0.1,0.1-0.2,0.1c0,0,0,0-0.1,0c-0.1,0-0.1,0-0.2,0c0,0-0.1-0.1-0.1-0.1c0-0.1,0-0.2,0-0.4l0-0.4
			c0,0,0-0.1,0-0.1c-0.1,0-0.1,0-0.2,0.1c0,0-0.1,0-0.2,0.1C21.2,36.2,21.1,36.1,21.1,36.1z"/>
		<path id="XMLID_367_" class="st2" d="M24.6,34.1L24.6,34.1c0.1,0,0.2,0,0.2,0c0,0,0.1,0.1,0.1,0.1c0,0.2-0.1,0.4-0.2,0.5
			c-0.1,0.2-0.3,0.3-0.5,0.3c-0.1,0-0.1,0-0.1,0c-0.3,0-0.6-0.1-0.8-0.5c-0.2-0.3-0.3-0.8-0.4-1.4c0,0,0,0,0-0.1c0,0,0-0.1,0-0.1
			c0-0.5,0.1-0.9,0.4-1.2c0.3-0.3,0.6-0.5,1.1-0.5c0.1,0,0.2,0,0.2,0c0.4,0,0.7,0.1,1,0.3c0.3,0.2,0.4,0.5,0.5,0.8v0
			c0,0.4,0,0.7,0,1.2c0,0.4,0,0.7,0,0.8c0,0.1,0,0.2,0,0.3v0c0,0.1,0,0.1-0.1,0.2c-0.1,0-0.1,0.1-0.2,0.1h-0.1c-0.1,0-0.1,0-0.2,0
			c0,0-0.1-0.1-0.1-0.1c0-0.1,0-0.2,0-0.3c0-0.1,0-0.4,0-0.8c0-0.4,0-0.8,0-1.2v0c0-0.3-0.1-0.4-0.3-0.6c-0.2-0.1-0.4-0.2-0.7-0.2
			c0,0-0.1,0-0.1,0c-0.2,0-0.5,0.1-0.6,0.3c-0.2,0.2-0.3,0.5-0.3,0.9l0,0.1c0,0.3,0.1,0.5,0.1,0.7c0.1,0.2,0.1,0.3,0.2,0.5
			c0.1,0.1,0.1,0.2,0.2,0.3c0.1,0.1,0.1,0.1,0.2,0.1c0,0,0.1,0,0.1,0c0,0,0,0,0.1,0c0,0,0.1-0.1,0.1-0.1c0-0.1,0-0.1,0-0.2
			c0-0.1,0-0.1,0.1-0.2C24.5,34.2,24.6,34.1,24.6,34.1z"/>
		<path id="XMLID_364_" class="st2" d="M27,34.9l-0.1-2.7c0-0.2,0-0.4-0.1-0.5c0,0,0-0.1,0-0.1c0-0.1,0-0.1,0.1-0.2
			c0.1,0,0.1-0.1,0.2-0.1c0.1,0,0.1,0,0.2,0.1c0.1,0.1,0.2,0.3,0.2,0.7c0,0.4,0,0.8,0,1.3c0,0.5,0,0.8,0,0.9
			c0.1-0.2,0.2-0.3,0.4-0.4c0.3-0.3,0.6-0.6,0.9-0.7c0-0.5,0-1,0.1-1.5c0-0.1,0-0.1,0.1-0.1c0.1,0,0.1-0.1,0.2-0.1h0
			c0.1,0,0.1,0,0.2,0c0,0,0.1,0.1,0.1,0.1v0c0,0.2,0,0.4-0.1,0.8c0,0.3,0,0.6-0.1,0.7h0.1c0.2,0,0.4,0,0.5,0.2
			c0.1,0.1,0.2,0.2,0.3,0.4c0,0.1,0.1,0.3,0.1,0.5c0,0.1,0,0.2,0,0.3c0,0.2-0.1,0.4-0.3,0.5c-0.2,0.1-0.3,0.2-0.5,0.2
			c-0.1,0-0.2,0-0.3-0.1c-0.1,0-0.1-0.1-0.2-0.2c0-0.1-0.1-0.2-0.1-0.3c0-0.1,0-0.2,0-0.4c0-0.2,0-0.4,0-0.5
			c-0.2,0.1-0.3,0.2-0.5,0.4c-0.2,0.2-0.5,0.5-0.7,0.9C27.5,35,27.4,35,27.3,35c0,0-0.1,0-0.1,0C27.1,35,27.1,35,27,34.9L27,34.9z
			 M29.2,34c0,0.2,0,0.3,0.1,0.5c0,0.1,0.1,0.2,0.1,0.2c0,0,0,0,0.1,0c0,0,0.1,0,0.1,0c0,0,0.1,0,0.1-0.1c0-0.1,0.1-0.1,0.1-0.2
			c0-0.1,0-0.1,0-0.2c0-0.5-0.2-0.7-0.4-0.7h-0.1C29.2,33.6,29.2,33.8,29.2,34z"/>
		<path id="XMLID_362_" class="st2" d="M30.4,29.2c0.1,0,0.1,0.1,0.1,0.1c0,0,0,0.1,0,0.1c-0.2,0.4-0.5,0.7-0.8,0.9
			c-0.3,0.2-0.7,0.3-1,0.3c0,0-0.1,0-0.1,0c-0.2,0-0.4-0.1-0.5-0.2c-0.1-0.1-0.2-0.2-0.2-0.4c0-0.1,0-0.2,0-0.3c0,0,0-0.1,0.1-0.1
			c0.1,0,0.1,0,0.2-0.1l0,0c0.1,0,0.1,0,0.1,0.1c0,0,0.1,0.1,0.1,0.1c0,0,0,0,0,0c0,0.1,0,0.1,0,0.2c0,0.2,0.1,0.2,0.3,0.3h0
			c0.1,0,0.2,0,0.4-0.1c0.1-0.1,0.3-0.2,0.5-0.3c0.2-0.2,0.3-0.3,0.5-0.6C30.1,29.2,30.2,29.2,30.4,29.2
			C30.4,29.2,30.4,29.2,30.4,29.2z"/>
		<path id="XMLID_360_" class="st2" d="M32.3,33.9L32.3,33.9c0.1,0,0.2,0,0.2,0c0,0,0.1,0.1,0.1,0.1c0,0.2-0.1,0.4-0.2,0.5
			c-0.1,0.2-0.3,0.3-0.5,0.3c-0.1,0-0.1,0-0.1,0c-0.3,0-0.6-0.2-0.8-0.5c-0.2-0.3-0.3-0.8-0.4-1.4c0,0,0,0,0-0.1c0,0,0-0.1,0-0.1
			c0-0.5,0.1-0.9,0.4-1.2c0.3-0.3,0.6-0.5,1.1-0.5c0.1,0,0.1,0,0.2,0c0.4,0,0.7,0.1,1,0.3c0.3,0.2,0.4,0.5,0.4,0.8v0
			c0,0.4,0,0.7,0,1.2c0,0.4,0,0.7,0,0.8c0,0.1,0,0.3,0,0.3v0c0,0.1,0,0.1-0.1,0.2c-0.1,0-0.1,0.1-0.2,0.1h0c-0.1,0-0.1,0-0.2,0
			c0,0-0.1-0.1-0.1-0.1c0-0.1,0-0.2,0-0.3c0-0.1,0-0.4,0-0.8c0-0.4,0-0.8,0-1.2l0,0c0-0.3-0.1-0.5-0.3-0.6c-0.2-0.1-0.4-0.2-0.7-0.2
			c0,0-0.1,0-0.1,0c-0.2,0-0.5,0.1-0.6,0.3c-0.2,0.2-0.3,0.5-0.3,0.9l0,0.1c0,0.3,0.1,0.5,0.1,0.7c0.1,0.2,0.1,0.4,0.2,0.5
			c0.1,0.1,0.1,0.2,0.2,0.3c0.1,0.1,0.1,0.1,0.2,0.1c0,0,0.1,0,0.1,0c0,0,0,0,0.1,0c0,0,0.1-0.1,0.1-0.1c0-0.1,0-0.1,0-0.2
			c0-0.1,0-0.1,0.1-0.2C32.2,33.9,32.2,33.9,32.3,33.9z"/>
		<path id="XMLID_358_" class="st2" d="M37.8,31.1L37.8,31.1c0.1,0,0.1,0,0.2,0c0,0,0.1,0.1,0.1,0.1v0c0,0.3,0,0.7,0,1.3
			c0,0.5,0,1,0,1.4c0,0.4,0,0.6,0,0.6c-0.1,0.1-0.2,0.2-0.3,0.2c-0.1,0-0.1,0-0.2-0.1c-0.1-0.1-0.2-0.3-0.3-0.5
			c-0.1-0.3-0.3-0.6-0.5-1c-0.2-0.4-0.3-0.7-0.4-0.9c-0.1,0.1-0.2,0.4-0.3,0.8c-0.1,0.4-0.3,0.7-0.4,1c-0.1,0.3-0.2,0.5-0.3,0.6
			c0,0,0,0,0,0.1c0,0,0,0,0,0.1c-0.1,0.1-0.3,0.1-0.4,0.1c-0.1,0-0.2,0-0.2-0.1c0-0.5,0-1-0.1-1.5c0-0.5-0.1-0.9-0.1-1.2
			c0-0.3-0.1-0.5-0.1-0.5c0,0,0,0,0-0.1c0-0.1,0.1-0.2,0.2-0.2c0,0,0.1,0,0.1,0c0.1,0,0.2,0,0.2,0.1c0.1,0.2,0.2,1,0.3,2.4
			c0.1-0.2,0.2-0.5,0.3-0.8c0.1-0.3,0.2-0.6,0.3-0.8c0.1-0.2,0.1-0.3,0.2-0.4c0.1-0.1,0.1-0.2,0.2-0.2c0,0,0.1,0,0.1,0
			c0,0,0.1,0,0.1,0.1l0,0c0,0,0.1,0.2,0.2,0.4c0.1,0.2,0.2,0.5,0.4,0.8c0.1,0.3,0.3,0.6,0.4,0.8c0-1.2,0-2,0.1-2.3
			c0-0.1,0-0.1,0.1-0.1C37.6,31.1,37.7,31.1,37.8,31.1z"/>
		<path id="XMLID_356_" class="st2" d="M41.8,31.1L41.8,31.1c0.1,0,0.2,0,0.2,0c0,0,0.1,0.1,0.1,0.1v0c0,0.6,0,1.2,0,1.9l0,0.6
			c0,0.1,0,0.1,0,0.2c-0.1,0.3-0.2,0.5-0.5,0.6c-0.3,0.1-0.6,0.2-1,0.2c-1,0-1.5-0.2-1.5-0.7c0-0.2,0-0.6,0-1c0-0.5,0-0.8,0-1
			c0-0.1,0-0.2,0-0.4c0-0.1,0-0.2-0.1-0.2c0-0.1,0-0.1,0-0.1c0,0-0.1-0.1-0.1-0.1c0-0.1,0-0.1,0.1-0.2c0.1,0,0.1-0.1,0.2-0.1
			c0.1,0,0.1,0,0.2,0.1c0.1,0.1,0.2,0.2,0.2,0.3c0,0.1,0,0.3,0,0.6c0,0.2,0,0.5,0,1c0,0.5,0,0.8,0,1c0,0.1,0.1,0.2,0.2,0.3
			c0.1,0.1,0.4,0.1,0.8,0.1c0.3,0,0.5,0,0.6-0.1c0.1-0.1,0.2-0.2,0.2-0.3c0,0,0-0.1,0-0.1l0-0.6c0-0.7,0-1.3,0-1.9
			c0-0.1,0-0.1,0.1-0.2C41.6,31.1,41.7,31.1,41.8,31.1z"/>
		<path id="XMLID_354_" class="st2" d="M45.6,31.2c0.1,0,0.1,0,0.2,0.1c0,0,0.1,0.1,0.1,0.1c0,0,0,0,0,0c-0.1,0.5-0.3,1.1-0.4,1.8
			c0,0.3-0.1,0.4-0.1,0.4c-0.1,0.4-0.1,0.6-0.2,0.7c-0.1,0.3-0.3,0.4-0.6,0.4c-0.1,0-0.1,0-0.2,0c-0.1,0-0.1,0-0.1-0.1
			c0,0-0.1-0.1-0.1-0.1c0-0.1-0.1-0.1-0.1-0.1c0,0,0-0.1-0.1-0.2c0-0.1,0-0.1,0-0.2c0,0,0-0.1,0-0.2c0-0.1,0-0.2,0-0.2
			c-0.1-0.4-0.2-1-0.2-1.6c0-0.3-0.1-0.5-0.2-0.6c0,0-0.1,0.1-0.1,0.2c0,0.1-0.1,0.1-0.1,0.2l0,0.1c0,0.1-0.1,0.2-0.3,0.2h0
			c-0.1,0-0.1,0-0.1-0.1c0,0-0.1-0.1-0.1-0.1c0,0,0,0,0-0.1c0,0,0,0,0-0.1c0,0,0-0.1,0.1-0.2c0-0.1,0.1-0.2,0.1-0.2
			c0.1-0.1,0.1-0.1,0.2-0.2c0.1-0.1,0.2-0.1,0.3-0.1c0.1,0,0.2,0,0.3,0.1c0.1,0,0.1,0.1,0.2,0.1c0,0.1,0.1,0.1,0.1,0.2
			c0,0.1,0.1,0.2,0.1,0.2c0,0.1,0,0.1,0,0.3c0.1,0.6,0.1,1.1,0.2,1.6c0.1,0.4,0.2,0.6,0.2,0.7c0.1-0.1,0.2-0.5,0.3-1.2
			c0.1-0.7,0.2-1.2,0.4-1.8c0-0.1,0.1-0.1,0.1-0.1C45.5,31.2,45.5,31.2,45.6,31.2L45.6,31.2z"/>
		<path id="XMLID_352_" class="st2" d="M46.5,32.2c-0.1,0-0.2-0.1-0.2-0.2c0,0,0,0,0-0.1c0.1-0.3,0.3-0.5,0.6-0.6
			c0.2-0.2,0.5-0.3,0.8-0.3c0.1,0,0.1,0,0.2,0c0.4,0,0.8,0.2,1.1,0.5c0.3,0.3,0.4,0.8,0.4,1.4c0,0.5-0.1,1-0.4,1.3
			c-0.3,0.3-0.6,0.5-1.1,0.6c-0.1,0-0.2,0-0.2,0c-0.4,0-0.7-0.1-0.9-0.3c-0.3-0.2-0.4-0.5-0.4-0.8c0-0.2,0.1-0.4,0.2-0.5
			c0.1-0.1,0.1-0.1,0.2-0.2c0.1,0,0.2-0.1,0.3-0.1c0.2,0,0.3,0,0.5,0.1c0.1,0,0.1,0.1,0.1,0.2c0,0,0,0.1-0.1,0.1
			c-0.1,0.1-0.2,0.1-0.3,0.1c-0.1,0-0.1,0-0.1,0c-0.1,0-0.2-0.1-0.3-0.1h0c0,0,0,0,0,0c0,0,0,0,0,0.1c0,0,0,0.1,0,0.1
			c0,0.2,0.1,0.4,0.3,0.6c0.2,0.1,0.4,0.2,0.6,0.2c0,0,0.1,0,0.1,0c0.1,0,0.2,0,0.3-0.1c0.1,0,0.2-0.1,0.3-0.2
			c0.1-0.1,0.2-0.2,0.2-0.4c0.1-0.2,0.1-0.4,0.1-0.6c0-0.3,0-0.5-0.1-0.7c-0.1-0.2-0.2-0.4-0.3-0.5c-0.1-0.1-0.2-0.2-0.3-0.2
			c-0.1-0.1-0.2-0.1-0.3-0.1c0,0,0,0,0,0c0,0,0,0,0,0c-0.4,0-0.6,0.2-0.8,0.6c0,0-0.1,0.1-0.1,0.1C46.7,32.2,46.7,32.2,46.5,32.2
			C46.6,32.2,46.5,32.2,46.5,32.2z"/>
		<path id="XMLID_350_" class="st2" d="M50.7,31.7c-0.1,0-0.1-0.1-0.1-0.1c0-0.1,0-0.1,0.1-0.2c0.3-0.2,0.6-0.3,0.9-0.3
			c0.4,0,0.7,0.3,0.9,0.8c0.1,0.3,0.1,0.6,0.1,1c0,0.4-0.1,0.7-0.2,1c-0.2,0.7-0.5,1-1,1c-0.1,0-0.2,0-0.4-0.1
			c-0.1-0.1-0.2-0.1-0.3-0.3c-0.1-0.1-0.2-0.2-0.2-0.3c-0.1-0.1-0.1-0.2-0.2-0.4c-0.1-0.1-0.2-0.5-0.3-1c0,0,0,0,0,0
			c0,0,0-0.1,0.1-0.1c0,0,0.1-0.1,0.2-0.1c0,0,0.1,0,0.1,0c0.1,0,0.2,0,0.2,0.1c0.2,0.5,0.3,0.8,0.3,1c0.1,0.2,0.2,0.4,0.3,0.5
			c0.1,0.2,0.2,0.2,0.3,0.2c0,0,0,0,0.1-0.1c0,0,0.1-0.1,0.1-0.2c0.1-0.1,0.1-0.2,0.1-0.3c0.1-0.3,0.1-0.6,0.1-1
			c0-0.4,0-0.7-0.1-0.9c0-0.2-0.1-0.3-0.2-0.4c-0.1-0.1-0.1-0.1-0.2-0.1c-0.1,0-0.2,0.1-0.4,0.2c-0.1,0.1-0.2,0.1-0.2,0.1
			C50.8,31.7,50.7,31.7,50.7,31.7z"/>
		<path id="XMLID_348_" class="st2" d="M54.1,34.8c-0.1,0-0.1,0-0.2,0c-0.1,0-0.2,0-0.2-0.1c-0.1-0.2-0.2-0.5-0.2-1
			c0-1.5,0-2.3,0-2.4v0c0-0.1,0-0.1,0.1-0.2c0.1,0,0.1-0.1,0.2-0.1c0,0,0,0,0,0c0,0,0,0,0,0c0.1,0,0.1,0,0.2,0c0,0,0.1,0.1,0.1,0.1
			c0,0.1,0,0.9,0,2.4c0,0.4,0.1,0.6,0.2,0.8c0,0,0,0.1,0,0.1C54.3,34.7,54.2,34.8,54.1,34.8z"/>
		<path id="XMLID_346_" class="st2" d="M56.7,33.9L56.7,33.9c0.1,0,0.2,0,0.2,0.1c0,0,0.1,0.1,0.1,0.1c0,0.2-0.1,0.4-0.2,0.5
			c-0.1,0.2-0.3,0.3-0.6,0.3c-0.1,0-0.1,0-0.1,0c-0.3,0-0.6-0.2-0.8-0.5C55.1,34,55,33.5,55,32.9c0,0,0,0,0-0.1s0-0.1,0-0.1
			c0-0.5,0.2-0.9,0.5-1.2c0.3-0.3,0.7-0.5,1.1-0.5c0.1,0,0.1,0,0.2,0c0.4,0,0.7,0.1,1,0.3c0.3,0.2,0.4,0.5,0.4,0.9v0
			c0,0.4,0,0.7,0,1.2c0,0.4,0,0.7,0,0.8c0,0.1,0,0.2,0,0.3v0c0,0.1,0,0.1-0.1,0.2c-0.1,0-0.1,0.1-0.2,0.1l0,0c-0.1,0-0.1,0-0.2-0.1
			c0,0-0.1-0.1-0.1-0.1c0-0.1,0-0.2,0-0.3c0-0.1,0-0.4,0-0.8c0-0.4,0-0.8,0-1.2v0c0-0.3-0.1-0.5-0.3-0.6c-0.2-0.2-0.4-0.2-0.7-0.2
			c0,0-0.1,0-0.1,0c-0.2,0-0.5,0.1-0.7,0.3c-0.2,0.2-0.3,0.5-0.3,0.9v0.1c0,0.3,0,0.5,0.1,0.7c0,0.2,0.1,0.4,0.1,0.5
			c0.1,0.1,0.1,0.2,0.2,0.3c0.1,0.1,0.1,0.1,0.2,0.1c0,0,0.1,0,0.1,0c0,0,0,0,0.1,0c0,0,0.1-0.1,0.1-0.1c0-0.1,0-0.1,0-0.2
			c0-0.1,0-0.1,0.1-0.2C56.6,33.9,56.6,33.9,56.7,33.9z"/>
		<path id="XMLID_344_" class="st2" d="M58,30.6c-0.1,0-0.1,0.1-0.2,0.1c0,0-0.1,0-0.1,0c0,0,0,0-0.1-0.1c0,0-0.1-0.1-0.1-0.1
			c-0.1-0.1-0.1-0.1-0.1-0.1c0,0.1-0.1,0.2-0.2,0.2c-0.1,0.1-0.2,0.1-0.4,0.1c-0.2,0-0.4-0.1-0.6-0.2c-0.1-0.1-0.2-0.3-0.2-0.5
			c0,0,0-0.1,0-0.1c0-0.2,0.1-0.3,0.3-0.4c0.2-0.1,0.3-0.1,0.6-0.1c0.3,0,0.6,0,0.7,0c0.2,0,0.3,0,0.4,0c0.1,0,0.1,0,0.2,0
			c0.1,0,0.1,0,0.1,0c0,0,0,0.1,0,0.1c0,0.1,0,0.1-0.1,0.1c0,0-0.1,0-0.1,0.1c0,0-0.1,0-0.1,0c-0.1,0-0.1,0-0.1,0c0,0-0.1,0-0.2,0
			c-0.1,0-0.1,0-0.2,0c-0.3,0-0.5,0-0.8,0c-0.1,0-0.2,0-0.2,0c0,0-0.1,0.1-0.1,0.2c0,0,0,0.1,0,0.1c0,0.2,0.1,0.4,0.4,0.4
			c0.1,0,0.1,0,0.2-0.1c0.1,0,0.1-0.1,0.1-0.1v0c0-0.1,0.1-0.2,0.2-0.2c0,0,0.1,0,0.1,0c0,0,0.1,0,0.1,0l0,0
			c0.1,0.1,0.1,0.1,0.2,0.2c0.1,0.1,0.2,0.1,0.2,0.1l0.1,0.1c0.1,0,0.1,0.1,0.1,0.1C58.1,30.6,58.1,30.6,58,30.6z"/>
		<path id="XMLID_212_" class="st2" d="M59.3,34.9L59.3,34.9c-0.1,0-0.2,0-0.2-0.1c0,0-0.1-0.1-0.1-0.1v0c0.1-1.2,0.1-2,0.1-2.2
			c0-0.4,0-0.6-0.1-0.8c0,0,0,0,0,0c0-0.1,0.1-0.2,0.2-0.2c0.4-0.2,0.9-0.2,1.6-0.2c0.3,0,0.6,0.1,0.8,0.2c0.2,0.2,0.3,0.4,0.3,0.6
			c0,0.1,0,0.3,0,0.7c0,0.4,0,0.7-0.1,1c0,0.3,0,0.6,0,0.8v0c0,0.1,0,0.1-0.1,0.1c-0.1,0-0.1,0.1-0.2,0.1c0,0,0,0,0,0c0,0,0,0,0,0
			c-0.1,0-0.1,0-0.2-0.1c0,0-0.1-0.1-0.1-0.1c0-0.3,0-0.5,0-0.8c0-0.3,0-0.6,0.1-1c0-0.4,0-0.6,0-0.6c0-0.3-0.2-0.5-0.6-0.5
			c-0.4,0-0.8,0-1,0.1c0,0.2,0,0.4,0,0.7c0,0.2-0.1,1-0.1,2.2c0,0.1,0,0.1-0.1,0.2C59.4,34.9,59.3,34.9,59.3,34.9z"/>
		<path id="XMLID_210_" class="st2" d="M64.6,32.8C64.6,32.9,64.6,32.9,64.6,32.8c0,0.2,0,0.2-0.1,0.3c-0.2,0.1-0.3,0.2-0.4,0.4
			c-0.1,0.2-0.2,0.4-0.2,0.5c-0.1,0.2-0.1,0.3-0.1,0.5c0,0.2-0.1,0.3-0.1,0.3c-0.1,0.1-0.2,0.2-0.3,0.2c-0.1,0-0.1,0-0.2-0.1
			c-0.1-0.1-0.1-0.3-0.2-0.6c-0.1-0.4-0.2-0.7-0.2-1.1c0-0.1,0-0.2,0-0.3c0-0.1,0-0.2,0-0.3c0.1-0.4,0.3-0.7,0.6-0.9
			c0.3-0.2,0.7-0.3,1-0.3l0.1,0c0.4,0,0.8,0.2,1.1,0.5c0.3,0.3,0.4,0.7,0.4,1.1c0,0.1,0,0.2,0,0.3c0,0.2-0.1,0.5-0.2,0.7
			c-0.1,0.3-0.1,0.5-0.2,0.6c-0.1,0.2-0.1,0.2-0.1,0.2c0,0.1-0.1,0.2-0.3,0.2h0c-0.1,0-0.1,0-0.1-0.1c0,0-0.1-0.1-0.1-0.1
			c0,0,0,0,0,0c0.2-0.6,0.3-1.1,0.4-1.5c0-0.1,0-0.2,0-0.3c0-0.4-0.1-0.7-0.3-0.9c-0.2-0.2-0.5-0.3-0.7-0.3h0
			c-0.2,0-0.4,0.1-0.6,0.2c-0.2,0.1-0.3,0.4-0.4,0.7c0,0.1,0,0.1,0,0.2c0,0.1,0,0.2,0,0.3c0,0.2,0.1,0.5,0.1,0.8
			c0.1-0.6,0.4-1,0.9-1.1c0.1,0,0.1,0,0.1,0C64.5,32.7,64.6,32.8,64.6,32.8z"/>
		<path id="XMLID_169_" class="st2" d="M65.1,29.1c0.1-0.1,0.1-0.1,0.2-0.1l0.1,0c0.1,0,0.2,0,0.2,0.1c0,0,0,0.2,0,0.3
			c0,0.4-0.1,0.6-0.1,0.7c0,0.1-0.1,0.1-0.2,0.1c0,0-0.1,0-0.1,0c0,0-0.1,0-0.1-0.1l0,0c0,0,0-0.2,0-0.5c0-0.3,0-0.5,0-0.5
			L65.1,29.1z"/>
		<path id="XMLID_12_" class="st2" d="M66.5,32.7c-0.1,0-0.1,0-0.2-0.1c0,0-0.1-0.1-0.1-0.1c0,0,0,0,0,0c0.1-0.3,0.3-0.5,0.6-0.7
			c0.3-0.2,0.5-0.3,0.8-0.3l0.1,0c0.3,0,0.5,0.1,0.6,0.3c0.1,0.2,0.2,0.4,0.2,0.7c0,0.1,0,0.1,0,0.1c-0.1,0.9-0.2,1.6-0.2,2.2l0,0.2
			c0,0.1,0,0.1-0.1,0.2c-0.1,0-0.1,0.1-0.2,0.1h-0.1c-0.1,0-0.1,0-0.2-0.1c0,0-0.1-0.1-0.1-0.1l0-0.2c0-0.6,0.1-1.4,0.2-2.3
			c0,0,0-0.1,0-0.1c0-0.2,0-0.3-0.1-0.4c-0.1-0.1-0.2-0.1-0.2-0.1h0c-0.1,0-0.3,0.1-0.4,0.2c-0.2,0.1-0.3,0.3-0.4,0.5
			c0,0.1-0.1,0.1-0.1,0.1C66.7,32.7,66.6,32.7,66.5,32.7L66.5,32.7z"/>
		<path id="XMLID_10_" class="st2" d="M70.8,35.3c-0.3,0-0.6-0.1-0.8-0.4c-0.2-0.2-0.3-0.5-0.3-0.8c0-0.3,0.2-0.6,0.4-0.7
			c-0.2-0.1-0.4-0.2-0.5-0.3c-0.1-0.2-0.2-0.3-0.2-0.6c0-0.1,0-0.1,0-0.2c0.1-0.2,0.2-0.4,0.4-0.5c0.2-0.1,0.4-0.2,0.7-0.2
			c0.3,0,0.5,0.1,0.7,0.3c0.1,0,0.1,0.1,0.1,0.1c0,0.1,0,0.1-0.1,0.1c-0.1,0-0.1,0.1-0.2,0.1c-0.1,0-0.1,0-0.2,0
			C70.6,32,70.5,32,70.4,32c-0.2,0-0.4,0.1-0.5,0.4c0,0,0,0.1,0,0.2c0,0.1,0,0.1,0,0.2c0,0.1,0,0.1,0.1,0.1c0,0,0.1,0.1,0.1,0.1
			c0,0,0.1,0.1,0.1,0.1c0.1,0,0.1,0,0.1,0.1c0,0,0.1,0,0.2,0c0.1,0,0.1,0,0.1,0c0,0,0.1,0,0.2,0c0.1,0,0.1,0,0.1,0
			c0.1,0,0.2,0.1,0.2,0.1c0,0,0,0.1-0.1,0.1c0,0-0.1,0.1-0.1,0.1l0,0c0,0-0.1,0-0.1,0c-0.1,0-0.1,0-0.2,0c0,0-0.1,0-0.2,0.1
			c-0.1,0-0.1,0.1-0.1,0.2c0,0.1-0.1,0.2-0.1,0.3c0,0.2,0.1,0.4,0.2,0.5c0.2,0.2,0.3,0.2,0.5,0.2c0.3,0,0.6-0.3,0.8-1
			c0.1-0.4,0.2-0.8,0.2-1.3c0-0.3,0-0.5,0-0.7v0c0-0.1,0-0.1,0.1-0.1c0.1,0,0.1-0.1,0.2-0.1c0,0,0,0,0,0c0,0,0,0,0,0
			c0.1,0,0.1,0,0.2,0.1c0,0,0.1,0.1,0.1,0.1c0,0.2,0,0.5,0,0.8c0,0.5-0.1,1-0.2,1.3C72,34.9,71.5,35.4,70.8,35.3z"/>
		<path id="XMLID_8_" class="st2" d="M77.5,35.1c-0.1,0.1-0.2,0.1-0.3,0.1c-0.1,0-0.1,0-0.2,0c-0.2-0.2-0.6-0.4-1-0.7
			c-0.4-0.3-0.8-0.6-1.1-0.8c-0.1,0-0.1-0.1-0.1-0.1c0-0.1,0.1-0.1,0.2-0.2c0.5-0.2,1.2-0.6,2.2-1.3c0.1,0,0.2-0.1,0.2-0.1
			c0.1,0,0.1,0,0.2,0.1c0,0,0.1,0.1,0.1,0.1c0,0.1,0,0.1-0.1,0.2c-0.8,0.5-1.5,0.9-1.9,1.2c0.7,0.6,1.3,1,1.8,1.4
			c0.1,0,0.1,0.1,0.1,0.1C77.6,35,77.6,35,77.5,35.1z"/>
		<path id="XMLID_6_" class="st2" d="M80.9,35.3c-0.1,0.1-0.2,0.1-0.3,0.1c-0.1,0-0.1,0-0.2,0c-0.2-0.2-0.6-0.4-1-0.7
			c-0.4-0.3-0.8-0.6-1.1-0.9c-0.1,0-0.1-0.1-0.1-0.1c0-0.1,0.1-0.1,0.2-0.2c0.5-0.2,1.2-0.6,2.2-1.2c0.1,0,0.2-0.1,0.2-0.1
			c0.1,0,0.1,0,0.2,0.1c0,0,0.1,0.1,0.1,0.1c0,0.1,0,0.1-0.1,0.2c-0.8,0.5-1.5,0.9-1.9,1.1c0.7,0.6,1.3,1,1.8,1.4
			c0.1,0,0.1,0.1,0.1,0.1C81,35.2,81,35.2,80.9,35.3z"/>
		<path id="XMLID_4_" class="st2" d="M84.3,35.5c-0.1,0.1-0.2,0.1-0.3,0.1c-0.1,0-0.1,0-0.2,0c-0.2-0.2-0.6-0.4-1-0.7
			c-0.4-0.3-0.8-0.6-1.1-0.9c-0.1,0-0.1-0.1-0.1-0.1c0-0.1,0.1-0.1,0.2-0.2c0.5-0.2,1.2-0.6,2.2-1.2c0.1,0,0.2-0.1,0.2-0.1
			c0.1,0,0.1,0,0.2,0.1c0,0,0.1,0.1,0.1,0.1c0,0.1,0,0.1-0.1,0.2c-0.8,0.5-1.5,0.9-1.9,1.1c0.7,0.6,1.3,1.1,1.8,1.4
			c0.1,0,0.1,0.1,0.1,0.1C84.4,35.5,84.4,35.5,84.3,35.5z"/>
	</g>
</g>
<g id="XMLID_443_">
</g>
<g id="XMLID_444_">
</g>
<g id="XMLID_445_">
</g>
<g id="XMLID_446_">
</g>
<g id="XMLID_447_">
</g>
<g id="XMLID_448_">
</g>
</svg>
