<?xml version="1.0" encoding="utf-8"?>
<!-- Generator: Adobe Illustrator 21.1.0, SVG Export Plug-In . SVG Version: 6.00 Build 0)  -->
<svg version="1.1" id="Layer_1" xmlns="http://www.w3.org/2000/svg" xmlns:xlink="http://www.w3.org/1999/xlink" x="0px" y="0px"
	 viewBox="0 0 503.5 503.5" style="enable-background:new 0 0 503.5 503.5;" xml:space="preserve">
<style type="text/css">
	.st0{fill:#FFFFFF;}
	.st1{fill:#E0E5E8;}
	.st2{fill:#E0E5E9;}
	.st3{fill:#6A829A;}
</style>
<g transform="translate(1 1)">
	<g>
		<polygon class="st0" points="242.2,259.3 276.3,259.3 276.3,139.8 242.2,139.8 		"/>
		<path class="st1" d="M310.5,71.5v426.7h85.3V122.7V71.5V37.4c0-9.4-7.7-17.1-17.1-17.1h-51.2c-9.4,0-17.1,7.7-17.1,17.1
			L310.5,71.5L310.5,71.5z"/>
	</g>
	<g>
		<path class="st1" d="M498.2,122.7v358.4c0,9.4-7.7,17.1-17.1,17.1h-85.3V122.7H498.2z M498.2,88.6v34.1H395.8V71.5h85.3
			C490.5,71.5,498.2,79.2,498.2,88.6z"/>
		<path class="st1" d="M122.7,259.3h51.2V139.8h-51.2V259.3z M208.1,54.5v443.7H88.6V105.7V54.5H208.1z M208.1,54.5H88.6V20.3
			c0-9.4,7.7-17.1,17.1-17.1H191c9.4,0,17.1,7.7,17.1,17.1v17.1V54.5z"/>
	</g>
	<path class="st2" d="M88.6,105.7v392.5H20.3c-9.4,0-17.1-7.7-17.1-17.1V71.5c0-9.4,7.7-17.1,17.1-17.1h68.3V105.7z"/>
	<polygon class="st0" points="122.7,259.3 173.9,259.3 173.9,139.8 122.7,139.8 	"/>
	<path class="st1" d="M242.2,259.3h34.1V139.8h-34.1V259.3z M310.5,71.5v426.7H208.1V54.5V37.4h102.4V71.5z"/>
</g>
<path class="st3" d="M482.1,503.5H21.3C9.4,503.5,0,494.1,0,482.1V72.5c0-11.9,9.4-21.3,21.3-21.3h34.1c2.6,0,4.3,1.7,4.3,4.3
	s-1.7,4.3-4.3,4.3H21.3c-6.8,0-12.8,6-12.8,12.8v409.6c0,6.8,6,12.8,12.8,12.8h64v-384H38.4c-2.6,0-4.3-1.7-4.3-4.3s1.7-4.3,4.3-4.3
	h46.9V21.3C85.3,9.4,94.7,0,106.7,0H192c11.9,0,21.3,9.4,21.3,21.3v12.8h64c2.6,0,4.3,1.7,4.3,4.3s-1.7,4.3-4.3,4.3h-64v452.3h93.9
	V38.4c0-11.9,9.4-21.3,21.3-21.3h51.2c11.9,0,21.3,9.4,21.3,21.3v81.1h55.5c2.6,0,4.3,1.7,4.3,4.3s-1.7,4.3-4.3,4.3h-55.5v366.9
	h81.1c6.8,0,12.8-6,12.8-12.8V89.6c0-6.8-6-12.8-12.8-12.8h-51.2c-2.6,0-4.3-1.7-4.3-4.3s1.7-4.3,4.3-4.3h51.2
	c11.9,0,21.3,9.4,21.3,21.3v392.5C503.5,494.1,494.1,503.5,482.1,503.5z M315.7,494.9h76.8V38.4c0-7.7-5.1-12.8-12.8-12.8h-51.2
	c-6.8,0-12.8,6-12.8,12.8v29.9h46.9c2.6,0,4.3,1.7,4.3,4.3s-1.7,4.3-4.3,4.3h-46.9L315.7,494.9L315.7,494.9z M93.9,494.9h110.9V21.3
	c0-7.7-5.1-12.8-12.8-12.8h-85.3c-6.8,0-12.8,6-12.8,12.8v29.9h81.1c2.6,0,4.3,1.7,4.3,4.3s-1.7,4.3-4.3,4.3H93.9V494.9z
	 M465.1,452.3h-34.1c-2.6,0-4.3-1.7-4.3-4.3s1.7-4.3,4.3-4.3h34.1c2.6,0,4.3,1.7,4.3,4.3C469.3,450.6,467.6,452.3,465.1,452.3z
	 M362.7,452.3h-17.1c-2.6,0-4.3-1.7-4.3-4.3s1.7-4.3,4.3-4.3h17.1c2.6,0,4.3,1.7,4.3,4.3C366.9,450.6,365.2,452.3,362.7,452.3z
	 M277.3,452.3h-34.1c-2.6,0-4.3-1.7-4.3-4.3s1.7-4.3,4.3-4.3h34.1c2.6,0,4.3,1.7,4.3,4.3S279.9,452.3,277.3,452.3z M174.9,452.3
	h-51.2c-2.6,0-4.3-1.7-4.3-4.3s1.7-4.3,4.3-4.3h51.2c2.6,0,4.3,1.7,4.3,4.3S177.5,452.3,174.9,452.3z M55.5,452.3H38.4
	c-2.6,0-4.3-1.7-4.3-4.3s1.7-4.3,4.3-4.3h17.1c2.6,0,4.3,1.7,4.3,4.3C59.7,450.6,58,452.3,55.5,452.3z M465.1,418.1h-34.1
	c-2.6,0-4.3-1.7-4.3-4.3s1.7-4.3,4.3-4.3h34.1c2.6,0,4.3,1.7,4.3,4.3C469.3,416.4,467.6,418.1,465.1,418.1z M362.7,418.1h-17.1
	c-2.6,0-4.3-1.7-4.3-4.3s1.7-4.3,4.3-4.3h17.1c2.6,0,4.3,1.7,4.3,4.3C366.9,416.4,365.2,418.1,362.7,418.1z M277.3,418.1h-34.1
	c-2.6,0-4.3-1.7-4.3-4.3s1.7-4.3,4.3-4.3h34.1c2.6,0,4.3,1.7,4.3,4.3C281.6,416.4,279.9,418.1,277.3,418.1z M174.9,418.1h-51.2
	c-2.6,0-4.3-1.7-4.3-4.3s1.7-4.3,4.3-4.3h51.2c2.6,0,4.3,1.7,4.3,4.3C179.2,416.4,177.5,418.1,174.9,418.1z M55.5,418.1H38.4
	c-2.6,0-4.3-1.7-4.3-4.3s1.7-4.3,4.3-4.3h17.1c2.6,0,4.3,1.7,4.3,4.3C59.7,416.4,58,418.1,55.5,418.1z M465.1,298.7
	c-2.6,0-4.3-1.7-4.3-4.3v-85.3c0-2.6,1.7-4.3,4.3-4.3s4.3,1.7,4.3,4.3v85.3C469.3,297,467.6,298.7,465.1,298.7z M430.9,298.7
	c-2.6,0-4.3-1.7-4.3-4.3v-85.3c0-2.6,1.7-4.3,4.3-4.3s4.3,1.7,4.3,4.3v85.3C435.2,297,433.5,298.7,430.9,298.7z M277.3,264.5h-34.1
	c-2.6,0-4.3-1.7-4.3-4.3V140.8c0-2.6,1.7-4.3,4.3-4.3h34.1c2.6,0,4.3,1.7,4.3,4.3v119.5C281.6,262.8,279.9,264.5,277.3,264.5z
	 M247.5,256h25.6V145.1h-25.6L247.5,256L247.5,256z M174.9,264.5h-51.2c-2.6,0-4.3-1.7-4.3-4.3V140.8c0-2.6,1.7-4.3,4.3-4.3h51.2
	c2.6,0,4.3,1.7,4.3,4.3v119.5C179.2,262.8,177.5,264.5,174.9,264.5z M128,256h42.7V145.1H128V256z M55.5,247.5H38.4
	c-2.6,0-4.3-1.7-4.3-4.3s1.7-4.3,4.3-4.3h17.1c2.6,0,4.3,1.7,4.3,4.3S58,247.5,55.5,247.5z M362.7,213.3h-17.1
	c-2.6,0-4.3-1.7-4.3-4.3s1.7-4.3,4.3-4.3h17.1c2.6,0,4.3,1.7,4.3,4.3C366.9,211.6,365.2,213.3,362.7,213.3z M55.5,213.3H38.4
	c-2.6,0-4.3-1.7-4.3-4.3s1.7-4.3,4.3-4.3h17.1c2.6,0,4.3,1.7,4.3,4.3C59.7,211.6,58,213.3,55.5,213.3z M362.7,179.2h-17.1
	c-2.6,0-4.3-1.7-4.3-4.3s1.7-4.3,4.3-4.3h17.1c2.6,0,4.3,1.7,4.3,4.3C366.9,177.5,365.2,179.2,362.7,179.2z M362.7,145.1h-17.1
	c-2.6,0-4.3-1.7-4.3-4.3s1.7-4.3,4.3-4.3h17.1c2.6,0,4.3,1.7,4.3,4.3C366.9,143.4,365.2,145.1,362.7,145.1z"/>
<image style="overflow:visible;" width="1920" height="1080" xlink:href="C49573A5.jpg"  transform="matrix(1 0 0 1 -1993 -206.267)">
</image>
</svg>
