<?xml version="1.0" encoding="utf-8"?>
<!-- Generator: Adobe Illustrator 21.1.0, SVG Export Plug-In . SVG Version: 6.00 Build 0)  -->
<svg version="1.1" id="Layer_1" xmlns="http://www.w3.org/2000/svg" xmlns:xlink="http://www.w3.org/1999/xlink" x="0px" y="0px"
	 viewBox="0 0 361 361" style="enable-background:new 0 0 361 361;" xml:space="preserve">
<style type="text/css">
	.st0{fill:#E0E5E9;stroke:#6A829A;stroke-width:6;stroke-miterlimit:10;}
	.st1{fill:#FFFFFF;stroke:#6A829A;stroke-width:8;stroke-linecap:round;stroke-linejoin:round;stroke-miterlimit:10;}
</style>
<path class="st0" d="M308,358H53c-27.6,0-50-22.4-50-50V53C3,25.4,25.4,3,53,3h255c27.6,0,50,22.4,50,50v255
	C358,335.6,335.6,358,308,358z"/>
<path class="st1" d="M84.5,203l67,64.5c0,0-30,30.5-69.5,19l-20-20c0,0-5.5-9.4-1.5-20.5C64.5,235,84.5,203,84.5,203z"/>
<path class="st1" d="M51.7,78.7l186,197c0,0,9.5,13,21,13c11.5,0,21,0,21,0s9.5,4,17.5-13s14-41.5,14-41.5s10-10.5-22.5-33
	s-205-140-205-140s-9.5-7.5-16.5-4s-13,6.5-13,6.5S43,69.4,51.7,78.7z"/>
<path class="st1" d="M222.5,81l49,39c0,0,19.5,11,21-3.5s6-32,6-32s-3-12-8.5-16s-8.7-6.1-8.7-6.1s-10.6-4.5-26.4,0
	c-15.8,4.5-21.2,6.1-21.2,6.1S212.1,72.7,222.5,81z"/>
</svg>
