<?xml version="1.0" encoding="utf-8"?>
<!-- Generator: Adobe Illustrator 21.1.0, SVG Export Plug-In . SVG Version: 6.00 Build 0)  -->
<svg version="1.1" id="Layer_1" xmlns="http://www.w3.org/2000/svg" xmlns:xlink="http://www.w3.org/1999/xlink" x="0px" y="0px"
	 viewBox="0 0 503.5 503.5" style="enable-background:new 0 0 503.5 503.5;" xml:space="preserve">
<style type="text/css">
	.st0{fill:#E0E5E9;}
	.st1{fill:#F7F8FA;}
	.st2{fill:#6B839B;}
</style>
<g transform="translate(1 3)">
	<g>
		<path class="st0" d="M378.7,204.7L378.7,204.7v129.7c24.7-20.5,34.1-42.7,34.1-42.7v-99.8L412,191l86.2-35v-34.1
			c0,0-74.2,30.7-119.5,49.5l0,0l0,0V204.7z M250.7,377.1c-128,0-162.1-85.3-162.1-85.3v-99l0.9-1.7l161.3,66.6l128-52.9v129.7
			c-18.8,15.4-34.1,23-34.1,23C321.6,368.5,290.8,377.1,250.7,377.1z"/>
		<path class="st0" d="M3.3,121.1L250.7,18.7l247.5,102.4c0,0-74.2,30.7-119.5,49.5l0,0l0,0v33.3l0,0l-128,52.9L89.5,190.2l-86.2-35
			V121.1z M271.2,131.3c3.4-2.6,5.1-6,5.1-10.2c0-9.4-11.1-17.1-25.6-17.1c-14.5,0-25.6,7.7-25.6,17.1s11.1,17.1,25.6,17.1
			C259.3,138.1,266.9,135.6,271.2,131.3L271.2,131.3z"/>
	</g>
	<path class="st1" d="M276.3,121.1c0,3.4-1.7,6.8-5.1,10.2c-4.3,4.3-11.9,6.8-20.5,6.8c-14.5,0-25.6-7.7-25.6-17.1
		s11.1-17.1,25.6-17.1C265.2,104,276.3,111.7,276.3,121.1"/>
	<path class="st1" d="M378.7,394.1c9.4,0,17.1,7.7,17.1,17.1s-7.7,17.1-17.1,17.1s-17.1-7.7-17.1-17.1S369.3,394.1,378.7,394.1"/>
</g>
<path class="st2" d="M413.9,486.7c-1.7,0-3.4-1.7-4.3-3.4l-8.5-34.1v-0.9c0-1.7,1.7-3.4,3.4-4.3c2.6-0.9,4.3,0.9,5.1,3.4l8.5,34.1
	v0.9c0,1.7-1.7,3.4-3.4,4.3H413.9z M345.6,486.7h-0.9c-1.7-0.9-3.4-2.6-3.4-4.3v-0.9l8.5-34.1c0.9-2.6,2.6-3.4,5.1-3.4
	c1.7,0.9,3.4,2.6,3.4,4.3v0.9l-8.5,34.1C349,485,347.3,486.7,345.6,486.7z M379.7,486.7c-2.6,0-4.3-1.7-4.3-4.3v-25.6
	c0-2.6,1.7-4.3,4.3-4.3s4.3,1.7,4.3,4.3v25.6C384,485,382.3,486.7,379.7,486.7z M379.7,435.5c-11.9,0-21.3-9.4-21.3-21.3
	c0-10.2,7.7-18.8,17.1-21.3v-55.5l0,0V207.7l0,0v-27.3L343,194l0,0l-89.6,36.7c-0.9,0.9-2.6,0.9-3.4,0L2.6,128.3
	c-1.7-0.9-2.6-2.6-2.6-4.3s0.9-3.4,2.6-4.3L250,17.4c0.9-0.9,2.6-0.9,3.4,0l247.5,102.4c1.7,0.9,2.6,2.6,2.6,4.3s-0.9,3.4-2.6,4.3
	L384,177v24.7l110.9-46.1v-6c0-2.6,1.7-4.3,4.3-4.3s4.3,1.7,4.3,4.3v8.5c0,1.7-0.9,3.4-2.6,4.3L384,210.2v118.6
	c17.1-14.5,23.9-31.6,25.6-35V235c0-2.6,1.7-4.3,4.3-4.3s4.3,1.7,4.3,4.3v59.7c0,0.9,0,0.9,0,1.7c0,0.9-9.4,25.6-34.1,43.5v53.8
	c9.4,1.7,17.1,10.2,17.1,21.3C401.1,426.1,391.7,435.5,379.7,435.5z M379.7,401.4c-6.8,0-12.8,6-12.8,12.8s6,12.8,12.8,12.8
	s12.8-6,12.8-12.8S386.6,401.4,379.7,401.4z M15.4,124.1l236.4,98.1l116.1-47.8l-93.9-35c-5.1,4.3-12.8,6.8-21.3,6.8
	c-17.1,0-29.9-9.4-29.9-21.3s12.8-21.3,29.9-21.3s29.9,9.4,29.9,21.3c0,2.6-0.9,5.1-1.7,7.7l99.8,37.5l109.2-45.2L253.4,26.8
	L15.4,124.1z M251.7,111.3c-11.9,0-21.3,6-21.3,12.8s9.4,12.8,21.3,12.8c6.8,0,13.7-2.6,17.1-6l0.9-0.9c1.7-1.7,2.6-4.3,2.6-6.8
	C273.1,117.2,263.7,111.3,251.7,111.3z M251.7,384.3c-129.7,0-165.5-87-166.4-87.9c0-0.9,0-0.9,0-1.7V235c0-2.6,1.7-4.3,4.3-4.3
	s4.3,1.7,4.3,4.3v58.9c3.4,7.7,40.1,80.2,153.6,81.9v-81.1c0-2.6,1.7-4.3,4.3-4.3s4.3,1.7,4.3,4.3v81.1
	c41.8-0.9,70.8-11.1,87.9-19.6c1.7-0.9,4.3,0,6,1.7c1.7,1.7,0,4.3-1.7,6C328.5,373.2,297,384.3,251.7,384.3z M251.7,264.9
	c-0.9,0-0.9,0-1.7,0L2.6,162.5c-1.7-0.9-2.6-2.6-2.6-4.3v-8.5c0-2.6,1.7-4.3,4.3-4.3s4.3,1.7,4.3,4.3v6l243.2,100.7l92.2-38.4
	c2.6-0.9,4.3,0,6,2.6c0.9,2.6,0,4.3-2.6,6l-93.9,39.3C252.6,264.9,252.6,264.9,251.7,264.9z"/>
<image style="overflow:visible;" width="1920" height="1080" xlink:href="741D7E7E.jpg"  transform="matrix(1 0 0 1 -2022 -280.267)">
</image>
</svg>
