<?xml version="1.0" encoding="utf-8"?>
<!-- Generator: Adobe Illustrator 21.1.0, SVG Export Plug-In . SVG Version: 6.00 Build 0)  -->
<svg version="1.1" id="Layer_1" xmlns="http://www.w3.org/2000/svg" xmlns:xlink="http://www.w3.org/1999/xlink" x="0px" y="0px"
	 viewBox="0 0 503.5 503.5" style="enable-background:new 0 0 503.5 503.5;" xml:space="preserve">
<style type="text/css">
	.st0{fill:#E0E5E9;}
	.st1{fill:#FFFFFF;}
	.st2{fill:#E4F2DE;}
	.st3{fill:#6B839B;}
</style>
<g transform="translate(1 3)">
	<path class="st0" d="M173.9,274.3v51.2h102.4l5.1,50.3l11.9,120.3h64l-29-213.3l-0.9-8.5L173.9,274.3L173.9,274.3z M412,282.9
		l0.9-8.5c32.4,0,54.6,5.1,68.3,14.5c11.9,8.5,17.1,20.5,17.1,36.7v136.5L447,479.1v17.1h-64L412,282.9z"/>
	<path class="st1" d="M438.5,163.4v-17.1c0-4.3-3.4-8.5-8.5-8.5v-8.5c0-23.9-18.8-42.7-42.7-42.7h-34.1c-23.9,0-42.7,18.8-42.7,42.7
		v8.5c-5.1,0-8.5,4.3-8.5,8.5v17.1c0,4.3,3.4,8.5,8.5,8.5c0,17.1,8.5,34.1,8.5,34.1c8.5,17.1,17.9,34.1,51.2,34.1
		s42.7-17.1,51.2-34.1c0,0,8.5-17.1,8.5-34.1C435.1,171.9,438.5,167.7,438.5,163.4L438.5,163.4L438.5,163.4z M481.1,52.5v237.2
		c-13.7-10.2-35.8-15.4-68.3-14.5l-0.9,8.5h-33.3c0-4.3-3.4-8.5-8.5-8.5s-8.5,4.3-8.5,8.5h-33.3l-0.9-8.5H173.9h-68.3
		c0,17.1,17.1,51.2,51.2,51.2h17.1h102.4l5.1,50.3l-5.1,0.9H54.5c-18.8,0-34.1-14.5-34.1-34.1V53.3h460.8L481.1,52.5L481.1,52.5z
		 M498.2,19.2v33.3h-17.1H20.3H3.3V18.3h247.5L498.2,19.2L498.2,19.2L498.2,19.2z"/>
	<path class="st0" d="M173.9,274.3v51.2h-17.1c-34.1,0-51.2-34.1-51.2-51.2H173.9z M438.5,146.3v17.1c0,4.3-3.4,8.5-8.5,8.5
		c0,17.1-8.5,34.1-8.5,34.1c-8.5,17.1-17.9,34.1-51.2,34.1s-42.7-17.1-51.2-34.1c0,0-8.5-17.1-8.5-34.1c-5.1,0-8.5-4.3-8.5-8.5
		v-17.1c0-4.3,3.4-8.5,8.5-8.5v-8.5c0-23.9,18.8-42.7,42.7-42.7h34.1c23.9,0,42.7,18.8,42.7,42.7v8.5
		C435.1,137.8,438.5,142.1,438.5,146.3z"/>
	<path class="st1" d="M370.2,291.4c5.1,0,8.5-4.3,8.5-8.5H412l-29,213.3h-25.6l-29-213.3h33.3C361.7,287.1,365.1,291.4,370.2,291.4"
		/>
	<path class="st2" d="M370.2,274.3c5.1,0,8.5,4.3,8.5,8.5c0,4.3-3.4,8.5-8.5,8.5s-8.5-4.3-8.5-8.5
		C361.7,278.6,365.1,274.3,370.2,274.3"/>
</g>
<path class="st3" d="M294.4,503.5c-2.6,0-4.3-1.7-4.3-4.3l-17.1-166.4H157.9c-36.7,0-55.5-35.8-55.5-55.5c0-2.6,1.7-4.3,4.3-4.3
	h221.9c2.6,0,4.3,1.7,4.3,3.4l25.6,187.7c0,2.6-1.7,4.3-3.4,5.1c-2.6,0-4.3-1.7-5.1-3.4l-24.7-184.3H179.2v42.7h98.1
	c2.6,0,4.3,1.7,4.3,4.3l17.1,170.7C298.7,500.9,297,503.5,294.4,503.5L294.4,503.5z M110.9,281.6c2.6,15.4,17.1,42.7,46.9,42.7h12.8
	v-42.7H110.9z M448,503.5c-2.6,0-4.3-1.7-4.3-4.3V379.7c0-2.6,1.7-4.3,4.3-4.3s4.3,1.7,4.3,4.3v119.5
	C452.3,501.8,450.6,503.5,448,503.5z M388.3,469.3L388.3,469.3c-2.6,0-4.3-2.6-4.3-5.1l25.6-187.7c0-2.6,2.6-3.4,5.1-3.4
	c37.5,0,62.3,6.8,75.9,20.5c8.5,8.5,12.8,20.5,12.8,35v136.5c0,2.6-1.7,4.3-4.3,4.3s-4.3-1.7-4.3-4.3V328.5c0-11.9-3.4-21.3-10.2-29
	c-11.9-11.9-33.3-17.9-66.6-17.9l-24.7,184.3C392.5,467.6,390,469.3,388.3,469.3z M251.7,384H55.5c-21.3,0-38.4-17.1-38.4-38.4v-256
	c0-2.6,1.7-4.3,4.3-4.3s4.3,1.7,4.3,4.3v256c0,17.1,12.8,29.9,29.9,29.9h196.3c2.6,0,4.3,1.7,4.3,4.3C256,382.3,254.3,384,251.7,384
	z M371.2,366.9c-2.6,0-4.3-1.7-4.3-4.3v-64.9c-5.1-1.7-8.5-6.8-8.5-11.9c0-6.8,6-12.8,12.8-12.8s12.8,6,12.8,12.8
	c0,6-3.4,10.2-8.5,11.9v64.9C375.5,365.2,373.8,366.9,371.2,366.9z M371.2,281.6c-2.6,0-4.3,1.7-4.3,4.3s1.7,4.3,4.3,4.3
	s4.3-1.7,4.3-4.3S373.8,281.6,371.2,281.6z M482.1,264.5c-2.6,0-4.3-1.7-4.3-4.3V55.5c0-2.6,1.7-4.3,4.3-4.3h12.8V25.6H8.5v25.6H448
	c2.6,0,4.3,1.7,4.3,4.3s-1.7,4.3-4.3,4.3H4.3C1.7,59.7,0,58,0,55.5V21.3c0-2.6,1.7-4.3,4.3-4.3h243.2V4.3c0-2.6,1.7-4.3,4.3-4.3
	c2.6,0,4.3,1.7,4.3,4.3v12.8h243.2c2.6,0,4.3,1.7,4.3,4.3v34.1c0,2.6-1.7,4.3-4.3,4.3h-12.8v200.5
	C486.4,262.8,484.7,264.5,482.1,264.5z M371.2,247.5c-36.7,0-46.9-21.3-54.6-36.7c0-0.9-7.7-16.2-8.5-32.4
	c-5.1-1.7-8.5-6.8-8.5-11.9v-17.1c0-6,3.4-10.2,8.5-11.9v-5.1c0-25.6,21.3-46.9,46.9-46.9h34.1c25.6,0,46.9,21.3,46.9,46.9v5.1
	c5.1,1.7,8.5,6.8,8.5,11.9v17.1c0,6-3.4,10.2-8.5,11.9c-0.9,16.2-8.5,31.6-8.5,32.4C418.1,226.1,407.9,247.5,371.2,247.5z
	 M354.1,93.9c-21.3,0-38.4,17.1-38.4,38.4v8.5c0,2.6-1.7,4.3-4.3,4.3s-4.3,1.7-4.3,4.3v17.1c0,2.6,1.7,4.3,4.3,4.3s4.3,1.7,4.3,4.3
	c0,16.2,7.7,32.4,7.7,32.4c9.4,18.8,17.9,31.6,47.8,31.6s38.4-12.8,47.8-31.6c0,0,7.7-16.2,7.7-32.4c0-2.6,1.7-4.3,4.3-4.3
	s4.3-1.7,4.3-4.3v-17.1c0-2.6-1.7-4.3-4.3-4.3s-4.3-1.7-4.3-4.3v-8.5c0-21.3-17.1-38.4-38.4-38.4L354.1,93.9L354.1,93.9z
	 M260.3,230.4h-85.3c-2.6,0-4.3-1.7-4.3-4.3s1.7-4.3,4.3-4.3h85.3c2.6,0,4.3,1.7,4.3,4.3S262.8,230.4,260.3,230.4z M132.3,230.4
	h-25.6c-2.6,0-4.3-1.7-4.3-4.3s1.7-4.3,4.3-4.3h25.6c2.6,0,4.3,1.7,4.3,4.3S134.8,230.4,132.3,230.4z M260.3,179.2H106.7
	c-2.6,0-4.3-1.7-4.3-4.3s1.7-4.3,4.3-4.3h153.6c2.6,0,4.3,1.7,4.3,4.3C264.5,177.5,262.8,179.2,260.3,179.2z M396.8,162.1h-8.5
	c-2.6,0-4.3-1.7-4.3-4.3s1.7-4.3,4.3-4.3h8.5c2.6,0,4.3,1.7,4.3,4.3C401.1,160.4,399.4,162.1,396.8,162.1z M354.1,162.1h-8.5
	c-2.6,0-4.3-1.7-4.3-4.3s1.7-4.3,4.3-4.3h8.5c2.6,0,4.3,1.7,4.3,4.3C358.4,160.4,356.7,162.1,354.1,162.1z M243.2,128h-34.1
	c-2.6,0-4.3-1.7-4.3-4.3s1.7-4.3,4.3-4.3h34.1c2.6,0,4.3,1.7,4.3,4.3S245.8,128,243.2,128z M174.9,128h-68.3c-2.6,0-4.3-1.7-4.3-4.3
	s1.7-4.3,4.3-4.3h68.3c2.6,0,4.3,1.7,4.3,4.3S177.5,128,174.9,128z"/>
<image style="overflow:visible;" width="1920" height="1080" xlink:href="B860AE3D.jpg"  transform="matrix(1 0 0 1 -1972 -287)">
</image>
</svg>
