<?xml version="1.0" encoding="utf-8"?>
<!-- Generator: Adobe Illustrator 21.1.0, SVG Export Plug-In . SVG Version: 6.00 Build 0)  -->
<svg version="1.1" id="Layer_1" xmlns="http://www.w3.org/2000/svg" xmlns:xlink="http://www.w3.org/1999/xlink" x="0px" y="0px"
	 viewBox="0 0 503.5 503.5" style="enable-background:new 0 0 503.5 503.5;" xml:space="preserve">
<style type="text/css">
	.st0{fill:#E0E5E9;}
	.st1{fill:#E0E7ED;}
	.st2{fill:#F7F7F9;}
	.st3{fill:#FFFFFF;}
	.st4{fill:#ECF4F7;}
	.st5{fill:#6A829A;}
	.st6{fill:#E0E5E9;stroke:#6A829A;stroke-width:6;stroke-miterlimit:10;}
	.st7{fill:#FFFFFF;stroke:#6A829A;stroke-width:8;stroke-linecap:round;stroke-linejoin:round;stroke-miterlimit:10;}
</style>
<g transform="translate(1 1)">
	<path class="st0" d="M361.7,199.5c0-89.6-72.5-162.1-162.1-162.1S37.4,109.9,37.4,199.5s72.5,162.1,162.1,162.1
		S361.7,289.1,361.7,199.5 M395.8,199.5c0,8.5-0.9,17.1-1.7,25.6c-4.3,32.4-16.2,62.3-34.1,87.9c-12.8,18.8-29,35-47.8,47.8
		c-31.6,22.2-70.8,35.8-112.6,35.8C91.2,396.7,3.3,308.8,3.3,200.4S91.2,4.1,199.5,4.1c82.8,0,153.6,51.2,182.6,123.7
		C390.7,149.2,395.8,173.9,395.8,199.5"/>
	<path class="st1" d="M428.2,380.4l-47.8,47.8l-0.9,0.9L313,362.5l-0.9-1.7c18.8-12.8,35-29,47.8-47.8l1.7,0.9L428.2,380.4z"/>
	<path class="st2" d="M488,440.2c13.7,13.7,13.7,35,0,48.6s-35,13.7-48.6,0l-59.7-59.7l0.9-0.9l47.8-47.8l0,0L488,440.2z"/>
	<path class="st3" d="M481.1,182.5v93.9h-51.2v-51.2h-33.3h-2.6c0.9-8.5,1.7-17.1,1.7-25.6c0-25.6-5.1-50.3-13.7-72.5l1.7-0.9
		l20.5-20.5L481.1,182.5z"/>
	<path class="st4" d="M199.5,37.4c89.6,0,162.1,72.5,162.1,162.1s-72.5,162.1-162.1,162.1S37.4,289.1,37.4,199.5
		S109.9,37.4,199.5,37.4L199.5,37.4z M276.3,182.5l-76.8-76.8l-76.8,76.8v93.9h59.7v-51.2h34.1v51.2h59.7V182.5z"/>
	<polygon class="st3" points="276.3,182.5 276.3,276.3 216.6,276.3 216.6,225.1 182.5,225.1 182.5,276.3 122.7,276.3 122.7,182.5 
		199.5,105.7 	"/>
</g>
<path class="st5" d="M465.1,503.5c-10.2,0-19.6-4.3-27.3-11.1L337.1,390.8c-1.7-1.7-1.7-4.3,0-6c1.7-1.7,4.3-1.7,6,0l100.7,101.5
	c6,6,12.8,8.5,21.3,8.5l0,0c7.7,0,15.4-3.4,21.3-8.5c6-6,8.5-12.8,8.5-21.3c0-8.5-3.4-15.4-8.5-21.3l-57.2-57.2l-21.3,21.3
	c-1.7,1.7-4.3,1.7-6,0c-1.7-1.7-1.7-4.3,0-6l23.9-23.9c0.9-0.9,1.7-0.9,3.4-0.9l0,0c0.9,0,2.6,0.9,3.4,0.9l59.7,59.7
	c7.7,6.8,11.1,17.1,11.1,27.3c0,10.2-4.3,19.6-11.1,27.3C484.7,499.2,475.3,503.5,465.1,503.5L465.1,503.5z M200.5,401.1
	C89.6,401.1,0,311.5,0,200.5S89.6,0,200.5,0s200.5,89.6,200.5,200.5S311.5,401.1,200.5,401.1z M200.5,8.5c-105.8,0-192,86.2-192,192
	s86.2,192,192,192s192-86.2,192-192S306.3,8.5,200.5,8.5z M200.5,366.9c-92.2,0-166.4-74.2-166.4-166.4S108.4,34.1,200.5,34.1
	s166.4,74.2,166.4,166.4S292.7,366.9,200.5,366.9z M200.5,42.7c-87,0-157.9,70.8-157.9,157.9s70.8,157.9,157.9,157.9
	s157.9-70.8,157.9-157.9S287.6,42.7,200.5,42.7z M406.2,361.8c-0.9,0-2.6,0-3.4-0.9L384.9,343c-0.9-0.9-0.9-1.7-0.9-3.4
	s0-2.6,0.9-3.4c1.7-1.7,4.3-1.7,6,0l17.9,17.9c0.9,0.9,0.9,1.7,0.9,3.4s0,2.6-0.9,3.4C407.9,361.8,407,361.8,406.2,361.8z
	 M482.1,281.6h-51.2c-2.6,0-4.3-1.7-4.3-4.3v-51.2c0-2.6,1.7-4.3,4.3-4.3s4.3,1.7,4.3,4.3v46.9h42.7v-87.9l-75.9-75.9
	c-0.9-0.9-0.9-1.7-0.9-3.4c0-1.7,0-2.6,0.9-3.4c1.7-1.7,4.3-1.7,6,0l76.8,76.8l0,0l17.1,17.1c0.9,0.9,0.9,1.7,0.9,3.4s0,2.6-0.9,3.4
	c-1.7,1.7-4.3,1.7-6,0l-9.4-9.4v83.6C486.4,279.9,484.7,281.6,482.1,281.6z M277.3,281.6h-59.7c-2.6,0-4.3-1.7-4.3-4.3v-46.9h-25.6
	v46.9c0,2.6-1.7,4.3-4.3,4.3h-59.7c-2.6,0-4.3-1.7-4.3-4.3v-83.6l-9.4,9.4c-1.7,1.7-4.3,1.7-6,0s-1.7-4.3,0-6l93.9-93.9
	c1.7-1.7,4.3-1.7,6,0l76.8,76.8l0,0l17.1,17.1c1.7,1.7,1.7,4.3,0,6s-4.3,1.7-6,0l-9.4-9.4v83.6C281.6,279.9,279.9,281.6,277.3,281.6
	z M221.9,273.1h51.2v-87.9l-72.5-72.5L128,185.2v87.9h51.2v-46.9c0-2.6,1.7-4.3,4.3-4.3h34.1c2.6,0,4.3,1.7,4.3,4.3V273.1z"/>
<image style="overflow:visible;" width="1920" height="1080" xlink:href="C9F87E24.jpg"  transform="matrix(1 0 0 1 -2010 -303)">
</image>
<image style="overflow:visible;" width="400" height="400" xlink:href="C9F87E2B.jpg"  transform="matrix(1 0 0 1 -1080 -856.9702)">
</image>
<path class="st6" d="M28-401h-255c-27.6,0-50-22.4-50-50v-255c0-27.6,22.4-50,50-50H28c27.6,0,50,22.4,50,50v255
	C78-423.4,55.6-401,28-401z"/>
<path class="st7" d="M-195.5-556l67,64.5c0,0-30,30.5-69.5,19l-20-20c0,0-5.5-9.4-1.5-20.5C-215.5-524-195.5-556-195.5-556z"/>
<path class="st7" d="M-228.3-680.3l186,197c0,0,9.5,13,21,13s21,0,21,0s9.5,4,17.5-13s14-41.5,14-41.5s10-10.5-22.5-33
	s-205-140-205-140s-9.5-7.5-16.5-4s-13,6.5-13,6.5S-237-689.6-228.3-680.3z"/>
<path class="st7" d="M-57.5-678l49,39c0,0,19.5,11,21-3.5s6-32,6-32s-3-12-8.5-16s-8.7-6.1-8.7-6.1s-10.6-4.5-26.4,0
	s-21.2,6.1-21.2,6.1S-67.9-686.3-57.5-678z"/>
</svg>
