<?xml version="1.0" encoding="utf-8"?>
<!-- Generator: Adobe Illustrator 21.1.0, SVG Export Plug-In . SVG Version: 6.00 Build 0)  -->
<svg version="1.1" id="Layer_1" xmlns="http://www.w3.org/2000/svg" xmlns:xlink="http://www.w3.org/1999/xlink" x="0px" y="0px"
	 viewBox="0 0 361 361" style="enable-background:new 0 0 361 361;" xml:space="preserve">
<style type="text/css">
	.st0{fill:#282828;stroke:#0F0F0F;stroke-width:6;stroke-miterlimit:10;}
	.st1{fill:#FFFFFF;stroke:#6A829A;stroke-width:8;stroke-linecap:round;stroke-linejoin:round;stroke-miterlimit:10;}
	.st2{fill:#191919;stroke:#6A829A;stroke-width:6;stroke-miterlimit:10;}
</style>
<g>
	<path class="st0" d="M308,3H53C25.4,3,3,25.4,3,53v255c0,27.6,22.4,50,50,50h255c27.6,0,50-22.4,50-50V53C358,25.4,335.6,3,308,3z
		 M233.7,68.5c0,0,5.4-1.6,21.2-6.1c15.8-4.5,26.4,0,26.4,0s3.2,2.1,8.7,6.1s8.5,16,8.5,16s-4.5,17.5-6,32s-21,3.5-21,3.5l-49-39
		C212.1,72.7,233.7,68.5,233.7,68.5z M82,286.5l-20-20c0,0-5.5-9.4-1.5-20.5c4-11,24-43,24-43l67,64.5
		C151.5,267.5,121.5,298,82,286.5z M311.2,234.2c0,0-6,24.5-14,41.5s-17.5,13-17.5,13s-9.5,0-21,0s-21-13-21-13l-186-197
		c-8.7-9.3,2.5-15,2.5-15s6-3,13-6.5s16.5,4,16.5,4s172.5,117.5,205,140S311.2,234.2,311.2,234.2z"/>
	<path class="st1" d="M755.7,177.5c-32.5-22.5-205-140-205-140s-9.5-7.5-16.5-4s-13,6.5-13,6.5s-11.2,5.7-2.5,15l186,197
		c0,0,9.5,13,21,13s21,0,21,0s9.5,4,17.5-13s14-41.5,14-41.5S788.2,200,755.7,177.5z"/>
</g>
<path class="st2" d="M-202,836h-255c-27.6,0-50-22.4-50-50V531c0-27.6,22.4-50,50-50h255c27.6,0,50,22.4,50,50v255
	C-152,813.6-174.4,836-202,836z"/>
<path class="st1" d="M-425.5,681l67,64.5c0,0-30,30.5-69.5,19l-20-20c0,0-5.5-9.4-1.5-20.5C-445.5,713-425.5,681-425.5,681z"/>
<path class="st1" d="M-458.3,556.7l186,197c0,0,9.5,13,21,13c11.5,0,21,0,21,0s9.5,4,17.5-13s14-41.5,14-41.5s10-10.5-22.5-33
	s-205-140-205-140s-9.5-7.5-16.5-4s-13,6.5-13,6.5S-467,547.4-458.3,556.7z"/>
<path class="st1" d="M-287.5,559l49,39c0,0,19.5,11,21-3.5s6-32,6-32s-3-12-8.5-16s-8.7-6.1-8.7-6.1s-10.6-4.5-26.4,0
	s-21.2,6.1-21.2,6.1S-297.9,550.7-287.5,559z"/>
</svg>
