<?xml version="1.0" encoding="utf-8"?>
<!-- Generator: Adobe Illustrator 21.1.0, SVG Export Plug-In . SVG Version: 6.00 Build 0)  -->
<svg version="1.1" id="Layer_1" xmlns="http://www.w3.org/2000/svg" xmlns:xlink="http://www.w3.org/1999/xlink" x="0px" y="0px"
	 viewBox="0 0 361 361" style="enable-background:new 0 0 361 361;" xml:space="preserve">
<style type="text/css">
	.st0{fill:#282828;stroke:#0F0F0F;stroke-width:6;stroke-miterlimit:10;}
	.st1{fill:#FFFFFF;stroke:#6A829A;stroke-width:8;stroke-linecap:round;stroke-linejoin:round;stroke-miterlimit:10;}
	.st2{fill:#191919;stroke:#6A829A;stroke-width:6;stroke-miterlimit:10;}
</style>
<path class="st0" d="M278.6,5.5H48.2C23.2,5.5,3,25.7,3,50.7v230.4c0,24.9,20.2,45.2,45.2,45.2h230.4c24.9,0,45.2-20.2,45.2-45.2
	V50.7C323.8,25.7,303.5,5.5,278.6,5.5z M211.4,64.7c0,0,4.9-1.4,19.2-5.5c14.3-4.1,23.9,0,23.9,0s2.9,1.9,7.9,5.5
	c5,3.6,7.7,14.5,7.7,14.5s-4.1,15.8-5.4,28.9s-19,3.2-19,3.2L201.3,76C191.9,68.5,211.4,64.7,211.4,64.7z M74.4,261.6l-18.1-18.1
	c0,0-5-8.5-1.4-18.5c3.6-9.9,21.7-38.9,21.7-38.9l60.5,58.3C137.2,244.5,110.1,272,74.4,261.6z M281.5,214.4c0,0-5.4,22.1-12.6,37.5
	c-7.2,15.4-15.8,11.7-15.8,11.7s-8.6,0-19,0s-19-11.7-19-11.7L47,73.9c-7.9-8.4,2.3-13.6,2.3-13.6s5.4-2.7,11.7-5.9
	s14.9,3.6,14.9,3.6s155.9,106.2,185.2,126.5S281.5,214.4,281.5,214.4z"/>
<path class="st1" d="M729.7,951.5c-32.5-22.5-205-140-205-140s-9.5-7.5-16.5-4s-13,6.5-13,6.5s-11.2,5.7-2.5,15l186,197
	c0,0,9.5,13,21,13s21,0,21,0s9.5,4,17.5-13s14-41.5,14-41.5S762.2,974,729.7,951.5z"/>
<path class="st2" d="M-202,836h-255c-27.6,0-50-22.4-50-50V531c0-27.6,22.4-50,50-50h255c27.6,0,50,22.4,50,50v255
	C-152,813.6-174.4,836-202,836z"/>
<path class="st1" d="M-425.5,681l67,64.5c0,0-30,30.5-69.5,19l-20-20c0,0-5.5-9.4-1.5-20.5C-445.5,713-425.5,681-425.5,681z"/>
<path class="st1" d="M-458.3,556.7l186,197c0,0,9.5,13,21,13s21,0,21,0s9.5,4,17.5-13s14-41.5,14-41.5s10-10.5-22.5-33
	s-205-140-205-140s-9.5-7.5-16.5-4s-13,6.5-13,6.5S-467,547.4-458.3,556.7z"/>
<path class="st1" d="M-287.5,559l49,39c0,0,19.5,11,21-3.5s6-32,6-32s-3-12-8.5-16s-8.7-6.1-8.7-6.1s-10.6-4.5-26.4,0
	s-21.2,6.1-21.2,6.1S-297.9,550.7-287.5,559z"/>
</svg>
