<?xml version="1.0" encoding="utf-8"?>
<!-- Generator: Adobe Illustrator 21.1.0, SVG Export Plug-In . SVG Version: 6.00 Build 0)  -->
<svg version="1.1" id="Layer_1" xmlns="http://www.w3.org/2000/svg" xmlns:xlink="http://www.w3.org/1999/xlink" x="0px" y="0px"
	 viewBox="0 0 512 512" style="enable-background:new 0 0 512 512;" xml:space="preserve">
<style type="text/css">
	.st0{fill:#282828;stroke:#0F0F0F;stroke-width:6;stroke-miterlimit:10;}
	.st1{fill:#000003;}
	.st2{fill:#FFFFFF;stroke:#6A829A;stroke-width:8;stroke-linecap:round;stroke-linejoin:round;stroke-miterlimit:10;}
</style>
<g>
	<path class="st0" d="M256,10.7c-92.2,0-125.4,90.7-202.7,90.7c0,250.4,62.9,319.3,202.7,400c139.8-80.7,202.7-149.6,202.7-400
		C381.4,101.3,348.2,10.7,256,10.7z M238.3,318.1c-0.1,0.1-0.2,0.2-0.3,0.3l-0.4,0.4c-0.1,0.1-0.1,0.1-0.2,0.2l-0.4,0.4
		c-0.1,0.1-0.1,0.1-0.2,0.2l-0.5,0.4c-0.1,0.1-0.2,0.2-0.3,0.2l-0.3,0.2c-0.1,0.1-0.2,0.2-0.4,0.3l-0.5,0.4c-0.1,0-0.1,0.1-0.2,0.1
		l-0.5,0.4c-0.1,0.1-0.2,0.1-0.2,0.2l-0.5,0.3c-0.1,0.1-0.2,0.1-0.3,0.2l-0.5,0.3c-0.1,0-0.1,0.1-0.2,0.1l-0.5,0.3
		c-0.1,0-0.2,0.1-0.2,0.1l-0.5,0.3c-0.1,0-0.2,0.1-0.2,0.1l-0.5,0.3c-0.1,0-0.2,0.1-0.2,0.1l-0.3,0.1c-0.2,0.1-0.3,0.2-0.5,0.3
		l-0.5,0.3c-0.1,0-0.1,0.1-0.2,0.1l-0.5,0.3c-0.1,0-0.2,0.1-0.3,0.1l-0.3,0.1c-0.2,0.1-0.3,0.2-0.5,0.2l-0.5,0.2
		c-0.1,0-0.1,0-0.2,0.1l-0.5,0.2c-0.1,0-0.2,0.1-0.2,0.1l-0.6,0.2c-0.1,0-0.2,0.1-0.3,0.1l-0.3,0.1c-0.2,0.1-0.3,0.1-0.5,0.2
		l-0.6,0.2c-0.1,0-0.2,0-0.2,0.1l-0.6,0.2c-0.1,0-0.1,0-0.2,0.1l-0.6,0.1c-0.1,0-0.2,0-0.3,0.1l-0.6,0.1c-0.1,0-0.1,0-0.2,0
		l-0.6,0.1c-0.1,0-0.2,0-0.3,0.1l-0.3,0c-0.2,0-0.3,0.1-0.5,0.1l-0.6,0.1c-0.1,0-0.2,0-0.3,0l-0.6,0.1c-0.1,0-0.2,0-0.2,0l-0.3,0
		c-0.2,0-0.4,0-0.5,0.1l-0.6,0c-0.1,0-0.2,0-0.3,0l-0.3,0c-0.2,0-0.4,0-0.5,0l-0.6,0c-0.1,0-0.1,0-0.2,0l-0.6,0c-0.1,0-0.1,0-0.2,0
		c-0.1,0-0.1,0-0.2,0l-0.6,0c-0.1,0-0.1,0-0.2,0l-0.6,0c-0.2,0-0.4,0-0.5,0l-0.3,0c-0.1,0-0.2,0-0.3,0l-0.6,0c-0.2,0-0.4,0-0.5-0.1
		l-0.3,0c-0.1,0-0.2,0-0.2,0l-0.6-0.1c-0.1,0-0.2,0-0.3,0l-0.6-0.1c-0.2,0-0.3-0.1-0.5-0.1l-0.3,0c-0.1,0-0.2,0-0.3-0.1l-0.6-0.1
		c-0.1,0-0.2,0-0.2-0.1l-0.6-0.1c-0.1,0-0.2,0-0.2-0.1l-0.6-0.1c-0.1,0-0.2,0-0.2-0.1l-0.6-0.2c-0.1,0-0.2,0-0.2-0.1l-0.6-0.2
		c-0.2-0.1-0.4-0.1-0.6-0.2l-0.3-0.1c-0.1,0-0.2-0.1-0.3-0.1l-0.6-0.2c-0.1,0-0.2-0.1-0.2-0.1l-0.5-0.2c0,0-0.1,0-0.1-0.1l-0.5-0.2
		c-0.2-0.1-0.4-0.2-0.6-0.3l-0.3-0.1c-0.1,0-0.2-0.1-0.2-0.1l-0.5-0.3c-0.1,0-0.2-0.1-0.3-0.1l-0.5-0.3c-0.1,0-0.1-0.1-0.2-0.1
		l-0.5-0.3c-0.1-0.1-0.2-0.1-0.3-0.2l-0.5-0.3c-0.1,0-0.1-0.1-0.2-0.1l-0.5-0.3c-0.1,0-0.1-0.1-0.2-0.1l-0.5-0.3
		c-0.1-0.1-0.2-0.1-0.2-0.2l-0.5-0.3c-0.1-0.1-0.1-0.1-0.2-0.2l-0.5-0.3c-0.1,0-0.1-0.1-0.2-0.1l-0.5-0.4c-0.1-0.1-0.2-0.1-0.3-0.2
		l-0.5-0.4c-0.1,0-0.1-0.1-0.2-0.1l-0.5-0.4c-0.1-0.1-0.1-0.1-0.2-0.2l-0.5-0.4c-0.1-0.1-0.2-0.1-0.2-0.2l-0.4-0.4
		c-0.1-0.1-0.1-0.1-0.2-0.2l-0.4-0.4l-51-51c-13.5-13.5-13.5-35.5,0-49c6.5-6.5,15.2-10.1,24.5-10.1c9.3,0,18,3.6,24.5,10.1
		l26.4,26.4l111.3-111.3c6.5-6.5,15.2-10.1,24.5-10.1c9.3,0,18,3.6,24.5,10.1c13.5,13.5,13.5,35.5,0,49L238.3,318.1z"/>
	<path class="st1" d="M373.9,133.4c-6.5-6.5-15.2-10.1-24.5-10.1c-9.3,0-18,3.6-24.5,10.1L213.6,244.7l-26.4-26.4
		c-6.5-6.5-15.2-10.1-24.5-10.1c-9.3,0-18,3.6-24.5,10.1c-13.5,13.5-13.5,35.5,0,49l51,51l0.4,0.4c0.1,0.1,0.1,0.1,0.2,0.2l0.4,0.4
		c0.1,0.1,0.2,0.1,0.2,0.2l0.5,0.4c0.1,0.1,0.1,0.1,0.2,0.2l0.5,0.4c0.1,0,0.1,0.1,0.2,0.1l0.5,0.4c0.1,0.1,0.2,0.1,0.3,0.2l0.5,0.4
		c0.1,0.1,0.1,0.1,0.2,0.1l0.5,0.3c0.1,0.1,0.1,0.1,0.2,0.2l0.5,0.3c0.1,0.1,0.2,0.1,0.2,0.2l0.5,0.3c0.1,0,0.1,0.1,0.2,0.1l0.5,0.3
		c0.1,0,0.1,0.1,0.2,0.1l0.5,0.3c0.1,0.1,0.2,0.1,0.3,0.2l0.5,0.3c0.1,0,0.1,0.1,0.2,0.1l0.5,0.3c0.1,0,0.2,0.1,0.3,0.1l0.5,0.3
		c0.1,0,0.2,0.1,0.2,0.1l0.3,0.1c0.2,0.1,0.4,0.2,0.6,0.3l0.5,0.2c0,0,0.1,0,0.1,0.1l0.5,0.2c0.1,0,0.2,0.1,0.2,0.1l0.6,0.2
		c0.1,0,0.2,0.1,0.3,0.1l0.3,0.1c0.2,0.1,0.4,0.1,0.6,0.2l0.6,0.2c0.1,0,0.2,0,0.2,0.1l0.6,0.2c0.1,0,0.2,0,0.2,0.1l0.6,0.1
		c0.1,0,0.2,0,0.2,0.1l0.6,0.1c0.1,0,0.2,0,0.2,0.1l0.6,0.1c0.1,0,0.2,0,0.3,0.1l0.3,0c0.2,0,0.3,0.1,0.5,0.1l0.6,0.1
		c0.1,0,0.2,0,0.3,0l0.6,0.1c0.1,0,0.2,0,0.2,0l0.3,0c0.2,0,0.4,0,0.5,0.1l0.6,0c0.1,0,0.2,0,0.3,0l0.3,0c0.2,0,0.4,0,0.5,0l0.6,0
		c0.1,0,0.1,0,0.2,0l0.6,0c0.1,0,0.1,0,0.2,0c0.1,0,0.1,0,0.2,0l0.6,0c0.1,0,0.1,0,0.2,0l0.6,0c0.2,0,0.4,0,0.5,0l0.3,0
		c0.1,0,0.2,0,0.3,0l0.6,0c0.2,0,0.4,0,0.5-0.1l0.3,0c0.1,0,0.2,0,0.2,0l0.6-0.1c0.1,0,0.2,0,0.3,0l0.6-0.1c0.2,0,0.3-0.1,0.5-0.1
		l0.3,0c0.1,0,0.2,0,0.3-0.1l0.6-0.1c0.1,0,0.1,0,0.2,0l0.6-0.1c0.1,0,0.2,0,0.3-0.1l0.6-0.1c0.1,0,0.1,0,0.2-0.1l0.6-0.2
		c0.1,0,0.2,0,0.2-0.1l0.6-0.2c0.2-0.1,0.4-0.1,0.5-0.2l0.3-0.1c0.1,0,0.2-0.1,0.3-0.1l0.6-0.2c0.1,0,0.2-0.1,0.2-0.1l0.5-0.2
		c0.1,0,0.1,0,0.2-0.1l0.5-0.2c0.2-0.1,0.3-0.1,0.5-0.2l0.3-0.1c0.1,0,0.2-0.1,0.3-0.1l0.5-0.3c0.1,0,0.1-0.1,0.2-0.1l0.5-0.3
		c0.2-0.1,0.3-0.2,0.5-0.3l0.3-0.1c0.1,0,0.2-0.1,0.2-0.1l0.5-0.3c0.1,0,0.2-0.1,0.2-0.1l0.5-0.3c0.1,0,0.2-0.1,0.2-0.1l0.5-0.3
		c0.1,0,0.1-0.1,0.2-0.1l0.5-0.3c0.1-0.1,0.2-0.1,0.3-0.2l0.5-0.3c0.1-0.1,0.2-0.1,0.2-0.2l0.5-0.4c0.1,0,0.1-0.1,0.2-0.1l0.5-0.4
		c0.1-0.1,0.2-0.2,0.4-0.3l0.3-0.2c0.1-0.1,0.2-0.2,0.3-0.2l0.5-0.4c0.1-0.1,0.1-0.1,0.2-0.2l0.4-0.4c0.1-0.1,0.1-0.1,0.2-0.2
		l0.4-0.4c0.1-0.1,0.2-0.2,0.3-0.3l135.6-135.6C387.4,169,387.4,147,373.9,133.4z M366.3,174.9L230.5,310.7v0l-0.4,0.4l-0.5,0.4
		l-0.5,0.4l-0.5,0.4v0l-0.5,0.4l-0.5,0.4l-0.5,0.3l-0.5,0.3l-0.5,0.3l-0.5,0.3l-0.5,0.3l-0.5,0.3v0l-0.5,0.3l-0.5,0.3l-0.5,0.2v0
		l-0.5,0.2l-0.5,0.2l-0.6,0.2l-0.6,0.2v0l-0.6,0.2l-0.6,0.2l-0.6,0.1l-0.6,0.1l-0.6,0.1l-0.6,0.1v0l-0.6,0.1l-0.6,0.1l-0.6,0.1v0
		l-0.6,0l-0.6,0v0l-0.6,0l-0.6,0l-0.6,0l-0.6,0v0l-0.6,0l-0.6,0v0l-0.6-0.1l-0.6-0.1l-0.6-0.1v0l-0.6-0.1l-0.6-0.1l-0.6-0.1
		l-0.6-0.1l-0.6-0.2l-0.6-0.2v0l-0.5-0.2l-0.6-0.2l-0.5-0.2l-0.5-0.2v0l-0.5-0.2l-0.5-0.3l-0.5-0.3l-0.5-0.3l-0.5-0.3l-0.5-0.3
		l-0.5-0.3l-0.5-0.3l-0.5-0.3l-0.5-0.4l-0.5-0.4l-0.5-0.4l-0.5-0.4l-0.4-0.4l-0.4-0.4l-50.9-50.9c-9.3-9.3-9.3-24.6,0-34
		c9.3-9.3,24.6-9.3,34,0l33.9,34L332.4,141c9.3-9.3,24.6-9.3,33.9,0C375.7,150.3,375.7,165.6,366.3,174.9z"/>
	<path class="st1" d="M332.4,141L213.6,259.8l-33.9-34c-9.3-9.3-24.6-9.3-34,0c-9.3,9.3-9.3,24.6,0,34l50.9,50.9l0.4,0.4l0.4,0.4
		l0.5,0.4l0.5,0.4l0.5,0.4l0.5,0.4l0.5,0.3l0.5,0.3l0.5,0.3l0.5,0.3l0.5,0.3l0.5,0.3l0.5,0.3l0.5,0.3l0.5,0.2v0l0.5,0.2l0.5,0.2
		l0.6,0.2l0.5,0.2v0l0.6,0.2l0.6,0.2l0.6,0.1l0.6,0.1l0.6,0.1l0.6,0.1v0l0.6,0.1l0.6,0.1l0.6,0.1v0l0.6,0l0.6,0v0l0.6,0l0.6,0l0.6,0
		l0.6,0v0l0.6,0l0.6,0v0l0.6-0.1l0.6-0.1l0.6-0.1v0l0.6-0.1l0.6-0.1l0.6-0.1l0.6-0.1l0.6-0.2l0.6-0.2v0l0.6-0.2l0.6-0.2l0.5-0.2
		l0.5-0.2v0l0.5-0.2l0.5-0.3l0.5-0.3v0l0.5-0.3l0.5-0.3l0.5-0.3l0.5-0.3l0.5-0.3l0.5-0.3l0.5-0.4l0.5-0.4v0l0.5-0.4l0.5-0.4l0.5-0.4
		l0.4-0.4v0l135.8-135.8c9.3-9.3,9.3-24.6,0-33.9C357,131.7,341.7,131.7,332.4,141z M358.8,167.4L223,303.2c0,0,0,0-0.1,0.1l-1,0.9
		c0,0,0,0,0,0l-1.3,0.9l-1.8,0.9c0,0,0,0,0,0l-1.2,0.4c0,0,0,0,0,0l-1.8,0.4c0,0,0,0-0.1,0l-0.9,0.1c0,0,0,0-0.1,0l-0.5,0
		c0,0,0,0-0.1,0l-0.5,0l-0.3,0l-0.2,0c0,0,0,0-0.1,0l-0.5,0c0,0,0,0-0.1,0l-0.9-0.1c0,0-0.1,0-0.1,0l-1.8-0.4c0,0,0,0,0,0l-1-0.4
		l-2-1l-1.8-1.4l-51.4-51.4c-5.2-5.2-5.2-13.7,0-18.9c2.5-2.5,5.9-3.9,9.4-3.9c3.6,0,6.9,1.4,9.4,3.9l33.9,33.9c2,2,4.7,3.1,7.5,3.1
		s5.5-1.1,7.5-3.1l118.8-118.8c2.5-2.5,5.8-3.9,9.4-3.9c3.6,0,6.9,1.4,9.4,3.9C364,153.7,364,162.2,358.8,167.4z"/>
</g>
<path class="st1" d="M458.7,90.7c-33.3,0-58.6-19.5-85.3-40.1C342.6,26.9,307.8,0,256,0s-86.6,26.9-117.4,50.6
	c-26.8,20.6-52,40.1-85.3,40.1c-5.9,0-10.7,4.8-10.7,10.7c0,124.5,15.5,207.5,50.3,268.9c34.5,61,86,98.9,157.7,140.3
	c1.6,1,3.5,1.4,5.3,1.4s3.7-0.5,5.3-1.4c71.8-41.4,123.2-79.4,157.7-140.3c34.8-61.4,50.3-144.3,50.3-268.9
	C469.3,95.4,464.6,90.7,458.7,90.7z M256,489C127.3,414,65.7,349.3,64,111.5c35.1-3.5,61.8-24.1,87.6-44
	c29.4-22.7,59.8-46.1,104.3-46.1c44.5,0,74.9,23.4,104.3,46.1c25.8,19.9,52.5,40.5,87.6,44C446.3,349.3,384.7,414,256,489z"/>
<path class="st1" d="M130,121.8c-2.7-5.2-9.2-7.2-14.4-4.5c-1.3,0.7-2.7,1.4-4,2c-5.3,2.6-7.5,9-4.9,14.3c1.9,3.8,5.6,6,9.6,6
	c1.6,0,3.2-0.4,4.7-1.1c1.5-0.8,3-1.5,4.5-2.3C130.7,133.5,132.7,127,130,121.8z"/>
<path class="st1" d="M411.6,205.5c0.3,0,0.7,0,1,0c5.5,0,10.1-4.2,10.6-9.7c0.1-1.4,0.2-2.7,0.4-4.1c0.5-5.9-3.9-11-9.7-11.5
	c-5.9-0.5-11,3.9-11.5,9.7c-0.1,1.3-0.2,2.6-0.3,4C401.4,199.7,405.7,204.9,411.6,205.5z"/>
<path class="st1" d="M151.1,118.1c2.2,0,4.3-0.7,6.2-2c6.2-4.5,12.2-9,18-13.5C202.5,81.9,226,64,256,64c5.9,0,10.7-4.8,10.7-10.7
	s-4.8-10.7-10.7-10.7c-37.2,0-64.6,20.9-93.6,43c-5.7,4.4-11.6,8.8-17.6,13.2c-4.8,3.4-5.9,10.1-2.4,14.9
	C144.5,116.6,147.7,118.1,151.1,118.1z"/>
<path class="st1" d="M256,439.3c-27.3-16.8-60.3-39.4-85-68.6c-3.8-4.5-10.5-5-15-1.2c-4.5,3.8-5,10.5-1.2,15
	c28.4,33.5,66.1,58.4,95.7,76.4c0.1,0,0.1,0.1,0.2,0.1c0.3,0.1,0.5,0.3,0.8,0.4c0.2,0.1,0.3,0.2,0.5,0.2c0.2,0.1,0.5,0.2,0.7,0.3
	c0.2,0.1,0.4,0.1,0.6,0.2c0.2,0.1,0.4,0.1,0.7,0.1c0.2,0,0.5,0.1,0.7,0.1c0.3,0,0.6,0.1,1,0.1c0.1,0,0.3,0,0.4,0c0,0,0,0,0,0
	c0,0,0,0,0,0c0.1,0,0.3,0,0.4,0c0.3,0,0.7,0,1-0.1c0.2,0,0.5-0.1,0.7-0.1c0.2,0,0.5-0.1,0.7-0.1c0.2-0.1,0.4-0.1,0.6-0.2
	c0.2-0.1,0.5-0.2,0.7-0.3c0.2-0.1,0.3-0.2,0.5-0.2c0.3-0.1,0.5-0.3,0.8-0.4c0.1,0,0.1-0.1,0.2-0.1c29.6-18,67.3-42.9,95.7-76.4
	c32.4-38.2,52.8-89.9,62.4-158c0.8-5.8-3.2-11.2-9.1-12.1c-5.8-0.8-11.2,3.2-12.1,9.1c-9,64-27.9,112.2-57.6,147.2
	C316.3,399.9,283.3,422.5,256,439.3z"/>
<g>
	<path class="st0" d="M257-449.1H2c-27.6,0-50,22.4-50,50v255c0,27.6,22.4,50,50,50h255c27.6,0,50-22.4,50-50v-255
		C307-426.7,284.6-449.1,257-449.1z M182.7-383.6c0,0,5.4-1.6,21.2-6.1s26.4,0,26.4,0s3.2,2.1,8.7,6.1s8.5,16,8.5,16s-4.5,17.5-6,32
		s-21,3.5-21,3.5l-49-39C161.1-379.4,182.7-383.6,182.7-383.6z M31-165.6l-20-20c0,0-5.5-9.4-1.5-20.5c4-11,24-43,24-43l67,64.5
		C100.5-184.6,70.5-154.1,31-165.6z M260.2-217.9c0,0-6,24.5-14,41.5s-17.5,13-17.5,13s-9.5,0-21,0s-21-13-21-13l-186-197
		c-8.7-9.3,2.5-15,2.5-15s6-3,13-6.5s16.5,4,16.5,4s172.5,117.5,205,140S260.2-217.9,260.2-217.9z"/>
	<path class="st2" d="M704.7-274.6c-32.5-22.5-205-140-205-140s-9.5-7.5-16.5-4s-13,6.5-13,6.5s-11.2,5.7-2.5,15l186,197
		c0,0,9.5,13,21,13s21,0,21,0s9.5,4,17.5-13s14-41.5,14-41.5S737.2-252.1,704.7-274.6z"/>
</g>
</svg>
