<?xml version="1.0" encoding="utf-8"?>
<!-- Generator: Adobe Illustrator 21.1.0, SVG Export Plug-In . SVG Version: 6.00 Build 0)  -->
<svg version="1.1" id="Capa_1" xmlns="http://www.w3.org/2000/svg" xmlns:xlink="http://www.w3.org/1999/xlink" x="0px" y="0px"
	 viewBox="0 0 60 60" style="enable-background:new 0 0 60 60;" xml:space="preserve">
<style type="text/css">
	.st0{fill:#282828;}
	.st1{fill:none;}
	.st2{fill:#282828;stroke:#0F0F0F;stroke-width:6;stroke-miterlimit:10;}
	.st3{fill:#000003;}
</style>
<rect x="1.2" y="1.3" class="st0" width="56.8" height="4.7"/>
<g>
	<path d="M31,22.1c0-0.2,0-0.4,0-0.5c0-0.2,0-0.5-0.1-0.7c0-0.1,0-0.3-0.1-0.4c0-0.3-0.1-0.5-0.2-0.8c0-0.1-0.1-0.2-0.1-0.3
		c-0.1-0.3-0.2-0.5-0.3-0.8c0-0.1-0.1-0.2-0.1-0.3c-0.1-0.2-0.2-0.5-0.3-0.7c-0.1-0.1-0.1-0.3-0.2-0.4c-0.1-0.2-0.2-0.4-0.3-0.6
		c-0.1-0.2-0.2-0.3-0.3-0.5c-0.1-0.1-0.2-0.3-0.3-0.4c-0.1-0.2-0.3-0.4-0.4-0.6c0,0,0,0,0,0c-0.2-0.3-0.5-0.6-0.7-0.8
		c-0.2-0.2-0.5-0.5-0.8-0.7c0,0,0,0,0,0c-0.2-0.1-0.4-0.3-0.5-0.4c-0.1-0.1-0.3-0.2-0.4-0.3c-0.1-0.1-0.3-0.2-0.4-0.2
		c-0.2-0.1-0.4-0.3-0.6-0.4c-0.1-0.1-0.2-0.1-0.3-0.1c-0.3-0.1-0.5-0.2-0.8-0.4c-0.1,0-0.2-0.1-0.2-0.1c-0.3-0.1-0.6-0.2-0.9-0.3
		c-0.1,0-0.2,0-0.2-0.1c-0.3-0.1-0.6-0.1-0.9-0.2c-0.1,0-0.2,0-0.3-0.1c-0.3,0-0.5-0.1-0.8-0.1c-0.2,0-0.3,0-0.5,0
		c-0.1,0-0.3,0-0.4,0c-0.1,0-0.2,0-0.3,0c-0.1,0-0.2,0-0.3,0l-0.4,0l0,0C12.7,11.5,8,16.5,8,22.5C8,28.8,13.2,34,19.5,34
		c2.9,0,5.5-1.1,7.5-2.8c0,0,0.1,0,0.1-0.1c0,0,0,0,0-0.1c2.1-1.9,3.5-4.6,3.8-7.6l0,0l0-0.4c0-0.1,0-0.2,0-0.3c0-0.1,0-0.2,0-0.3
		C31,22.4,31,22.3,31,22.1z M19.5,32c-5.2,0-9.5-4.3-9.5-9.5c0-4.7,3.5-8.6,8-9.4V23l0,0c0,0,0,0,0,0l0,1h0.5l6.3,6.3
		C23.4,31.4,21.5,32,19.5,32z M26.4,29l-5-5h7.5C28.6,25.9,27.7,27.6,26.4,29z M20,22v-9c0.1,0,0.2,0,0.3,0c0.1,0,0.2,0,0.3,0
		c0.2,0,0.5,0.1,0.7,0.1c0.1,0,0.1,0,0.2,0c0.3,0.1,0.5,0.1,0.8,0.2c0,0,0,0,0,0c3,0.9,5.3,3.3,6.2,6.2c0,0,0,0,0,0
		c0.1,0.3,0.1,0.5,0.2,0.8c0,0.1,0,0.1,0,0.2c0,0.2,0.1,0.4,0.1,0.7c0,0.1,0,0.2,0,0.3c0,0.1,0,0.2,0,0.3H20z"/>
	<path d="M60,8V0H0v8h2v40H1c-0.6,0-1,0.4-1,1s0.4,1,1,1h1h27v2c0,0,0,0.1,0,0.1c-1.7,0.4-3,2-3,3.9c0,2.2,1.8,4,4,4s4-1.8,4-4
		c0-1.9-1.3-3.4-3-3.9c0,0,0-0.1,0-0.1v-2h27h1c0.6,0,1-0.4,1-1s-0.4-1-1-1h-1V8H60z M32,56c0,1.1-0.9,2-2,2s-2-0.9-2-2s0.9-2,2-2
		S32,54.9,32,56z M2,2h56v4H2V2z M56,48H4V8h52V48z"/>
	<path d="M52,35c-0.6,0-1,0.4-1,1v8c0,0.6,0.4,1,1,1s1-0.4,1-1v-8C53,35.4,52.6,35,52,35z"/>
	<path d="M51.3,17.3C51.1,17.5,51,17.7,51,18s0.1,0.5,0.3,0.7c0.2,0.2,0.5,0.3,0.7,0.3s0.5-0.1,0.7-0.3c0.2-0.2,0.3-0.4,0.3-0.7
		s-0.1-0.5-0.3-0.7C52.3,16.9,51.7,16.9,51.3,17.3z"/>
	<g>
		<path class="st1" d="M31,22.1c0-0.2,0-0.4,0-0.5c0-0.2,0-0.5-0.1-0.7c0-0.1,0-0.3-0.1-0.4c0-0.3-0.1-0.5-0.2-0.8
			c0-0.1-0.1-0.2-0.1-0.3c-0.1-0.3-0.2-0.5-0.3-0.8c0-0.1-0.1-0.2-0.1-0.3c-0.1-0.2-0.2-0.5-0.3-0.7c-0.1-0.1-0.1-0.3-0.2-0.4
			c-0.1-0.2-0.2-0.4-0.3-0.6c-0.1-0.2-0.2-0.3-0.3-0.5c-0.1-0.1-0.2-0.3-0.3-0.4c-0.1-0.2-0.3-0.4-0.4-0.6c0,0,0,0,0,0
			c-0.2-0.3-0.5-0.6-0.7-0.8c-0.2-0.2-0.5-0.5-0.8-0.7c0,0,0,0,0,0c-0.2-0.1-0.4-0.3-0.5-0.4c-0.1-0.1-0.3-0.2-0.4-0.3
			c-0.1-0.1-0.3-0.2-0.4-0.2c-0.2-0.1-0.4-0.3-0.6-0.4c-0.1-0.1-0.2-0.1-0.3-0.1c-0.3-0.1-0.5-0.2-0.8-0.4c-0.1,0-0.2-0.1-0.2-0.1
			c-0.3-0.1-0.6-0.2-0.9-0.3c-0.1,0-0.2,0-0.2-0.1c-0.3-0.1-0.6-0.1-0.9-0.2c-0.1,0-0.2,0-0.3-0.1c-0.3,0-0.5-0.1-0.8-0.1
			c-0.2,0-0.3,0-0.5,0c-0.1,0-0.3,0-0.4,0c-0.1,0-0.2,0-0.3,0c-0.1,0-0.2,0-0.3,0l-0.4,0l0,0C12.7,11.5,8,16.5,8,22.5
			C8,28.8,13.2,34,19.5,34c2.9,0,5.5-1.1,7.5-2.8c0,0,0.1,0,0.1-0.1c0,0,0,0,0-0.1c2.1-1.9,3.5-4.6,3.8-7.6l0,0l0-0.4
			c0-0.1,0-0.2,0-0.3c0-0.1,0-0.2,0-0.3C31,22.4,31,22.3,31,22.1z"/>
		<path class="st0" d="M3.8,7.3v41.3h52.8V7.3H3.8z M44.3,12.3c0.4-0.4,1.1-0.4,1.4,0c0.2,0.2,0.3,0.4,0.3,0.7
			c0,0.3-0.1,0.5-0.3,0.7C45.5,13.9,45.3,14,45,14s-0.5-0.1-0.7-0.3C44.1,13.5,44,13.3,44,13S44.1,12.5,44.3,12.3z M39,12h2
			c0.6,0,1,0.4,1,1s-0.4,1-1,1h-2c-0.6,0-1-0.4-1-1S38.4,12,39,12z M25,44H10c-0.6,0-1-0.4-1-1s0.4-1,1-1h15c0.6,0,1,0.4,1,1
			S25.6,44,25,44z M9,39c0-0.6,0.4-1,1-1h10c0.6,0,1,0.4,1,1s-0.4,1-1,1H10C9.4,40,9,39.6,9,39z M31,23l0,0.4l0,0
			c-0.3,3-1.7,5.7-3.8,7.6c0,0,0,0,0,0.1c0,0-0.1,0-0.1,0.1c-2,1.8-4.6,2.8-7.5,2.8C13.2,34,8,28.8,8,22.5c0-6,4.7-11,10.6-11.5l0,0
			l0.4,0c0.1,0,0.2,0,0.3,0c0.1,0,0.2,0,0.3,0c0.1,0,0.3,0,0.4,0c0.2,0,0.3,0,0.5,0c0.3,0,0.5,0.1,0.8,0.1c0.1,0,0.2,0,0.3,0.1
			c0.3,0.1,0.6,0.1,0.9,0.2c0.1,0,0.2,0,0.2,0.1c0.3,0.1,0.6,0.2,0.9,0.3c0.1,0,0.2,0.1,0.2,0.1c0.3,0.1,0.5,0.2,0.8,0.4
			c0.1,0,0.2,0.1,0.3,0.1c0.2,0.1,0.4,0.2,0.6,0.4c0.1,0.1,0.3,0.2,0.4,0.2c0.1,0.1,0.3,0.2,0.4,0.3c0.2,0.1,0.4,0.3,0.5,0.4
			c0,0,0,0,0,0c0.3,0.2,0.5,0.5,0.8,0.7c0.3,0.3,0.5,0.5,0.7,0.8c0,0,0,0,0,0c0.1,0.2,0.3,0.4,0.4,0.6c0.1,0.1,0.2,0.3,0.3,0.4
			c0.1,0.1,0.2,0.3,0.3,0.5c0.1,0.2,0.2,0.4,0.3,0.6c0.1,0.1,0.1,0.2,0.2,0.4c0.1,0.2,0.2,0.5,0.3,0.7c0,0.1,0.1,0.2,0.1,0.3
			c0.1,0.3,0.2,0.5,0.3,0.8c0,0.1,0.1,0.2,0.1,0.3c0.1,0.3,0.1,0.5,0.2,0.8c0,0.1,0,0.3,0.1,0.4c0,0.2,0.1,0.5,0.1,0.7
			c0,0.2,0,0.4,0,0.5c0,0.1,0,0.2,0,0.4c0,0.1,0,0.2,0,0.3C31,22.9,31,22.9,31,23z M37,44c0,0.6-0.4,1-1,1s-1-0.4-1-1v-3
			c0-0.6,0.4-1,1-1s1,0.4,1,1V44z M38,18c0-0.6,0.4-1,1-1h8c0.6,0,1,0.4,1,1s-0.4,1-1,1h-8C38.4,19,38,18.6,38,18z M41,44
			c0,0.6-0.4,1-1,1s-1-0.4-1-1v-7c0-0.6,0.4-1,1-1s1,0.4,1,1V44z M45,44c0,0.6-0.4,1-1,1s-1-0.4-1-1v-5c0-0.6,0.4-1,1-1s1,0.4,1,1
			V44z M49,44c0,0.6-0.4,1-1,1s-1-0.4-1-1V32c0-0.6,0.4-1,1-1s1,0.4,1,1V44z M52,14h-3c-0.6,0-1-0.4-1-1s0.4-1,1-1h3
			c0.6,0,1,0.4,1,1S52.6,14,52,14z"/>
	</g>
</g>
<g>
	<path class="st2" d="M-301.3-119.1c-92.2,0-125.4,90.7-202.7,90.7c0,250.4,62.9,319.3,202.7,400C-161.5,290.9-98.7,222-98.7-28.4
		C-175.9-28.4-209.1-119.1-301.3-119.1z M-319.1,188.3c-0.1,0.1-0.2,0.2-0.3,0.3l-0.4,0.4c-0.1,0.1-0.1,0.1-0.2,0.2l-0.4,0.4
		c-0.1,0.1-0.1,0.1-0.2,0.2l-0.5,0.4c-0.1,0.1-0.2,0.2-0.3,0.2l-0.3,0.2c-0.1,0.1-0.2,0.2-0.4,0.3l-0.5,0.4c-0.1,0-0.1,0.1-0.2,0.1
		l-0.5,0.4c-0.1,0.1-0.2,0.1-0.2,0.2l-0.5,0.3c-0.1,0.1-0.2,0.1-0.3,0.2l-0.5,0.3c-0.1,0-0.1,0.1-0.2,0.1l-0.5,0.3
		c-0.1,0-0.2,0.1-0.2,0.1l-0.5,0.3c-0.1,0-0.2,0.1-0.2,0.1l-0.5,0.3c-0.1,0-0.2,0.1-0.2,0.1l-0.3,0.1c-0.2,0.1-0.3,0.2-0.5,0.3
		l-0.5,0.3c-0.1,0-0.1,0.1-0.2,0.1l-0.5,0.3c-0.1,0-0.2,0.1-0.3,0.1l-0.3,0.1c-0.2,0.1-0.3,0.2-0.5,0.2l-0.5,0.2
		c-0.1,0-0.1,0-0.2,0.1l-0.5,0.2c-0.1,0-0.2,0.1-0.2,0.1l-0.6,0.2c-0.1,0-0.2,0.1-0.3,0.1l-0.3,0.1c-0.2,0.1-0.3,0.1-0.5,0.2
		l-0.6,0.2c-0.1,0-0.2,0-0.2,0.1l-0.6,0.2c-0.1,0-0.1,0-0.2,0.1l-0.6,0.1c-0.1,0-0.2,0-0.3,0.1l-0.6,0.1c-0.1,0-0.1,0-0.2,0
		l-0.6,0.1c-0.1,0-0.2,0-0.3,0.1l-0.3,0c-0.2,0-0.3,0.1-0.5,0.1l-0.6,0.1c-0.1,0-0.2,0-0.3,0l-0.6,0.1c-0.1,0-0.2,0-0.2,0l-0.3,0
		c-0.2,0-0.4,0-0.5,0.1l-0.6,0c-0.1,0-0.2,0-0.3,0l-0.3,0c-0.2,0-0.4,0-0.5,0l-0.6,0c-0.1,0-0.1,0-0.2,0l-0.6,0c-0.1,0-0.1,0-0.2,0
		c-0.1,0-0.1,0-0.2,0l-0.6,0c-0.1,0-0.1,0-0.2,0l-0.6,0c-0.2,0-0.4,0-0.5,0l-0.3,0c-0.1,0-0.2,0-0.3,0l-0.6,0c-0.2,0-0.4,0-0.5-0.1
		l-0.3,0c-0.1,0-0.2,0-0.2,0l-0.6-0.1c-0.1,0-0.2,0-0.3,0l-0.6-0.1c-0.2,0-0.3-0.1-0.5-0.1l-0.3,0c-0.1,0-0.2,0-0.3-0.1l-0.6-0.1
		c-0.1,0-0.2,0-0.2-0.1l-0.6-0.1c-0.1,0-0.2,0-0.2-0.1l-0.6-0.1c-0.1,0-0.2,0-0.2-0.1l-0.6-0.2c-0.1,0-0.2,0-0.2-0.1l-0.6-0.2
		c-0.2-0.1-0.4-0.1-0.6-0.2l-0.3-0.1c-0.1,0-0.2-0.1-0.3-0.1l-0.6-0.2c-0.1,0-0.2-0.1-0.2-0.1l-0.5-0.2c0,0-0.1,0-0.1-0.1l-0.5-0.2
		c-0.2-0.1-0.4-0.2-0.6-0.3l-0.3-0.1c-0.1,0-0.2-0.1-0.2-0.1l-0.5-0.3c-0.1,0-0.2-0.1-0.3-0.1l-0.5-0.3c-0.1,0-0.1-0.1-0.2-0.1
		l-0.5-0.3c-0.1-0.1-0.2-0.1-0.3-0.2l-0.5-0.3c-0.1,0-0.1-0.1-0.2-0.1l-0.5-0.3c-0.1,0-0.1-0.1-0.2-0.1l-0.5-0.3
		c-0.1-0.1-0.2-0.1-0.2-0.2l-0.5-0.3c-0.1-0.1-0.1-0.1-0.2-0.2l-0.5-0.3c-0.1,0-0.1-0.1-0.2-0.1l-0.5-0.4c-0.1-0.1-0.2-0.1-0.3-0.2
		l-0.5-0.4c-0.1,0-0.1-0.1-0.2-0.1l-0.5-0.4c-0.1-0.1-0.1-0.1-0.2-0.2l-0.5-0.4c-0.1-0.1-0.2-0.1-0.2-0.2l-0.4-0.4
		c-0.1-0.1-0.1-0.1-0.2-0.2l-0.4-0.4l-51-51c-13.5-13.5-13.5-35.5,0-49c6.5-6.5,15.2-10.1,24.5-10.1c9.3,0,18,3.6,24.5,10.1
		l26.4,26.4L-232.5,3.7C-226-2.9-217.3-6.4-208-6.4c9.3,0,18,3.6,24.5,10.1c13.5,13.5,13.5,35.5,0,49L-319.1,188.3z"/>
	<path class="st3" d="M-183.5,3.7C-190-2.9-198.7-6.4-208-6.4c-9.3,0-18,3.6-24.5,10.1L-343.8,115l-26.4-26.4
		c-6.5-6.5-15.2-10.1-24.5-10.1c-9.3,0-18,3.6-24.5,10.1c-13.5,13.5-13.5,35.5,0,49l51,51l0.4,0.4c0.1,0.1,0.1,0.1,0.2,0.2l0.4,0.4
		c0.1,0.1,0.2,0.1,0.2,0.2l0.5,0.4c0.1,0.1,0.1,0.1,0.2,0.2l0.5,0.4c0.1,0,0.1,0.1,0.2,0.1l0.5,0.4c0.1,0.1,0.2,0.1,0.3,0.2l0.5,0.4
		c0.1,0.1,0.1,0.1,0.2,0.1l0.5,0.3c0.1,0.1,0.1,0.1,0.2,0.2l0.5,0.3c0.1,0.1,0.2,0.1,0.2,0.2l0.5,0.3c0.1,0,0.1,0.1,0.2,0.1l0.5,0.3
		c0.1,0,0.1,0.1,0.2,0.1l0.5,0.3c0.1,0.1,0.2,0.1,0.3,0.2l0.5,0.3c0.1,0,0.1,0.1,0.2,0.1l0.5,0.3c0.1,0,0.2,0.1,0.3,0.1l0.5,0.3
		c0.1,0,0.2,0.1,0.2,0.1l0.3,0.1c0.2,0.1,0.4,0.2,0.6,0.3l0.5,0.2c0,0,0.1,0,0.1,0.1l0.5,0.2c0.1,0,0.2,0.1,0.2,0.1l0.6,0.2
		c0.1,0,0.2,0.1,0.3,0.1l0.3,0.1c0.2,0.1,0.4,0.1,0.6,0.2l0.6,0.2c0.1,0,0.2,0,0.2,0.1l0.6,0.2c0.1,0,0.2,0,0.2,0.1l0.6,0.1
		c0.1,0,0.2,0,0.2,0.1l0.6,0.1c0.1,0,0.2,0,0.2,0.1l0.6,0.1c0.1,0,0.2,0,0.3,0.1l0.3,0c0.2,0,0.3,0.1,0.5,0.1l0.6,0.1
		c0.1,0,0.2,0,0.3,0l0.6,0.1c0.1,0,0.2,0,0.2,0l0.3,0c0.2,0,0.4,0,0.5,0.1l0.6,0c0.1,0,0.2,0,0.3,0l0.3,0c0.2,0,0.4,0,0.5,0l0.6,0
		c0.1,0,0.1,0,0.2,0l0.6,0c0.1,0,0.1,0,0.2,0c0.1,0,0.1,0,0.2,0l0.6,0c0.1,0,0.1,0,0.2,0l0.6,0c0.2,0,0.4,0,0.5,0l0.3,0
		c0.1,0,0.2,0,0.3,0l0.6,0c0.2,0,0.4,0,0.5-0.1l0.3,0c0.1,0,0.2,0,0.2,0l0.6-0.1c0.1,0,0.2,0,0.3,0l0.6-0.1c0.2,0,0.3-0.1,0.5-0.1
		l0.3,0c0.1,0,0.2,0,0.3-0.1l0.6-0.1c0.1,0,0.1,0,0.2,0l0.6-0.1c0.1,0,0.2,0,0.3-0.1l0.6-0.1c0.1,0,0.1,0,0.2-0.1l0.6-0.2
		c0.1,0,0.2,0,0.2-0.1l0.6-0.2c0.2-0.1,0.4-0.1,0.5-0.2l0.3-0.1c0.1,0,0.2-0.1,0.3-0.1l0.6-0.2c0.1,0,0.2-0.1,0.2-0.1l0.5-0.2
		c0.1,0,0.1,0,0.2-0.1l0.5-0.2c0.2-0.1,0.3-0.1,0.5-0.2l0.3-0.1c0.1,0,0.2-0.1,0.3-0.1l0.5-0.3c0.1,0,0.1-0.1,0.2-0.1l0.5-0.3
		c0.2-0.1,0.3-0.2,0.5-0.3l0.3-0.1c0.1,0,0.2-0.1,0.2-0.1l0.5-0.3c0.1,0,0.2-0.1,0.2-0.1l0.5-0.3c0.1,0,0.2-0.1,0.2-0.1l0.5-0.3
		c0.1,0,0.1-0.1,0.2-0.1l0.5-0.3c0.1-0.1,0.2-0.1,0.3-0.2l0.5-0.3c0.1-0.1,0.2-0.1,0.2-0.2l0.5-0.4c0.1,0,0.1-0.1,0.2-0.1l0.5-0.4
		c0.1-0.1,0.2-0.2,0.4-0.3l0.3-0.2c0.1-0.1,0.2-0.2,0.3-0.2l0.5-0.4c0.1-0.1,0.1-0.1,0.2-0.2l0.4-0.4c0.1-0.1,0.1-0.1,0.2-0.2
		l0.4-0.4c0.1-0.1,0.2-0.2,0.3-0.3l135.6-135.6C-169.9,39.2-169.9,17.2-183.5,3.7z M-191,45.2L-326.8,181v0l-0.4,0.4l-0.5,0.4
		l-0.5,0.4l-0.5,0.4v0l-0.5,0.4l-0.5,0.4l-0.5,0.3l-0.5,0.3l-0.5,0.3l-0.5,0.3l-0.5,0.3l-0.5,0.3v0l-0.5,0.3l-0.5,0.3l-0.5,0.2v0
		l-0.5,0.2l-0.5,0.2l-0.6,0.2l-0.6,0.2v0l-0.6,0.2l-0.6,0.2l-0.6,0.1l-0.6,0.1l-0.6,0.1l-0.6,0.1v0l-0.6,0.1l-0.6,0.1l-0.6,0.1v0
		l-0.6,0l-0.6,0v0l-0.6,0l-0.6,0l-0.6,0l-0.6,0v0l-0.6,0l-0.6,0v0l-0.6-0.1l-0.6-0.1l-0.6-0.1v0l-0.6-0.1l-0.6-0.1l-0.6-0.1
		l-0.6-0.1l-0.6-0.2l-0.6-0.2v0l-0.5-0.2l-0.6-0.2l-0.5-0.2l-0.5-0.2v0l-0.5-0.2l-0.5-0.3l-0.5-0.3l-0.5-0.3l-0.5-0.3l-0.5-0.3
		l-0.5-0.3l-0.5-0.3l-0.5-0.3l-0.5-0.4l-0.5-0.4l-0.5-0.4l-0.5-0.4l-0.4-0.4l-0.4-0.4l-50.9-50.9c-9.3-9.3-9.3-24.6,0-34
		c9.3-9.3,24.6-9.3,34,0l33.9,34l118.8-118.8c9.3-9.3,24.6-9.3,33.9,0C-181.7,20.6-181.7,35.8-191,45.2z"/>
	<path class="st3" d="M-224.9,11.2L-343.8,130l-33.9-34c-9.3-9.3-24.6-9.3-34,0c-9.3,9.3-9.3,24.6,0,34l50.9,50.9l0.4,0.4l0.4,0.4
		l0.5,0.4l0.5,0.4l0.5,0.4l0.5,0.4l0.5,0.3l0.5,0.3l0.5,0.3l0.5,0.3l0.5,0.3l0.5,0.3l0.5,0.3l0.5,0.3l0.5,0.2v0l0.5,0.2l0.5,0.2
		l0.6,0.2l0.5,0.2v0l0.6,0.2l0.6,0.2l0.6,0.1l0.6,0.1l0.6,0.1l0.6,0.1v0l0.6,0.1l0.6,0.1l0.6,0.1v0l0.6,0l0.6,0v0l0.6,0l0.6,0l0.6,0
		l0.6,0v0l0.6,0l0.6,0v0l0.6-0.1l0.6-0.1l0.6-0.1v0l0.6-0.1l0.6-0.1l0.6-0.1l0.6-0.1l0.6-0.2l0.6-0.2v0l0.6-0.2l0.6-0.2l0.5-0.2
		l0.5-0.2v0l0.5-0.2l0.5-0.3l0.5-0.3v0l0.5-0.3l0.5-0.3l0.5-0.3l0.5-0.3l0.5-0.3l0.5-0.3l0.5-0.4l0.5-0.4v0l0.5-0.4l0.5-0.4l0.5-0.4
		l0.4-0.4v0L-191,45.2c9.3-9.3,9.3-24.6,0-33.9C-200.3,1.9-215.6,1.9-224.9,11.2z M-198.5,37.6l-135.8,135.8c0,0,0,0-0.1,0.1l-1,0.9
		c0,0,0,0,0,0l-1.3,0.9l-1.8,0.9c0,0,0,0,0,0l-1.2,0.4c0,0,0,0,0,0l-1.8,0.4c0,0,0,0-0.1,0l-0.9,0.1c0,0,0,0-0.1,0l-0.5,0
		c0,0,0,0-0.1,0l-0.5,0l-0.3,0l-0.2,0c0,0,0,0-0.1,0l-0.5,0c0,0,0,0-0.1,0l-0.9-0.1c0,0-0.1,0-0.1,0l-1.8-0.4c0,0,0,0,0,0l-1-0.4
		l-2-1l-1.8-1.4l-51.4-51.4c-5.2-5.2-5.2-13.7,0-18.9c2.5-2.5,5.9-3.9,9.4-3.9c3.6,0,6.9,1.4,9.4,3.9l33.9,33.9c2,2,4.7,3.1,7.5,3.1
		s5.5-1.1,7.5-3.1l118.8-118.8c2.5-2.5,5.8-3.9,9.4-3.9c3.6,0,6.9,1.4,9.4,3.9C-193.3,24-193.3,32.4-198.5,37.6z"/>
</g>
<path class="st3" d="M-98.7-39.1c-33.3,0-58.6-19.5-85.3-40.1c-30.7-23.7-65.6-50.6-117.4-50.6s-86.6,26.9-117.4,50.6
	c-26.8,20.6-52,40.1-85.3,40.1c-5.9,0-10.7,4.8-10.7,10.7c0,124.5,15.5,207.5,50.3,268.9c34.5,61,86,98.9,157.7,140.3
	c1.6,1,3.5,1.4,5.3,1.4s3.7-0.5,5.3-1.4c71.8-41.4,123.2-79.4,157.7-140.3C-103.5,179-88,96.1-88-28.4C-88-34.3-92.8-39.1-98.7-39.1
	z M-301.3,359.2c-128.7-75-190.3-139.7-192-377.5c35.1-3.5,61.8-24.1,87.6-44c29.4-22.7,59.8-46.1,104.3-46.1
	c44.5,0,74.9,23.4,104.3,46.1c25.8,19.9,52.5,40.5,87.6,44C-111.1,219.6-172.7,284.2-301.3,359.2z"/>
<path class="st3" d="M-427.4-7.9c-2.7-5.2-9.2-7.2-14.4-4.5c-1.3,0.7-2.7,1.4-4,2c-5.3,2.6-7.5,9-4.9,14.3c1.9,3.8,5.6,6,9.6,6
	c1.6,0,3.2-0.4,4.7-1.1c1.5-0.8,3-1.5,4.5-2.3C-426.6,3.7-424.6-2.7-427.4-7.9z"/>
<path class="st3" d="M-145.7,75.7c0.3,0,0.7,0,1,0c5.5,0,10.1-4.2,10.6-9.7c0.1-1.4,0.2-2.7,0.4-4.1c0.5-5.9-3.9-11-9.7-11.5
	c-5.9-0.5-11,3.9-11.5,9.7c-0.1,1.3-0.2,2.6-0.3,4C-155.9,70-151.6,75.2-145.7,75.7z"/>
<path class="st3" d="M-406.3-11.6c2.2,0,4.3-0.7,6.2-2c6.2-4.5,12.2-9,18-13.5c27.2-20.7,50.7-38.6,80.7-38.6
	c5.9,0,10.7-4.8,10.7-10.7s-4.8-10.7-10.7-10.7c-37.2,0-64.6,20.9-93.6,43c-5.7,4.4-11.6,8.8-17.6,13.2c-4.8,3.4-5.9,10.1-2.4,14.9
	C-412.9-13.2-409.6-11.6-406.3-11.6z"/>
<path class="st3" d="M-301.3,309.5c-27.3-16.8-60.3-39.4-85-68.6c-3.8-4.5-10.5-5-15-1.2c-4.5,3.8-5,10.5-1.2,15
	c28.4,33.5,66.1,58.4,95.7,76.4c0.1,0,0.1,0.1,0.2,0.1c0.3,0.1,0.5,0.3,0.8,0.4c0.2,0.1,0.3,0.2,0.5,0.2c0.2,0.1,0.5,0.2,0.7,0.3
	c0.2,0.1,0.4,0.1,0.6,0.2c0.2,0.1,0.5,0.1,0.7,0.1c0.2,0,0.5,0.1,0.7,0.1c0.3,0,0.6,0.1,1,0.1c0.1,0,0.3,0,0.4,0c0,0,0,0,0,0
	c0,0,0,0,0,0c0.1,0,0.3,0,0.4,0c0.3,0,0.7,0,1-0.1c0.2,0,0.5-0.1,0.7-0.1c0.2,0,0.5-0.1,0.7-0.1c0.2-0.1,0.4-0.1,0.6-0.2
	c0.2-0.1,0.5-0.2,0.7-0.3c0.2-0.1,0.3-0.2,0.5-0.2c0.3-0.1,0.5-0.3,0.8-0.4c0.1,0,0.1-0.1,0.2-0.1c29.6-18,67.3-42.9,95.7-76.4
	c32.4-38.2,52.8-89.9,62.4-158c0.8-5.8-3.2-11.2-9.1-12.1c-5.8-0.8-11.2,3.2-12.1,9.1c-9,64-27.9,112.2-57.6,147.2
	C-241.1,270.1-274,292.7-301.3,309.5z"/>
</svg>
