<?xml version="1.0" encoding="utf-8"?>
<!-- Generator: Adobe Illustrator 21.1.0, SVG Export Plug-In . SVG Version: 6.00 Build 0)  -->
<svg version="1.1" id="Layer_1" xmlns="http://www.w3.org/2000/svg" xmlns:xlink="http://www.w3.org/1999/xlink" x="0px" y="0px"
	 viewBox="0 0 502 502" style="enable-background:new 0 0 502 502;" xml:space="preserve">
<style type="text/css">
	.st0{fill:#282828;}
	.st1{fill:#FFF9E6;}
	.st2{fill:none;}
</style>
<g>
	<g>
		<circle class="st0" cx="251" cy="251" r="241"/>
		<path d="M251,502c-67,0-130.1-26.1-177.5-73.5S0,318,0,251S26.1,120.9,73.5,73.5S184,0,251,0c67,0,130.1,26.1,177.5,73.5
			C475.9,120.9,502,184,502,251s-26.1,130.1-73.5,177.5C381.1,475.9,318,502,251,502z M251,20C123.6,20,20,123.6,20,251
			s103.6,231,231,231s231-103.6,231-231S378.4,20,251,20z"/>
	</g>
	<g>
		<g>
			<path class="st1" d="M370,170.4c0-65.6-53.4-119-119-119s-119,53.4-119,119c0,13.8,11.2,25,25,25s25-11.2,25-25c0-38,31-69,69-69
				s69,31,69,69c0,38.3-31,69.5-69,69.5c-13.8,0-25,11.2-25,25v68.8c0,13.8,11.2,25,25,25c13.8,0,25-11.2,25-25v-46.4
				C329.7,275.6,370,227.6,370,170.4z"/>
			<path d="M251,368.6c-19.3,0-35-15.7-35-35v-68.8c0-19.3,15.7-35,35-35c32.5,0,59-26.7,59-59.5c0-32.5-26.5-59-59-59
				c-32.5,0-59,26.5-59,59c0,19.3-15.7,35-35,35s-35-15.7-35-35c0-71.1,57.9-129,129-129s129,57.9,129,129
				c0,29.8-10.3,58.8-29.1,81.9c-16.8,20.6-39.6,35.6-64.9,42.8v38.6C286,352.9,270.3,368.6,251,368.6z M251,91.4
				c43.6,0,79,35.4,79,79c0,43.8-35.4,79.5-79,79.5c-8.3,0-15,6.7-15,15v68.8c0,8.3,6.7,15,15,15s15-6.7,15-15v-46.4
				c0-4.7,3.3-8.8,7.9-9.8c49.9-10.8,86.1-55.8,86.1-107.1c0-60.1-48.9-109-109-109s-109,48.9-109,109c0,8.3,6.7,15,15,15
				s15-6.7,15-15C172,126.8,207.4,91.4,251,91.4z"/>
		</g>
		<g>
			<path class="st1" d="M251,396.6c-13.8,0-25,11.2-25,25v4c0,13.8,11.2,25,25,25s25-11.2,25-25v-4C276,407.8,264.8,396.6,251,396.6
				z"/>
			<path d="M251,460.6c-19.3,0-35-15.7-35-35v-4c0-19.3,15.7-35,35-35s35,15.7,35,35v4C286,444.9,270.3,460.6,251,460.6z M251,406.6
				c-8.3,0-15,6.7-15,15v4c0,8.3,6.7,15,15,15s15-6.7,15-15v-4C266,413.4,259.3,406.6,251,406.6z"/>
		</g>
	</g>
	<g>
		<path d="M49.3,303c-4.6,0-8.8-3.3-9.8-8c-3-14.4-4.5-29.2-4.5-44c0-5.5,4.5-10,10-10s10,4.5,10,10c0,13.5,1.4,26.9,4.1,40
			c1.1,5.4-2.4,10.7-7.8,11.8C50.6,302.9,49.9,303,49.3,303z"/>
	</g>
	<g>
		<path d="M169,450c-1.3,0-2.7-0.3-4-0.8c-48.5-21.1-87.5-59.1-109.9-107c-2.3-5-0.2-11,4.8-13.3c5-2.3,11-0.2,13.3,4.8
			c20.3,43.5,55.7,78,99.7,97.1c5.1,2.2,7.4,8.1,5.2,13.2C176.5,447.8,172.9,450,169,450z"/>
	</g>
</g>
<rect x="-707.2" y="-82.7" class="st0" width="525.2" height="43.1"/>
<path d="M-431.7,109.6c-0.1-1.6-0.1-3.3-0.2-4.9c-0.2-2.2-0.4-4.4-0.7-6.5c-0.2-1.3-0.4-2.6-0.6-3.9c-0.4-2.4-1-4.8-1.6-7.2
	c-0.3-1.1-0.5-2.1-0.8-3.2c-0.7-2.4-1.5-4.9-2.4-7.2c-0.4-1-0.7-2-1.1-3c-0.9-2.2-1.9-4.4-2.9-6.5c-0.6-1.1-1.1-2.3-1.7-3.4
	c-1-1.8-2-3.5-3-5.3c-0.8-1.4-1.6-2.8-2.6-4.2c-0.8-1.2-1.7-2.4-2.6-3.5c-1.3-1.8-2.5-3.5-3.9-5.2c0,0,0,0,0,0
	c-2.2-2.6-4.4-5.2-6.8-7.6c-2.3-2.3-4.7-4.4-7.2-6.5c-0.1-0.1-0.3-0.2-0.4-0.4c-1.6-1.3-3.2-2.4-4.9-3.6c-1.3-1-2.6-2-4-2.9
	c-1.2-0.8-2.4-1.5-3.7-2.2c-1.9-1.2-3.9-2.3-5.9-3.4c-0.9-0.5-1.8-0.9-2.7-1.3c-2.4-1.2-4.9-2.3-7.4-3.3c-0.7-0.3-1.4-0.5-2.1-0.8
	c-2.7-1-5.4-1.9-8.2-2.7c-0.7-0.2-1.5-0.4-2.2-0.6c-2.7-0.7-5.4-1.3-8.2-1.8c-1-0.2-2-0.3-3.1-0.5c-2.4-0.4-4.8-0.6-7.3-0.8
	c-1.5-0.1-2.9-0.2-4.4-0.2c-1.2-0.1-2.4-0.2-3.6-0.2c-0.9,0-1.7,0.1-2.5,0.1c-0.8,0-1.6-0.1-2.4,0l-3.7,0.2l-0.1,0.1
	c-54.6,4.4-97.6,50.2-97.6,105.8c0,58.6,47.7,106.3,106.3,106.3c26.6,0,50.9-9.9,69.6-26.1c0.3-0.2,0.6-0.3,0.8-0.5
	c0.1-0.1,0.2-0.3,0.3-0.5c19.6-17.6,32.7-42.2,35.1-70l0.2-0.1l0.2-4.1c0-0.8,0-1.6,0-2.4c0-0.8,0.1-1.6,0.1-2.5
	C-431.5,111.8-431.6,110.7-431.7,109.6z M-537.8,200.7c-48.4,0-87.8-39.4-87.8-87.8c0-43.7,32.1-79.9,73.9-86.6v90.9l0,0.3
	c0,0,0,0.1,0,0.1l0.3,9.2h5.1l58.3,58.3C-502.1,194.9-519.3,200.7-537.8,200.7z M-473.9,173l-46.2-46.2h68.9
	C-454,144.5-462.1,160.5-473.9,173z M-533.2,108.3V25.4c0.9,0.1,1.8,0.1,2.8,0.1c1,0.1,1.9,0.2,2.9,0.3c2.1,0.2,4.2,0.6,6.2,1
	c0.6,0.1,1.2,0.2,1.9,0.4c2.5,0.5,5,1.2,7.4,1.9c0.1,0,0.3,0.1,0.5,0.1c27.4,8.6,49,30.2,57.6,57.6c0,0.1,0.1,0.3,0.1,0.5
	c0.7,2.4,1.4,4.9,1.9,7.4c0.1,0.6,0.2,1.2,0.4,1.9c0.4,2.1,0.7,4.1,1,6.2c0.1,1,0.2,1.9,0.3,2.9c0.1,0.9,0.1,1.8,0.1,2.8H-533.2z"/>
<path d="M-718,357.8c0,5.1,4.1,9.2,9.2,9.2h9.2H-450v18.5c0,0.4,0.2,0.8,0.2,1.2c-16,4-28,18.5-28,35.7c0,20.4,16.6,37,37,37
	s37-16.6,37-37c0-17.3-11.9-31.7-28-35.7c0.1-0.4,0.2-0.8,0.2-1.2v-18.5H-182h9.2c5.1,0,9.2-4.1,9.2-9.2s-4.1-9.2-9.2-9.2h-9.2
	V-21.1h18.5V-95H-718"/>
<path d="M-718-21.1h18.5v369.7h-9.2c-5.1,0-9.2,4.1-9.2,9.2"/>
<path d="M-422.3,422.5c0,10.2-8.3,18.5-18.5,18.5s-18.5-8.3-18.5-18.5c0-10.2,8.3-18.5,18.5-18.5S-422.3,412.3-422.3,422.5z"/>
<rect x="-699.5" y="-76.5" width="517.5" height="37"/>
<rect x="-681" y="-21.1" width="480.6" height="369.7"/>
<path d="M-237.4,228.5c-5.1,0-9.2,4.1-9.2,9.2v73.9c0,5.1,4.1,9.2,9.2,9.2s9.2-4.1,9.2-9.2v-73.9
	C-228.2,232.6-232.3,228.5-237.4,228.5z"/>
<path d="M-244,64.8c-1.7,1.7-2.7,4.2-2.7,6.6c0,2.4,1,4.8,2.7,6.6c1.7,1.7,4.2,2.7,6.6,2.7s4.8-1,6.6-2.7c1.7-1.8,2.7-4.2,2.7-6.6
	c0-2.4-1-4.8-2.7-6.6C-234.3,61.4-240.6,61.4-244,64.8z"/>
<g>
	<path class="st2" d="M-431.7,109.6c-0.1-1.6-0.1-3.3-0.2-4.9c-0.2-2.2-0.4-4.4-0.7-6.5c-0.2-1.3-0.4-2.6-0.6-3.9
		c-0.4-2.4-1-4.8-1.6-7.2c-0.3-1.1-0.5-2.1-0.8-3.2c-0.7-2.4-1.5-4.9-2.4-7.2c-0.4-1-0.7-2-1.1-3c-0.9-2.2-1.9-4.4-2.9-6.5
		c-0.6-1.1-1.1-2.3-1.7-3.4c-1-1.8-2-3.5-3-5.3c-0.8-1.4-1.6-2.8-2.6-4.2c-0.8-1.2-1.7-2.4-2.6-3.5c-1.3-1.8-2.5-3.5-3.9-5.2
		c0,0,0,0,0,0c-2.2-2.6-4.4-5.2-6.8-7.6c-2.3-2.3-4.7-4.4-7.2-6.5c-0.1-0.1-0.3-0.2-0.4-0.4c-1.6-1.3-3.2-2.4-4.9-3.6
		c-1.3-1-2.6-2-4-2.9c-1.2-0.8-2.4-1.5-3.7-2.2c-1.9-1.2-3.9-2.3-5.9-3.4c-0.9-0.5-1.8-0.9-2.7-1.3c-2.4-1.2-4.9-2.3-7.4-3.3
		c-0.7-0.3-1.4-0.5-2.1-0.8c-2.7-1-5.4-1.9-8.2-2.7c-0.7-0.2-1.5-0.4-2.2-0.6c-2.7-0.7-5.4-1.3-8.2-1.8c-1-0.2-2-0.3-3.1-0.5
		c-2.4-0.4-4.8-0.6-7.3-0.8c-1.5-0.1-2.9-0.2-4.4-0.2c-1.2-0.1-2.4-0.2-3.6-0.2c-0.9,0-1.7,0.1-2.5,0.1c-0.8,0-1.6-0.1-2.4,0
		l-3.7,0.2l-0.1,0.1c-54.6,4.4-97.6,50.2-97.6,105.8c0,58.6,47.7,106.3,106.3,106.3c26.6,0,50.9-9.9,69.6-26.1
		c0.3-0.2,0.6-0.3,0.8-0.5c0.1-0.1,0.2-0.3,0.3-0.5c19.6-17.6,32.7-42.2,35.1-70l0.2-0.1l0.2-4.1c0-0.8,0-1.6,0-2.4
		c0-0.8,0.1-1.6,0.1-2.5C-431.5,111.8-431.6,110.7-431.7,109.6z"/>
	<path class="st0" d="M-682.6-27.1v381.9h487.5V-27.1H-682.6z M-308.7,18.6c3.4-3.4,9.7-3.4,13.1,0c1.7,1.7,2.7,4.1,2.7,6.6
		c0,2.4-1,4.8-2.7,6.6c-1.8,1.7-4.2,2.7-6.6,2.7s-4.8-1-6.6-2.7c-1.7-1.8-2.7-4.2-2.7-6.6S-310.4,20.3-308.7,18.6z M-357.6,15.9
		h18.5c5.1,0,9.2,4.1,9.2,9.2s-4.1,9.2-9.2,9.2h-18.5c-5.1,0-9.2-4.1-9.2-9.2S-362.7,15.9-357.6,15.9z M-487,311.6h-138.6
		c-5.1,0-9.2-4.1-9.2-9.2s4.1-9.2,9.2-9.2H-487c5.1,0,9.2,4.1,9.2,9.2S-481.8,311.6-487,311.6z M-634.8,265.4c0-5.1,4.1-9.2,9.2-9.2
		h92.4c5.1,0,9.2,4.1,9.2,9.2s-4.1,9.2-9.2,9.2h-92.4C-630.7,274.7-634.8,270.5-634.8,265.4z M-431.6,117.8l-0.2,4.1l-0.2,0.1
		c-2.4,27.8-15.5,52.4-35.1,70c-0.1,0.2-0.2,0.4-0.3,0.5c-0.2,0.2-0.6,0.3-0.8,0.5c-18.7,16.2-43,26.1-69.6,26.1
		c-58.6,0-106.3-47.7-106.3-106.3c0-55.7,43.1-101.4,97.6-105.8l0.1-0.1l3.7-0.2c0.8,0,1.6,0,2.4,0c0.9,0,1.7-0.1,2.5-0.1
		c1.2,0,2.4,0.1,3.6,0.2c1.5,0.1,2.9,0.1,4.4,0.2c2.5,0.2,4.9,0.5,7.3,0.8c1,0.2,2.1,0.3,3.1,0.5c2.8,0.5,5.5,1.1,8.2,1.8
		c0.7,0.2,1.5,0.4,2.2,0.6c2.8,0.8,5.5,1.7,8.2,2.7c0.7,0.3,1.4,0.5,2.1,0.8c2.5,1,5,2.1,7.4,3.3c0.9,0.4,1.8,0.8,2.7,1.3
		c2,1.1,4,2.2,5.9,3.4c1.2,0.7,2.5,1.4,3.7,2.2c1.4,0.9,2.6,1.9,4,2.9c1.6,1.2,3.3,2.3,4.9,3.6c0.1,0.1,0.3,0.2,0.4,0.4
		c2.5,2.1,4.9,4.2,7.2,6.5c2.4,2.4,4.7,5,6.8,7.6c0,0,0,0,0,0c1.4,1.7,2.6,3.5,3.9,5.2c0.9,1.2,1.8,2.3,2.6,3.5
		c0.9,1.4,1.7,2.8,2.6,4.2c1.1,1.7,2.1,3.5,3,5.3c0.6,1.1,1.1,2.3,1.7,3.4c1,2.1,2,4.3,2.9,6.5c0.4,1,0.7,2,1.1,3
		c0.9,2.4,1.7,4.8,2.4,7.2c0.3,1.1,0.6,2.1,0.8,3.2c0.6,2.4,1.1,4.8,1.6,7.2c0.2,1.3,0.4,2.6,0.6,3.9c0.3,2.2,0.6,4.3,0.7,6.5
		c0.1,1.6,0.2,3.3,0.2,4.9c0,1.1,0.2,2.2,0.2,3.3c0,0.8-0.1,1.7-0.1,2.5C-431.6,116.2-431.6,117-431.6,117.8z M-376.1,311.6
		c0,5.1-4.1,9.2-9.2,9.2s-9.2-4.1-9.2-9.2v-27.7c0-5.1,4.1-9.2,9.2-9.2s9.2,4.1,9.2,9.2V311.6z M-366.8,71.3c0-5.1,4.1-9.2,9.2-9.2
		h73.9c5.1,0,9.2,4.1,9.2,9.2s-4.1,9.2-9.2,9.2h-73.9C-362.7,80.6-366.8,76.5-366.8,71.3z M-339.1,311.6c0,5.1-4.1,9.2-9.2,9.2
		s-9.2-4.1-9.2-9.2v-64.7c0-5.1,4.1-9.2,9.2-9.2s9.2,4.1,9.2,9.2V311.6z M-302.1,311.6c0,5.1-4.1,9.2-9.2,9.2s-9.2-4.1-9.2-9.2
		v-46.2c0-5.1,4.1-9.2,9.2-9.2s9.2,4.1,9.2,9.2V311.6z M-265.2,311.6c0,5.1-4.1,9.2-9.2,9.2s-9.2-4.1-9.2-9.2V200.7
		c0-5.1,4.1-9.2,9.2-9.2s9.2,4.1,9.2,9.2V311.6z M-237.4,34.4h-27.7c-5.1,0-9.2-4.1-9.2-9.2s4.1-9.2,9.2-9.2h27.7
		c5.1,0,9.2,4.1,9.2,9.2S-232.3,34.4-237.4,34.4z"/>
</g>
</svg>
