<?xml version="1.0" encoding="utf-8"?>
<!-- Generator: Adobe Illustrator 21.1.0, SVG Export Plug-In . SVG Version: 6.00 Build 0)  -->
<svg version="1.1" id="Layer_1" xmlns="http://www.w3.org/2000/svg" xmlns:xlink="http://www.w3.org/1999/xlink" x="0px" y="0px"
	 viewBox="0 0 512 512" style="enable-background:new 0 0 512 512;" xml:space="preserve">
<style type="text/css">
	.st0{fill:none;}
	.st1{fill:#A5D76E;}
	.st2{fill:#EFF2FA;}
	.st3{fill:#282828;}
</style>
<g>
	<path class="st0" d="M485.5,105.9h-459c-4.9,0-8.8,4-8.8,8.8v317.8c0,4.9,4,8.8,8.8,8.8h459c4.9,0,8.8-4,8.8-8.8V114.8
		C494.3,109.9,490.4,105.9,485.5,105.9z"/>
	<path d="M485.5,53h-459C11.9,53,0,64.8,0,79.4v353.1C0,447.2,11.9,459,26.5,459h459c14.6,0,26.5-11.9,26.5-26.5V79.4
		C512,64.8,500.1,53,485.5,53z M441.4,70.6h8.8c4.9,0,8.8,4,8.8,8.8c0,4.9-4,8.8-8.8,8.8h-8.8c-4.9,0-8.8-4-8.8-8.8
		S436.5,70.6,441.4,70.6z M194.2,70.6h211.9c4.9,0,8.8,4,8.8,8.8s-4,8.8-8.8,8.8H194.2c-4.9,0-8.8-4-8.8-8.8S189.3,70.6,194.2,70.6z
		 M150.1,70.6h8.8c4.9,0,8.8,4,8.8,8.8c0,4.9-4,8.8-8.8,8.8h-8.8c-4.9,0-8.8-4-8.8-8.8S145.2,70.6,150.1,70.6z M114.8,70.6h8.8
		c4.9,0,8.8,4,8.8,8.8s-4,8.8-8.8,8.8h-8.8c-4.9,0-8.8-4-8.8-8.8S109.9,70.6,114.8,70.6z M79.4,70.6c4.9,0,8.8,4,8.8,8.8
		s-4,8.8-8.8,8.8s-8.8-4-8.8-8.8S74.6,70.6,79.4,70.6z M53,70.6c4.9,0,8.8,4,8.8,8.8s-4,8.8-8.8,8.8s-8.8-4-8.8-8.8
		S48.1,70.6,53,70.6z M26.5,70.6c4.9,0,8.8,4,8.8,8.8s-4,8.8-8.8,8.8c-4.9,0-8.8-4-8.8-8.8S21.6,70.6,26.5,70.6z M494.3,432.6
		c0,4.9-4,8.8-8.8,8.8h-459c-4.9,0-8.8-4-8.8-8.8V114.8c0-4.9,4-8.8,8.8-8.8h459c4.9,0,8.8,4,8.8,8.8V432.6z M485.5,88.3h-8.8
		c-4.9,0-8.8-4-8.8-8.8s4-8.8,8.8-8.8h8.8c4.9,0,8.8,4,8.8,8.8S490.4,88.3,485.5,88.3z"/>
	<path class="st1" d="M79.4,70.6"/>
	<path class="st1" d="M79.4,88.3"/>
	<path class="st2" d="M141.2,79.4c0,4.9,4,8.8,8.8,8.8h8.8c4.9,0,8.8-4,8.8-8.8c0-4.9-4-8.8-8.8-8.8h-8.8"/>
</g>
<g>
	<path class="st0" d="M414.9,291.3c0-4.9-4-8.8-8.8-8.8H264.8V256h-17.7v26.5H105.9c-4.9,0-8.8,4-8.8,8.8v44.1h17.7v-35.3h132.4
		v26.5h17.7v-26.5h132.4v26.5h17.7V291.3z"/>
	<path class="st3" d="M13,105.9v335.4h492V105.9H13z M123.6,397.2H88.3c-4.9,0-8.8-4-8.8-8.8s4-8.8,8.8-8.8h35.3
		c4.9,0,8.8,4,8.8,8.8C132.4,393.3,128.5,397.2,123.6,397.2z M141.2,361.9H70.6c-4.9,0-8.8-4-8.8-8.8s4-8.8,8.8-8.8h70.6
		c4.9,0,8.8,4,8.8,8.8C150.1,358,146.1,361.9,141.2,361.9z M467.9,408.7c0,3.4-2.8,6.2-6.2,6.2H350.4c-3.4,0-6.2-2.8-6.2-6.2v-76
		c0-3.4,2.8-6.2,6.2-6.2h46.8v-26.5H264.8v26.5h46.8c3.4,0,6.2,2.8,6.2,6.2v76c0,3.4-2.8,6.2-6.2,6.2H200.4c-3.4,0-6.2-2.8-6.2-6.2
		v-76c0-3.4,2.8-6.2,6.2-6.2h46.8v-26.5H114.8v35.3H97.1v-44.1c0-4.9,4-8.8,8.8-8.8h141.2V256h-87.6c-5.3,0-9.5-4.3-9.5-9.5V141.9
		c0-5.3,4.3-9.5,9.5-9.5h192.8c5.3,0,9.5,4.3,9.5,9.5v104.5c0,5.3-4.3,9.5-9.5,9.5h-87.6v26.5h141.2c4.9,0,8.8,4,8.8,8.8v35.3h46.8
		c3.4,0,6.2,2.8,6.2,6.2V408.7z"/>
	<rect x="247.2" y="247.2" width="17.7" height="8.8"/>
	<path d="M264.8,247.2v8.8h87.6c5.3,0,9.5-4.3,9.5-9.5V141.9c0-5.3-4.3-9.5-9.5-9.5H159.6c-5.3,0-9.5,4.3-9.5,9.5v104.5
		c0,5.3,4.3,9.5,9.5,9.5h87.6v-8.8H264.8z M194.2,150.1h123.6c4.9,0,8.8,4,8.8,8.8c0,4.9-4,8.8-8.8,8.8H194.2c-4.9,0-8.8-4-8.8-8.8
		S189.3,150.1,194.2,150.1z M167.7,194.2c0-4.9,4-8.8,8.8-8.8h158.9c4.9,0,8.8,4,8.8,8.8c0,4.9-4,8.8-8.8,8.8H176.6
		C171.7,203,167.7,199.1,167.7,194.2z M220.7,229.5c0-4.9,4-8.8,8.8-8.8h53c4.9,0,8.8,4,8.8,8.8c0,4.9-4,8.8-8.8,8.8h-53
		C224.6,238.3,220.7,234.4,220.7,229.5z"/>
	<rect x="247.2" y="326.6" width="17.7" height="8.8"/>
	<path d="M247.2,335.4v-8.8h-46.8c-3.4,0-6.2,2.8-6.2,6.2v76c0,3.4,2.8,6.2,6.2,6.2h111.3c3.4,0,6.2-2.8,6.2-6.2v-76
		c0-3.4-2.8-6.2-6.2-6.2h-46.8v8.8H247.2z M273.7,397.2h-35.3c-4.9,0-8.8-4-8.8-8.8s4-8.8,8.8-8.8h35.3c4.9,0,8.8,4,8.8,8.8
		C282.5,393.3,278.5,397.2,273.7,397.2z M300.1,353.1c0,4.9-4,8.8-8.8,8.8h-70.6c-4.9,0-8.8-4-8.8-8.8s4-8.8,8.8-8.8h70.6
		C296.2,344.3,300.1,348.2,300.1,353.1z"/>
	<rect x="397.2" y="326.6" width="17.7" height="8.8"/>
	<path d="M461.7,326.6h-46.8v8.8h-17.7v-8.8h-46.8c-3.4,0-6.2,2.8-6.2,6.2v76c0,3.4,2.8,6.2,6.2,6.2h111.3c3.4,0,6.2-2.8,6.2-6.2
		v-76C467.9,329.4,465.1,326.6,461.7,326.6z M423.7,397.2h-35.3c-4.9,0-8.8-4-8.8-8.8s4-8.8,8.8-8.8h35.3c4.9,0,8.8,4,8.8,8.8
		C432.6,393.3,428.6,397.2,423.7,397.2z M441.4,361.9h-70.6c-4.9,0-8.8-4-8.8-8.8s4-8.8,8.8-8.8h70.6c4.9,0,8.8,4,8.8,8.8
		S446.3,361.9,441.4,361.9z"/>
</g>
<rect x="-418" y="109.1" class="st3" width="334.3" height="27.5"/>
<path d="M-242.6,231.5c0-1-0.1-2.1-0.2-3.1c-0.1-1.4-0.3-2.8-0.5-4.2c-0.1-0.8-0.2-1.7-0.4-2.5c-0.3-1.5-0.6-3.1-1-4.6
	c-0.2-0.7-0.3-1.4-0.5-2c-0.4-1.6-1-3.1-1.5-4.6c-0.2-0.6-0.5-1.3-0.7-1.9c-0.6-1.4-1.2-2.8-1.9-4.2c-0.4-0.7-0.7-1.5-1.1-2.2
	c-0.6-1.1-1.3-2.2-1.9-3.4c-0.5-0.9-1-1.8-1.6-2.7c-0.5-0.8-1.1-1.5-1.6-2.3c-0.8-1.1-1.6-2.2-2.5-3.3c0,0,0,0,0,0
	c-1.4-1.7-2.8-3.3-4.3-4.8c-1.5-1.5-3-2.8-4.6-4.1c-0.1-0.1-0.2-0.2-0.3-0.2c-1-0.8-2.1-1.6-3.1-2.3c-0.8-0.6-1.7-1.2-2.5-1.8
	c-0.8-0.5-1.6-0.9-2.3-1.4c-1.2-0.8-2.5-1.5-3.8-2.2c-0.6-0.3-1.1-0.6-1.7-0.8c-1.5-0.8-3.1-1.5-4.7-2.1c-0.4-0.2-0.9-0.3-1.3-0.5
	c-1.7-0.6-3.5-1.2-5.2-1.7c-0.5-0.1-0.9-0.2-1.4-0.4c-1.7-0.4-3.4-0.8-5.2-1.1c-0.6-0.1-1.3-0.2-2-0.3c-1.5-0.2-3.1-0.4-4.6-0.5
	c-0.9-0.1-1.9-0.1-2.8-0.1c-0.8,0-1.5-0.1-2.3-0.1c-0.5,0-1.1,0.1-1.6,0.1c-0.5,0-1,0-1.5,0l-2.3,0.1l-0.1,0.1
	c-34.7,2.8-62.1,31.9-62.1,67.4c0,37.3,30.3,67.6,67.6,67.6c16.9,0,32.4-6.3,44.3-16.6c0.2-0.1,0.4-0.2,0.5-0.3
	c0.1-0.1,0.1-0.2,0.2-0.3c12.5-11.2,20.8-26.9,22.3-44.6l0.1-0.1l0.1-2.6c0-0.5,0-1,0-1.5c0-0.5,0.1-1,0.1-1.6
	C-242.5,232.9-242.6,232.2-242.6,231.5z M-310.2,289.5c-30.8,0-55.9-25.1-55.9-55.9c0-27.8,20.4-50.9,47.1-55.1v57.8l0,0.2
	c0,0,0,0.1,0,0.1l0.2,5.8h3.2l37.1,37.1C-287.5,285.8-298.4,289.5-310.2,289.5z M-269.5,271.8l-29.4-29.4h43.9
	C-256.9,253.7-262,263.9-269.5,271.8z M-307.2,230.7v-52.8c0.6,0,1.2,0,1.8,0.1c0.6,0,1.2,0.1,1.8,0.2c1.3,0.2,2.7,0.4,4,0.6
	c0.4,0.1,0.8,0.1,1.2,0.2c1.6,0.3,3.2,0.7,4.7,1.2c0.1,0,0.2,0.1,0.3,0.1c17.4,5.5,31.2,19.2,36.7,36.7c0,0.1,0.1,0.2,0.1,0.3
	c0.5,1.5,0.9,3.1,1.2,4.7c0.1,0.4,0.1,0.8,0.2,1.2c0.2,1.3,0.4,2.6,0.6,4c0.1,0.6,0.1,1.2,0.2,1.8c0,0.6,0.1,1.2,0.1,1.8H-307.2z"/>
<path d="M-424.9,389.5c0,3.3,2.6,5.9,5.9,5.9h5.9h158.8v11.8c0,0.3,0.1,0.5,0.2,0.8c-10.2,2.6-17.8,11.7-17.8,22.7
	c0,13,10.6,23.5,23.5,23.5s23.5-10.6,23.5-23.5c0-11-7.6-20.2-17.8-22.7c0-0.3,0.2-0.5,0.2-0.8v-11.8h158.8h5.9
	c3.3,0,5.9-2.6,5.9-5.9s-2.6-5.9-5.9-5.9h-5.9V148.3h11.8v-47.1h-352.9"/>
<path d="M-424.9,148.3h11.8v235.3h-5.9c-3.3,0-5.9,2.6-5.9,5.9"/>
<path d="M-236.6,430.7c0,6.5-5.3,11.8-11.8,11.8c-6.5,0-11.8-5.3-11.8-11.8s5.3-11.8,11.8-11.8
	C-241.9,418.9-236.6,424.2-236.6,430.7z"/>
<rect x="-413.1" y="113" width="329.4" height="23.5"/>
<rect x="-401.3" y="148.3" width="305.9" height="235.3"/>
<path d="M-119,307.2c-3.3,0-5.9,2.6-5.9,5.9v47.1c0,3.3,2.6,5.9,5.9,5.9s5.9-2.6,5.9-5.9V313C-113.1,309.8-115.7,307.2-119,307.2z"
	/>
<path d="M-123.2,203c-1.1,1.1-1.7,2.6-1.7,4.2s0.6,3.1,1.7,4.2c1.1,1.1,2.6,1.7,4.2,1.7s3.1-0.6,4.2-1.7c1.1-1.1,1.7-2.6,1.7-4.2
	s-0.6-3.1-1.7-4.2C-117,200.8-121,200.8-123.2,203z"/>
<g>
	<path class="st0" d="M-242.6,231.5c0-1-0.1-2.1-0.2-3.1c-0.1-1.4-0.3-2.8-0.5-4.2c-0.1-0.8-0.2-1.7-0.4-2.5c-0.3-1.5-0.6-3.1-1-4.6
		c-0.2-0.7-0.3-1.4-0.5-2c-0.4-1.6-1-3.1-1.5-4.6c-0.2-0.6-0.5-1.3-0.7-1.9c-0.6-1.4-1.2-2.8-1.9-4.2c-0.4-0.7-0.7-1.5-1.1-2.2
		c-0.6-1.1-1.3-2.2-1.9-3.4c-0.5-0.9-1-1.8-1.6-2.7c-0.5-0.8-1.1-1.5-1.6-2.3c-0.8-1.1-1.6-2.2-2.5-3.3c0,0,0,0,0,0
		c-1.4-1.7-2.8-3.3-4.3-4.8c-1.5-1.5-3-2.8-4.6-4.1c-0.1-0.1-0.2-0.2-0.3-0.2c-1-0.8-2.1-1.6-3.1-2.3c-0.8-0.6-1.7-1.2-2.5-1.8
		c-0.8-0.5-1.6-0.9-2.3-1.4c-1.2-0.8-2.5-1.5-3.8-2.2c-0.6-0.3-1.1-0.6-1.7-0.8c-1.5-0.8-3.1-1.5-4.7-2.1c-0.4-0.2-0.9-0.3-1.3-0.5
		c-1.7-0.6-3.5-1.2-5.2-1.7c-0.5-0.1-0.9-0.2-1.4-0.4c-1.7-0.4-3.4-0.8-5.2-1.1c-0.6-0.1-1.3-0.2-2-0.3c-1.5-0.2-3.1-0.4-4.6-0.5
		c-0.9-0.1-1.9-0.1-2.8-0.1c-0.8,0-1.5-0.1-2.3-0.1c-0.5,0-1.1,0.1-1.6,0.1c-0.5,0-1,0-1.5,0l-2.3,0.1l-0.1,0.1
		c-34.7,2.8-62.1,31.9-62.1,67.4c0,37.3,30.3,67.6,67.6,67.6c16.9,0,32.4-6.3,44.3-16.6c0.2-0.1,0.4-0.2,0.5-0.3
		c0.1-0.1,0.1-0.2,0.2-0.3c12.5-11.2,20.8-26.9,22.3-44.6l0.1-0.1l0.1-2.6c0-0.5,0-1,0-1.5c0-0.5,0.1-1,0.1-1.6
		C-242.5,232.9-242.6,232.2-242.6,231.5z"/>
	<path class="st3" d="M-402.3,144.5v243.1H-92V144.5H-402.3z M-164.4,173.6c2.2-2.2,6.2-2.2,8.4,0c1.1,1.1,1.7,2.6,1.7,4.2
		c0,1.5-0.6,3.1-1.7,4.2c-1.1,1.1-2.6,1.7-4.2,1.7s-3.1-0.6-4.2-1.7c-1.1-1.1-1.7-2.6-1.7-4.2C-166.1,176.2-165.4,174.7-164.4,173.6
		z M-195.5,171.9h11.8c3.3,0,5.9,2.6,5.9,5.9s-2.6,5.9-5.9,5.9h-11.8c-3.3,0-5.9-2.6-5.9-5.9S-198.7,171.9-195.5,171.9z
		 M-277.8,360.1h-88.2c-3.3,0-5.9-2.6-5.9-5.9s2.6-5.9,5.9-5.9h88.2c3.3,0,5.9,2.6,5.9,5.9S-274.6,360.1-277.8,360.1z M-371.9,330.7
		c0-3.3,2.6-5.9,5.9-5.9h58.8c3.3,0,5.9,2.6,5.9,5.9c0,3.3-2.6,5.9-5.9,5.9h-58.8C-369.3,336.6-371.9,333.9-371.9,330.7z
		 M-242.6,236.8l-0.1,2.6l-0.1,0.1c-1.5,17.7-9.8,33.4-22.3,44.6c-0.1,0.1-0.1,0.2-0.2,0.3c-0.2,0.2-0.4,0.2-0.5,0.3
		c-11.9,10.3-27.3,16.6-44.3,16.6c-37.3,0-67.6-30.3-67.6-67.6c0-35.4,27.4-64.5,62.1-67.4l0.1-0.1l2.3-0.1c0.5,0,1,0,1.5,0
		c0.5,0,1.1-0.1,1.6-0.1c0.8,0,1.5,0.1,2.3,0.1c0.9,0,1.9,0.1,2.8,0.1c1.6,0.1,3.1,0.3,4.6,0.5c0.7,0.1,1.3,0.2,2,0.3
		c1.8,0.3,3.5,0.7,5.2,1.1c0.5,0.1,0.9,0.2,1.4,0.4c1.8,0.5,3.5,1.1,5.2,1.7c0.4,0.2,0.9,0.3,1.3,0.5c1.6,0.6,3.2,1.3,4.7,2.1
		c0.6,0.3,1.1,0.5,1.7,0.8c1.3,0.7,2.5,1.4,3.8,2.2c0.8,0.5,1.6,0.9,2.3,1.4c0.9,0.6,1.7,1.2,2.5,1.8c1,0.8,2.1,1.5,3.1,2.3
		c0.1,0.1,0.2,0.2,0.3,0.2c1.6,1.3,3.1,2.7,4.6,4.1c1.5,1.5,3,3.2,4.3,4.8c0,0,0,0,0,0c0.9,1.1,1.7,2.2,2.5,3.3
		c0.5,0.8,1.1,1.5,1.6,2.3c0.6,0.9,1.1,1.8,1.6,2.7c0.7,1.1,1.3,2.2,1.9,3.4c0.4,0.7,0.7,1.5,1.1,2.2c0.7,1.4,1.3,2.7,1.9,4.2
		c0.3,0.6,0.5,1.3,0.7,1.9c0.6,1.5,1.1,3,1.5,4.6c0.2,0.7,0.4,1.4,0.5,2c0.4,1.5,0.7,3,1,4.6c0.1,0.8,0.3,1.7,0.4,2.5
		c0.2,1.4,0.4,2.8,0.5,4.2c0.1,1,0.1,2.1,0.2,3.1c0,0.7,0.1,1.4,0.1,2.1c0,0.5-0.1,1.1-0.1,1.6
		C-242.6,235.7-242.6,236.2-242.6,236.8z M-207.2,360.1c0,3.3-2.6,5.9-5.9,5.9c-3.3,0-5.9-2.6-5.9-5.9v-17.6c0-3.3,2.6-5.9,5.9-5.9
		c3.3,0,5.9,2.6,5.9,5.9V360.1z M-201.4,207.2c0-3.3,2.6-5.9,5.9-5.9h47.1c3.3,0,5.9,2.6,5.9,5.9c0,3.3-2.6,5.9-5.9,5.9h-47.1
		C-198.7,213-201.4,210.4-201.4,207.2z M-183.7,360.1c0,3.3-2.6,5.9-5.9,5.9c-3.3,0-5.9-2.6-5.9-5.9v-41.2c0-3.3,2.6-5.9,5.9-5.9
		c3.3,0,5.9,2.6,5.9,5.9V360.1z M-160.2,360.1c0,3.3-2.6,5.9-5.9,5.9c-3.3,0-5.9-2.6-5.9-5.9v-29.4c0-3.3,2.6-5.9,5.9-5.9
		c3.3,0,5.9,2.6,5.9,5.9V360.1z M-136.6,360.1c0,3.3-2.6,5.9-5.9,5.9c-3.3,0-5.9-2.6-5.9-5.9v-70.6c0-3.3,2.6-5.9,5.9-5.9
		c3.3,0,5.9,2.6,5.9,5.9V360.1z M-119,183.6h-17.6c-3.3,0-5.9-2.6-5.9-5.9s2.6-5.9,5.9-5.9h17.6c3.3,0,5.9,2.6,5.9,5.9
		S-115.7,183.6-119,183.6z"/>
</g>
<g>
	<g>
		<path class="st0" d="M141.2,344.3H70.6c-4.9,0-8.8,4-8.8,8.8s4,8.8,8.8,8.8h70.6c4.9,0,8.8-4,8.8-8.8
			C150.1,348.2,146.1,344.3,141.2,344.3z"/>
		<path class="st0" d="M123.6,379.6H88.3c-4.9,0-8.8,4-8.8,8.8s4,8.8,8.8,8.8h35.3c4.9,0,8.8-4,8.8-8.8
			C132.4,383.5,128.5,379.6,123.6,379.6z"/>
		<path d="M161.6,326.6H50.3c-3.4,0-6.2,2.8-6.2,6.2v76c0,3.4,2.8,6.2,6.2,6.2h111.3c3.4,0,6.2-2.8,6.2-6.2v-76
			C167.7,329.4,165,326.6,161.6,326.6z M123.6,397.2H88.3c-4.9,0-8.8-4-8.8-8.8s4-8.8,8.8-8.8h35.3c4.9,0,8.8,4,8.8,8.8
			C132.4,393.3,128.5,397.2,123.6,397.2z M141.2,361.9H70.6c-4.9,0-8.8-4-8.8-8.8s4-8.8,8.8-8.8h70.6c4.9,0,8.8,4,8.8,8.8
			C150.1,358,146.1,361.9,141.2,361.9z"/>
	</g>
</g>
</svg>
