<?xml version="1.0" encoding="utf-8"?>
<!-- Generator: Adobe Illustrator 21.1.0, SVG Export Plug-In . SVG Version: 6.00 Build 0)  -->
<svg version="1.1" id="Layer_1" xmlns="http://www.w3.org/2000/svg" xmlns:xlink="http://www.w3.org/1999/xlink" x="0px" y="0px"
	 viewBox="0 0 1051.9 654.4" style="enable-background:new 0 0 1051.9 654.4;" xml:space="preserve">
<style type="text/css">
	.st0{fill:#FCC72C;stroke:#231F20;stroke-width:8;stroke-miterlimit:10;}
	.st1{fill:#B66B4E;stroke:#231F20;stroke-width:8;stroke-linecap:round;stroke-linejoin:round;}
	.st2{fill:#FFF4E3;stroke:#231F20;stroke-miterlimit:10;}
	.st3{fill:#FCC72C;stroke:#231F20;stroke-miterlimit:10;}
	.st4{fill:#D95127;stroke:#231F20;stroke-miterlimit:10;}
	.st5{fill:#0098A3;stroke:#231F20;stroke-miterlimit:10;}
	.st6{fill:#B66B4E;stroke:#231F20;stroke-miterlimit:10;}
	.st7{fill:#205193;stroke:#231F20;stroke-miterlimit:10;}
	.st8{fill:#CA634C;stroke:#231F20;stroke-miterlimit:10;}
	.st9{fill:#F7941D;stroke:#231F20;stroke-miterlimit:10;}
	.st10{fill:#166491;stroke:#231F20;stroke-miterlimit:10;}
	.st11{fill:#FDE94D;stroke:#231F20;stroke-miterlimit:10;}
	.st12{fill:#F7941D;}
	.st13{fill:none;stroke:#231F20;stroke-miterlimit:10;}
	.st14{fill:#166491;}
	.st15{fill:none;stroke:#231F20;stroke-width:2;stroke-miterlimit:10;}
	.st16{fill:#FCC72C;stroke:#231F20;stroke-width:2;stroke-miterlimit:10;}
	.st17{fill:#231F20;}
</style>
<title>logo</title>
<polygon class="st0" points="144.1,576.5 113.5,576.5 113.5,542.9 97.7,542.9 97.7,621.3 113.5,621.3 113.5,589.8 144.1,589.8 
	144.1,621.3 159.9,621.3 159.9,542.9 144.1,542.9 "/>
<path class="st0" d="M228.5,541.8c-20.8,0-34.7,9.6-34.7,40.3s13.9,40.3,34.7,40.3s34.8-9.6,34.8-40.3S249.5,541.8,228.5,541.8z
	 M228.5,609.1c-11.3,0-18.9-5.7-18.9-27s7.6-27,18.9-27c11.3,0,19,5.7,19,27S240,609.1,228.5,609.1L228.5,609.1z"/>
<path class="st0" d="M344.8,596c0,9.6-8,13.1-15.9,13.1c-8,0-15.8-3.5-15.8-13.1v-53.1h-15.8V596c0,19.1,15.8,26.4,31.6,26.4
	c15.8,0,31.7-7.2,31.7-26.4v-53.1h-15.8V596z"/>
<path class="st0" d="M411.8,562.8c0-5.3,5-7.7,11.5-7.7c7.6,0,15.2,1.8,21.9,5.4l5.3-12.5c-8.5-4.1-17.8-6.2-27.2-6.2
	c-15.1,0-27.3,6.6-27.3,21c0,33.5,40.5,19.3,40.5,36.1c0,7.6-5.8,10.2-13.8,10.2c-9.1,0-14.3-1.6-22.6-6.9l-6.2,12.7
	c8.8,5,18.8,7.6,28.9,7.6c16.2,0,29.5-5.8,29.5-24C452.4,566.2,411.8,581.9,411.8,562.8z"/>
<polygon class="st0" points="502,588.7 535.5,588.7 535.5,575.4 502,575.4 502,556.2 537.1,556.2 537.1,542.9 486.2,542.9 
	486.2,621.3 538.3,621.3 538.3,608 502,608 "/>
<path class="st0" d="M660.7,597.1c14.9-15.3,21.4-21.6,21.4-35.1c0-11.4-10.4-20.3-25.8-20.3s-27,8.2-28.3,23l15.8,3.4
	c0.3-7.8,3.9-13,12.1-13c5.8,0,10.4,2.1,10.4,7.7c0,7-6.5,13.2-12.8,19.7l-27.3,28.3v10.5h59.1v-14.7h-33.8L660.7,597.1z"/>
<path class="st0" d="M745.3,541.8c-22.4,0-30.5,12.5-30.5,40.3s8.1,40.3,30.5,40.3s30.6-12.5,30.6-40.3S767.8,541.8,745.3,541.8z
	 M745.3,607.7c-11.8,0-14.7-9-14.7-25.6c0-17.5,2.9-27,14.7-27s14.8,9.5,14.8,27C760.1,598.8,757.1,607.7,745.3,607.7L745.3,607.7z"
	/>
<polygon class="st0" points="844.6,541.8 836,541.8 810.6,553.3 816,566.5 828.8,560.6 828.8,608 813.5,608 813.5,621.3 860,621.3 
	860,608 844.6,608 "/>
<polygon class="st0" points="894.3,542.9 894.3,557.6 934.2,557.6 907.5,621.3 924.5,621.3 954.4,550.4 954.4,542.9 "/>
<path class="st1" d="M480.7,238.5l4.1-2.5v-36.4l-31-18.1l-30.9,18.3v-0.2l-30.9-18.1L361,199.9v-0.3l-31-18.1l-31,18.3v218.3
	l-30.8,18.3v36.5l31,18.3l31.1,18.3l30.8-18.6l-0.1-36.5v-35.5l0.1,0.1l30.8-18.6v0.3l31.1,18.2v0.3l31-18.3v-0.2l30.9-18.6v-36.2
	l30.8-18.6v-72.8l-31-18.1L480.7,238.5z M392,363.7L361,345.6v-36.9l-0.1-0.1l0.1-0.1v-36.3l-0.1-0.1l0.1-0.1v-35.7l31.1,18.3
	l30.8-18.6v0.4l30.9,18.2v72.8l0.1,0.1l-31,18.2L392,363.9L392,363.7z M423,382.4v-0.2l0.2,0.1L423,382.4z"/>
<path class="st1" d="M681.6,201.2v-0.2l-31-18.1l-31,18.2v-0.2L588.8,183l-31,18.2l31.1,18.3l0,0l-31.1-18.3v146l0,0v36.5l0,0v109.6
	l31.1,18.3l30.8-18.6v-0.1l31.1,18.3l30.8-18.6v0.3l31.1,18.3l30.8-18.6v-36.4l-31-18.1l-31,18.2v-0.2l-30.9-18.1l-31,18.2v-36.3
	l-0.2-0.1l0.2-0.1v-36.1l30.7-18.5l0,0l31.1,18.2l0,0l30.9-18.5v-36.3l-31-18.3l-31,18.4l0,0l-30.4-18.4v-36.3l-0.1-0.1l0.1-0.1
	v-36.2l31.1,18.3l30.8-18.6v0.3l31.1,18.3l30.8-18.6v-36.3l-31-18.1L681.6,201.2z M619.4,347.3l0.1-0.1l0,0L619.4,347.3z
	 M619.7,456.6l-0.2-0.1l0.2-0.1V456.6z M619.7,237.6l-0.1-0.1l0.1-0.1V237.6z"/>
<path class="st1" d="M196.1,217.6l-31-18.1l-31-18.4l-30.9,18.4l0,0l-30.8,18.3l-0.1-0.1l-0.1,0.1l-30.8-18l-30.9,18.3v255.5
	l30.9,18.2v0.1l31.1,18.2l30.9-18.2l30.8-18.6v0.2l31.1,18.3v0.2l31.2-18.1v-0.2l0,0l30.6-18.9v-36.3H227h0.1v-36.4l-0.1,0l0.2-0.1
	v-36.4l-0.1-0.1l0.1-0.1v-73.2l-0.1-36.5L196.1,217.6z M72.2,254.3L72.2,254.3l0.3,0.1l-0.1,0.1L72.2,254.3z M103.3,236L103.3,236
	L103.3,236L103.3,236z M103.2,418.9l-30.8,18.2v-73.4l-0.3,0.2l0,0l0.3-0.2v-36.4l-0.2,0.1l0,0l0.2-0.1V291l30.9-18.4l30.7-18.5h0.1
	v0.3l31.1,18.3v109.6l-0.1,0.1v36.5l-31,18.3L103.2,418.9z M165.2,455.2l0.1-0.1v0.1l-0.1,0.1V455.2z"/>
<path class="st1" d="M1015.4,181.6l-31,18.3v73l0,0v109l-30.9-18.4V327l-31-18.1v-36.3l-31-18.6v-36.3l-30.9-18.1l-31-18.1
	l-30.9,18.3v291.7l31.1,18.3l30.8-18.6v-36.4l-0.1-0.1l0.1-0.1v-36.3l-0.1-0.1l0.1-0.1v-36.3l-0.2-0.1l0.2-0.1v-72.5l-0.1-0.1
	l0.1-0.1v-0.1l30.9,18.6v36.2l31.1,18.2v36.5l30.8,18.2v36.4l30.9,18.2v0.2l31.1,18.3l30.9-18.6V199.7L1015.4,181.6z M860.8,272.6
	L860.8,272.6L860.8,272.6L860.8,272.6L860.8,272.6z"/>
<polygon class="st2" points="299.1,417.9 268.1,436.2 299.2,454.4 330,436 "/>
<polygon class="st3" points="268.1,472.7 268.1,436.2 299.2,454.4 299.2,490.9 "/>
<polygon class="st4" points="330,436 299.2,454.4 299.2,490.9 330,472.4 "/>
<polygon class="st5" points="330.1,436.2 299.2,454.4 330.3,472.7 360.9,454.1 "/>
<polygon class="st3" points="299.2,490.9 299.2,454.4 330.3,472.7 330.3,509.2 "/>
<polygon class="st6" points="361,454.1 330.3,472.7 330.3,509.2 361.1,490.6 "/>
<polygon class="st5" points="330,399.7 299.1,417.9 330.1,436.2 361,417.8 "/>
<polygon class="st3" points="299.1,454.4 299.1,417.9 330.1,436.2 330.3,472.8 "/>
<polygon class="st6" points="361,417.8 330.1,436.2 330.3,472.7 361,454.1 "/>
<polygon class="st5" points="330,363.2 299.1,381.4 330.1,399.7 361,381.2 "/>
<polygon class="st3" points="299.1,417.9 299.1,381.4 330.1,399.7 330.1,436.2 "/>
<polygon class="st6" points="361,381.2 330.1,399.7 330.1,436.2 361,417.6 "/>
<polygon class="st5" points="330,327.1 299.1,345.4 330.1,363.6 361,345.6 "/>
<polygon class="st3" points="299.1,381.9 299.1,345.4 330.1,363.6 330.1,400.1 "/>
<polygon class="st7" points="361,345.6 330.1,363.6 330.1,400.1 361,381.5 "/>
<polygon class="st5" points="330,290.6 299.1,308.9 330.1,327.1 361,308.7 "/>
<polygon class="st3" points="299.1,345.4 299.1,308.9 330.1,327.1 330.1,363.6 "/>
<polygon class="st6" points="361,308.7 330.1,327.1 330.1,363.6 361,345.6 "/>
<polygon class="st5" points="330,254.1 299.1,272.4 330.1,290.6 361,272.2 "/>
<polygon class="st3" points="299.1,308.9 299.1,272.4 330.1,290.6 330.1,327.1 "/>
<polygon class="st8" points="361,272.2 330.1,290.6 330.1,327.1 361,308.5 "/>
<polygon class="st5" points="330,217.6 299.1,235.9 330.1,254.1 361,235.7 "/>
<polygon class="st3" points="299.1,272.4 299.1,235.9 330.1,254.1 330.1,290.6 "/>
<polygon class="st8" points="361,235.7 330.1,254.1 330.1,290.6 361,272 "/>
<polygon class="st2" points="330,181.4 299.1,199.7 330.1,217.9 361,199.5 "/>
<polygon class="st3" points="299.1,236.2 299.1,199.7 330.1,217.9 330.1,254.5 "/>
<polygon class="st8" points="361,199.5 330.1,217.9 330.1,254.5 361,235.9 "/>
<polygon class="st2" points="391.9,181.6 361,199.9 392.1,218.1 422.9,199.7 "/>
<polygon class="st3" points="361,236.4 361,199.9 392.1,218.1 392.1,254.6 "/>
<polygon class="st6" points="422.9,199.7 392.1,218.1 392.1,254.6 422.9,236 "/>
<polygon class="st2" points="361,345.6 330,363.9 361.1,382.1 391.9,363.7 "/>
<polygon class="st3" points="330,400.4 330,363.9 361.1,382.1 361.1,418.6 "/>
<polygon class="st6" points="391.9,363.7 361.1,382.1 361.1,418.6 391.9,400.1 "/>
<polygon class="st2" points="454,327.4 422.9,345.6 454.1,363.9 484.9,345.5 "/>
<polygon class="st9" points="423,382.1 422.9,345.6 454.1,363.9 454.1,400.4 "/>
<polygon class="st6" points="484.9,345.5 454.1,363.9 454.1,400.4 484.9,381.8 "/>
<polygon class="st5" points="484.8,272.6 453.8,290.9 484.9,309.1 515.8,290.7 "/>
<polygon class="st3" points="453.8,327.4 453.8,290.9 484.9,309.1 484.9,345.6 "/>
<polygon class="st6" points="515.8,290.7 484.9,309.1 484.9,345.6 515.8,327 "/>
<polygon class="st2" points="484.8,236.1 453.8,254.4 484.9,272.6 515.8,254.2 "/>
<polygon class="st3" points="453.8,290.9 453.8,254.4 484.9,272.6 484.9,309.1 "/>
<polygon class="st6" points="515.8,254.2 484.9,272.6 484.9,309.1 515.8,290.7 "/>
<polygon class="st2" points="422.9,345.6 391.9,363.9 423,382.1 454.1,363.9 "/>
<polygon class="st3" points="391.9,400.4 391.9,363.9 423,382.1 423,418.6 "/>
<polygon class="st6" points="454.1,364.1 423,382.4 423,418.9 454.1,400.6 "/>
<polygon class="st2" points="453.8,181.6 422.9,199.9 454,218.1 484.8,199.7 "/>
<polygon class="st3" points="422.9,236.4 422.9,199.9 454,218.1 454,254.6 "/>
<polygon class="st6" points="484.8,199.7 454,218.1 454,254.6 484.8,236 "/>
<polygon class="st5" points="588.8,438.5 557.8,456.8 588.9,475 619.8,456.6 "/>
<polygon class="st3" points="557.8,493.3 557.8,456.8 588.9,475 588.9,511.5 "/>
<polygon class="st10" points="619.8,456.6 588.9,475 588.9,511.5 619.8,492.9 "/>
<polygon class="st5" points="588.8,402 557.8,420.3 588.9,438.5 619.8,420.1 "/>
<polygon class="st3" points="557.8,456.8 557.8,420.3 588.9,438.5 588.9,475 "/>
<polygon class="st10" points="619.8,420.1 588.9,438.5 588.9,475 619.8,456.4 "/>
<polygon class="st9" points="619.3,347.1 619.3,310.6 650.2,328.8 650.3,365.3 "/>
<polygon class="st4" points="681.2,310.4 650.3,328.8 650.3,365.3 681.2,346.7 "/>
<polygon class="st2" points="681.2,310.4 650.2,328.8 681.3,347.1 712.1,328.7 "/>
<polygon class="st3" points="650.2,365.3 650.2,328.8 681.3,347.1 681.3,383.6 "/>
<polygon class="st10" points="712.1,328.7 681.3,347.1 681.3,383.6 712.1,365 "/>
<polygon class="st5" points="588.8,365.5 557.8,383.8 588.9,402 619.8,383.6 "/>
<polygon class="st3" points="557.8,420.3 557.8,383.8 588.9,402 588.9,438.5 "/>
<polygon class="st10" points="619.8,383.6 588.9,402 588.9,438.5 619.8,419.9 "/>
<polygon class="st2" points="619.8,310.4 588.3,329 619.4,347.2 650.2,328.8 "/>
<polygon class="st11" points="588.3,365.5 588.3,329 619.4,347.2 619.4,383.8 "/>
<polygon class="st10" points="650.2,328.8 619.8,347.1 619.8,383.8 650.2,365.3 "/>
<polygon class="st5" points="588.8,329 557.8,347.2 588.9,365.5 619.4,347.2 "/>
<polygon class="st3" points="557.8,383.8 557.8,347.2 588.9,365.5 588.9,402 "/>
<polygon class="st10" points="619.8,347.1 588.9,365.5 588.9,402 619.8,383.6 "/>
<polygon class="st5" points="588.8,292.5 557.8,310.7 588.9,329 619.8,310.6 "/>
<polygon class="st3" points="557.8,347.3 557.8,310.7 588.9,329 588.9,365.5 "/>
<polygon class="st10" points="619.8,310.4 588.9,322.5 588.8,365.5 619.8,347.1 "/>
<polygon class="st5" points="588.8,256 557.8,274.2 588.9,292.5 619.8,274.1 "/>
<polygon class="st3" points="557.8,310.7 557.8,274.2 588.9,292.5 588.9,329 "/>
<polygon class="st10" points="619.8,274.1 588.9,292.5 588.9,329 619.8,310.4 "/>
<polygon class="st5" points="588.8,219.5 557.8,237.7 588.9,256 619.8,237.6 "/>
<polygon class="st3" points="557.8,274.2 557.8,237.7 588.9,256 588.9,292.5 "/>
<polygon class="st10" points="619.8,237.6 588.9,256 588.9,292.5 619.8,273.9 "/>
<polygon class="st2" points="588.8,183 557.8,201.2 588.9,219.5 619.8,201.1 "/>
<polygon class="st3" points="557.8,237.7 557.8,201.2 588.9,219.5 588.9,256 "/>
<polygon class="st10" points="619.8,201.1 588.9,219.5 588.9,256 619.8,237.4 "/>
<polygon class="st2" points="650.7,183 619.8,201.2 650.8,219.5 681.7,201.1 "/>
<polygon class="st3" points="619.8,237.7 619.8,201.2 650.8,219.5 650.8,256 "/>
<polygon class="st10" points="681.7,201.1 650.8,219.5 650.8,256 681.7,237.4 "/>
<polygon class="st2" points="712.6,183 681.7,201.2 712.7,219.5 743.6,201.1 "/>
<polygon class="st3" points="681.7,237.7 681.7,201.2 712.7,219.5 712.7,256 "/>
<polygon class="st10" points="743.6,201.1 712.7,219.5 712.7,256 743.6,237.4 "/>
<polygon class="st2" points="650.7,438.1 619.8,456.4 650.8,474.6 681.6,456.2 "/>
<polygon class="st3" points="619.8,492.9 619.8,456.4 650.8,474.6 650.8,511.1 "/>
<polygon class="st10" points="681.6,456.2 650.8,474.6 650.8,511.1 681.6,492.5 "/>
<polygon class="st2" points="712.6,438.1 681.6,456.4 712.7,474.6 743.6,456.2 "/>
<polygon class="st3" points="681.6,492.9 681.6,456.4 712.7,474.6 712.7,511.1 "/>
<polygon class="st10" points="743.6,456.2 712.7,474.6 712.7,511.1 743.6,492.5 "/>
<polygon class="st5" points="41.3,418.9 10.4,437.1 41.4,455.4 72.3,437 "/>
<polygon class="st3" points="10.4,473.7 10.4,437.1 41.4,455.4 41.4,491.9 "/>
<polygon class="st4" points="72.3,437 41.4,455.4 41.4,491.9 72.3,473.3 "/>
<polygon class="st2" points="103.2,418.9 72.3,437.1 103.3,455.4 134.1,437 "/>
<polygon class="st9" points="72.3,473.7 72.3,437.1 103.3,455.4 103.3,491.9 "/>
<polygon class="st10" points="134.1,437 103.3,455.4 103.3,491.9 134.1,473.3 "/>
<polygon class="st5" points="196.3,400.6 165.3,418.9 196.4,437.1 227,418.4 "/>
<polygon class="st9" points="165.3,455.4 165.3,418.9 196.4,437.1 196.4,473.7 "/>
<polygon class="st10" points="227,418.4 196.2,437 196.4,473.7 227,454.8 "/>
<polygon class="st2" points="165.1,418.7 134.1,437 165.2,455.2 196.2,437 "/>
<polygon class="st3" points="134.1,473.5 134.1,437 165.2,455.2 165.2,491.8 "/>
<polygon class="st10" points="196.2,437.1 165.2,455.4 165.2,491.9 196.4,473.8 "/>
<polygon class="st2" points="72.2,437.2 41.4,455.4 72.3,473.7 103.3,455.4 "/>
<polygon class="st3" points="41.3,491.9 41.4,455.4 72.4,473.7 72.4,510.2 "/>
<polygon class="st10" points="103.3,455.4 72.4,473.7 72.4,510.2 103.3,491.9 "/>
<polygon class="st5" points="41.3,382.4 10.4,400.6 41.4,418.9 72.3,400.5 "/>
<polygon class="st3" points="10.4,437.1 10.4,400.6 41.4,418.9 41.4,455.4 "/>
<polygon class="st10" points="72.4,400 41.4,418.9 41.4,455.4 72.4,437.2 "/>
<polygon class="st5" points="196.1,364 165.1,382.2 196.2,400.5 227,382 "/>
<polygon class="st3" points="165.1,418.7 165.1,382.2 196.2,400.5 196.2,437 "/>
<polygon class="st10" points="227,382 196.2,400.5 196.2,437 227,418.4 "/>
<polygon class="st5" points="41.3,345.9 10.4,364.1 41.4,382.4 72.3,364 "/>
<polygon class="st3" points="10.4,400.6 10.4,364.1 41.4,382.4 41.4,418.9 "/>
<polygon class="st10" points="72.4,363.7 41.4,382.4 41.4,418.9 72.4,400 "/>
<polygon class="st5" points="41.3,309.4 10.4,327.6 41.4,345.9 72.3,327.5 "/>
<polygon class="st3" points="10.4,364.1 10.4,327.6 41.4,345.9 41.4,382.4 "/>
<polygon class="st10" points="72.4,327.3 41.4,345.9 41.4,382.4 72.4,363.6 "/>
<polygon class="st5" points="41.3,272.9 10.4,291.1 41.4,309.4 72.3,291 "/>
<polygon class="st3" points="10.4,327.6 10.4,291.1 41.4,309.4 41.4,345.9 "/>
<polygon class="st10" points="72.4,291 41.4,309.4 41.4,345.9 72.4,327.3 "/>
<polygon class="st5" points="41.3,236.4 10.4,254.6 41.4,272.9 72.3,254.5 "/>
<polygon class="st3" points="10.4,291.1 10.4,254.6 41.4,272.9 41.4,309.4 "/>
<polygon class="st10" points="72.3,254.5 41.4,272.9 41.4,309.4 72.4,291 "/>
<polygon class="st2" points="41.3,199.9 10.4,218.1 41.4,236.4 72.3,217.9 "/>
<polygon class="st3" points="10.4,254.6 10.4,218.1 41.4,236.4 41.4,272.9 "/>
<polygon class="st4" points="72.3,217.9 41.4,236.4 41.4,272.9 72.3,254.3 "/>
<polygon class="st2" points="134.1,181.1 103.2,199.5 134.1,217.6 165.1,199.5 "/>
<polygon class="st9" points="103.2,235.9 103.2,199.5 134.1,217.6 134.3,254.1 "/>
<polygon class="st7" points="165.1,199.5 134.1,217.6 134.3,254.1 165.1,235.5 "/>
<polygon class="st2" points="165.1,199.5 134.1,217.6 165.2,236 196.1,217.6 "/>
<polygon class="st3" points="134.1,254.3 134.1,217.6 165.2,236 165.2,272.5 "/>
<polygon class="st7" points="196.1,217.6 165.2,236 165.2,272.5 196.1,253.9 "/>
<polygon class="st5" points="196.2,327.5 165.2,345.7 196.3,364 227.1,345.5 "/>
<polygon class="st3" points="165.2,382.2 165.2,345.7 196.3,364 196.3,400.5 "/>
<polygon class="st10" points="227.1,345.5 196.3,364 196.3,400.5 227.1,381.9 "/>
<polygon class="st5" points="196.2,291 165.2,309.2 196.3,327.5 227.1,309 "/>
<polygon class="st3" points="165.2,345.7 165.2,309.2 196.3,327.5 196.3,364 "/>
<polygon class="st10" points="227.1,309 196.3,327.5 196.3,364 227.1,345.4 "/>
<polygon class="st5" points="196.2,254.1 165.2,272.4 196.3,290.6 227.1,272.2 "/>
<polygon class="st3" points="165.2,309.2 165.2,272.4 196.3,290.6 196.3,327.5 "/>
<polygon class="st10" points="227.1,272.2 196.3,290.6 196.3,327.5 227.1,309 "/>
<polygon class="st2" points="196.1,217.6 165.1,235.9 196.2,254.1 227,235.7 "/>
<polygon class="st3" points="165.1,272.4 165.1,235.9 196.2,254.1 196.3,290.6 "/>
<polygon class="st10" points="227,235.7 196.2,254.1 196.3,290.6 227.1,272.2 "/>
<polygon class="st2" points="103.2,199.5 72.3,217.9 103.3,236 134.1,217.6 "/>
<polygon class="st9" points="72.3,254.3 72.3,217.9 103.3,236 103.3,272.5 "/>
<polygon class="st10" points="134.1,217.6 103.3,236 103.3,272.5 134.1,253.9 "/>
<polygon class="st2" points="72.3,217.8 41.3,236 72.4,254.3 103.3,235.9 "/>
<polygon class="st3" points="41.3,272.7 41.3,236.2 72.4,254.5 72.4,291 "/>
<polygon class="st10" points="103.3,236 72.4,254.5 72.4,291 103.3,272.5 "/>
<polygon class="st5" points="829.7,436.7 798.8,455 829.9,473.2 860.7,454.8 "/>
<polygon class="st3" points="798.8,491.5 798.8,455 829.9,473.2 829.9,509.7 "/>
<polygon class="st6" points="860.7,454.8 829.9,473.2 829.9,509.7 860.7,491.1 "/>
<polygon class="st12" points="1015.5,436.7 1015.5,400.2 1046.4,418.3 1046.4,454.9 "/>
<polygon class="st13" points="1015.5,436.7 1015.5,400.2 1046.4,418.3 1046.4,454.9 "/>
<polygon class="st5" points="829.7,400.2 798.8,418.5 829.9,436.7 860.7,418.3 "/>
<polygon class="st3" points="798.8,455 798.8,418.5 829.9,436.7 829.9,473.2 "/>
<polygon class="st6" points="860.7,418.3 829.9,436.7 829.9,473.2 860.7,454.6 "/>
<polygon class="st5" points="829.7,363.7 798.8,382 829.9,400.2 860.7,381.8 "/>
<polygon class="st3" points="798.8,418.5 798.8,382 829.9,400.2 829.9,436.7 "/>
<polygon class="st6" points="860.7,381.8 829.9,400.2 829.9,436.7 860.7,418.1 "/>
<polygon class="st5" points="829.7,327.2 798.8,345.5 829.9,363.7 860.7,345.3 "/>
<polygon class="st3" points="798.8,382 798.8,345.5 829.9,363.7 829.9,400.2 "/>
<polygon class="st6" points="860.7,345.3 829.9,363.7 829.9,400.2 860.7,381.6 "/>
<polygon class="st5" points="829.7,291.1 798.8,309.3 829.9,327.6 860.7,309.2 "/>
<polygon class="st3" points="798.8,345.8 798.8,309.3 829.9,327.6 829.9,364.1 "/>
<polygon class="st6" points="860.7,309.2 829.9,327.6 829.9,364.1 860.7,345.5 "/>
<polygon class="st5" points="1015.4,436.7 984.5,455 1015.5,473.2 1046.4,454.8 "/>
<polygon class="st3" points="984.5,491.5 984.5,455 1015.5,473.2 1015.5,509.7 "/>
<polygon class="st6" points="1046.4,454.8 1015.5,473.2 1015.5,509.7 1046.4,491.1 "/>
<polygon class="st5" points="1015.4,400.2 984.5,418.5 1015.5,436.7 1046.4,418.3 "/>
<polygon class="st9" points="984.5,455 984.5,418.5 1015.5,436.7 1015.5,473.2 "/>
<polygon class="st6" points="1046.4,418.4 1015.5,436.4 1015.5,473.3 1046.4,454.7 "/>
<polygon class="st5" points="1015.4,363.7 984.5,382 1015.5,400.2 1046.4,381.8 "/>
<polygon class="st3" points="984.5,418.5 984.5,382 1015.5,400.2 1015.5,436.7 "/>
<polygon class="st6" points="1046.4,381.8 1015.5,400.2 1015.5,436.4 1046.4,418.3 "/>
<polygon class="st5" points="1015.4,327.2 984.5,345.5 1015.5,363.7 1046.4,345.3 "/>
<polygon class="st3" points="984.5,382 984.5,345.5 1015.5,363.7 1015.5,400.2 "/>
<polygon class="st6" points="1046.4,345.3 1015.5,363.7 1015.5,400.2 1046.4,381.8 "/>
<polygon class="st5" points="1015.4,291.1 984.5,309.3 1015.5,327.6 1046.4,309.2 "/>
<polygon class="st3" points="984.5,345.8 984.5,309.3 1015.5,327.6 1015.5,364.1 "/>
<polygon class="st6" points="1046.4,309.2 1015.5,327.6 1015.5,364.1 1046.4,345.5 "/>
<polygon class="st5" points="1015.4,254.6 984.5,272.8 1015.5,291.1 1046.4,272.6 "/>
<polygon class="st3" points="984.5,309.3 984.5,272.8 1015.5,291.1 1015.5,327.6 "/>
<polygon class="st6" points="1046.4,272.6 1015.5,291.1 1015.5,327.6 1046.4,309.2 "/>
<polygon class="st5" points="1015.4,218.1 984.5,236.3 1015.5,254.6 1046.4,236.1 "/>
<polygon class="st3" points="984.5,272.8 984.5,236.3 1015.5,254.6 1015.5,291.1 "/>
<polygon class="st6" points="1046.4,236.1 1015.5,254.6 1015.5,291.1 1046.4,272.6 "/>
<polygon class="st2" points="1015.4,181.6 984.5,199.8 1015.5,218.1 1046.4,199.6 "/>
<polygon class="st3" points="984.5,236.3 984.5,199.8 1015.5,218.1 1015.5,254.6 "/>
<polygon class="st6" points="1046.4,199.6 1015.5,218.1 1015.5,254.6 1046.4,236.1 "/>
<polygon class="st5" points="829.7,254.6 798.8,272.8 829.9,291.1 860.7,272.6 "/>
<polygon class="st3" points="798.8,309.3 798.8,272.8 829.9,291.1 829.9,327.6 "/>
<polygon class="st6" points="860.8,272.6 829.9,291.1 829.9,327.6 860.7,309 "/>
<polygon class="st5" points="829.7,218.1 798.8,236.3 829.9,254.6 860.7,236.2 "/>
<polygon class="st3" points="798.8,272.8 798.8,236.3 829.9,254.6 829.9,291.1 "/>
<polygon class="st6" points="860.7,236.2 829.9,254.6 829.9,291.1 860.8,272.6 "/>
<polygon class="st2" points="829.7,181.6 798.8,199.8 829.9,218.1 860.7,199.6 "/>
<polygon class="st3" points="798.8,236.3 798.8,199.8 829.9,218.1 829.9,254.6 "/>
<polygon class="st4" points="860.7,199.6 829.9,218.1 829.9,254.6 860.7,236 "/>
<polygon class="st2" points="860.7,199.6 829.7,217.9 860.8,236.1 891.6,217.7 "/>
<polygon class="st3" points="829.7,254.3 829.7,217.8 860.8,236 860.8,272.5 "/>
<polygon class="st6" points="891.6,217.7 860.8,236.1 860.8,272.6 891.6,254.1 "/>
<polygon class="st2" points="891.6,254.1 860.8,272.6 891.8,291.1 922.6,272.6 "/>
<polygon class="st3" points="860.7,308.9 860.7,272.5 891.8,291.1 891.8,327.6 "/>
<polygon class="st6" points="922.6,272.6 891.8,291.1 891.8,327.6 922.6,309 "/>
<polygon class="st2" points="922.6,309 891.6,327.2 922.7,345.5 953.6,327 "/>
<polygon class="st3" points="891.6,363.7 891.6,327.2 922.7,345.5 922.7,382 "/>
<polygon class="st6" points="953.6,327 922.7,345.5 922.7,382 953.6,363.4 "/>
<polygon class="st2" points="953.6,363.4 922.7,382 953.7,400.2 984.5,381.8 "/>
<polygon class="st3" points="922.7,418.5 922.7,381.9 953.7,400.2 953.7,436.7 "/>
<polygon class="st6" points="984.5,381.8 953.7,400.2 953.7,436.7 984.5,418.3 "/>
<polygon class="st2" points="984.5,418.3 953.6,436.5 984.6,454.8 1015.5,436.4 "/>
<polygon class="st3" points="953.6,473.1 953.6,436.5 984.6,454.8 984.6,491.3 "/>
<polygon class="st6" points="1015.5,436.5 984.6,454.9 984.6,491.4 1015.5,472.8 "/>
<path class="st14" d="M113.5,576.5h30.6v-33.6h15.8v78.4h-15.8v-31.4h-30.6v31.5H97.7v-78.4h15.8V576.5z"/>
<path class="st15" d="M113.5,576.5h30.6v-33.6h15.8v78.4h-15.8v-31.4h-30.6v31.5H97.7v-78.4h15.8V576.5z"/>
<path class="st14" d="M193.8,582.1c0-30.7,13.9-40.3,34.7-40.3s34.8,9.6,34.8,40.3c0,30.7-13.9,40.3-34.8,40.3
	S193.8,612.8,193.8,582.1z M247.6,582.1c0-21.3-7.6-27-19-27s-18.9,5.7-18.9,27s7.6,27,18.9,27S247.6,603.4,247.6,582.1L247.6,582.1
	z"/>
<path class="st15" d="M193.8,582.1c0-30.7,13.9-40.3,34.7-40.3s34.8,9.6,34.8,40.3c0,30.7-13.9,40.3-34.8,40.3
	S193.8,612.8,193.8,582.1z M247.6,582.1c0-21.3-7.6-27-19-27s-18.9,5.7-18.9,27s7.6,27,18.9,27S247.6,603.4,247.6,582.1L247.6,582.1
	z"/>
<path class="st14" d="M360.6,596c0,19.3-15.9,26.4-31.7,26.4c-15.8,0-31.6-7.3-31.6-26.4v-53.1h15.8V596c0,9.6,7.8,13.1,15.8,13.1
	c7.9,0,15.9-3.5,15.9-13.1v-53.1h15.8L360.6,596z"/>
<path class="st15" d="M360.6,596c0,19.3-15.9,26.4-31.7,26.4c-15.8,0-31.6-7.3-31.6-26.4v-53.1h15.8V596c0,9.6,7.8,13.1,15.8,13.1
	c7.9,0,15.9-3.5,15.9-13.1v-53.1h15.8L360.6,596z"/>
<path class="st14" d="M422.9,622.4c-10.1,0-20.1-2.6-28.9-7.6l6.2-12.7c8.3,5.4,13.5,6.9,22.6,6.9c8,0,13.8-2.6,13.8-10.2
	c0-16.8-40.5-2.6-40.5-36.1c0-14.4,12.2-21,27.3-21c9.4-0.1,18.7,2,27.2,6.2l-5.3,12.5c-6.8-3.5-14.3-5.4-21.9-5.4
	c-6.5,0-11.5,2.5-11.5,7.7c0,19,40.5,3.4,40.5,35.6C452.4,616.5,439.1,622.4,422.9,622.4z"/>
<path class="st15" d="M422.9,622.4c-10.1,0-20.1-2.6-28.9-7.6l6.2-12.7c8.3,5.4,13.5,6.9,22.6,6.9c8,0,13.8-2.6,13.8-10.2
	c0-16.8-40.5-2.6-40.5-36.1c0-14.4,12.2-21,27.3-21c9.4-0.1,18.7,2,27.2,6.2l-5.3,12.5c-6.8-3.5-14.3-5.4-21.9-5.4
	c-6.5,0-11.5,2.5-11.5,7.7c0,19,40.5,3.4,40.5,35.6C452.4,616.5,439.1,622.4,422.9,622.4z"/>
<path class="st14" d="M502,588.7V608h36.3v13.3h-52.1v-78.4h51v13.3H502v19.2h33.5v13.3H502z"/>
<path class="st15" d="M502,588.7V608h36.3v13.3h-52.1v-78.4h51v13.3H502v19.2h33.5v13.3H502z"/>
<path class="st16" d="M628,564.7c1.3-14.8,12.9-23,28.3-23c15.5,0,25.8,8.9,25.8,20.3c0,13.4-6.5,19.7-21.4,35.1l-9.2,9.5h33.8v14.7
	h-59.1v-10.5l27.3-28.2c6.3-6.5,12.8-12.8,12.8-19.7c0-5.6-4.6-7.7-10.4-7.7c-8.2,0-11.7,5.2-12.1,13L628,564.7z"/>
<path class="st16" d="M745.3,622.4c-22.4,0-30.5-12.5-30.5-40.3s8.1-40.3,30.5-40.3s30.6,12.5,30.6,40.3
	C775.8,609.9,767.8,622.4,745.3,622.4z M745.3,607.7c11.9,0,14.8-9,14.8-25.6c0-17.5-2.9-27-14.8-27s-14.7,9.5-14.7,27
	C730.6,598.8,733.5,607.7,745.3,607.7z"/>
<path class="st16" d="M844.6,541.8V608H860v13.3h-46.5V608h15.3v-47.4l-12.9,5.9l-5.4-13.2l25.4-11.5L844.6,541.8z"/>
<path class="st16" d="M907.5,621.3l26.8-63.7h-40v-14.7h60.1v7.5l-29.9,70.9H907.5z"/>
<path class="st17" d="M982.6,158.8h-913v-124h913L982.6,158.8z M78.6,149.6h894.8V44H78.6V149.6z"/>
<path class="st17" d="M69.4,35.7v122.3h136.9V35.7H69.4z M120.1,73.1h-7.3v47.4h7.4v12.2H90.9v-12.2h7.4V73.1h-7.4V60.9h29.2
	L120.1,73.1z M189.3,73.1h-19.2v59.6h-14.5V73.1h-19.2V60.9h52.9L189.3,73.1z"/>
<path class="st17" d="M247,120.5h29.2v12.2h-43.7V60.9H247L247,120.5z"/>
<path class="st17" d="M336.5,117.2h-25.6l-5.5,15.5h-15.6L316,60.9h15.4l26.3,71.8H342L336.5,117.2z M315.5,105h16.3l-8.2-23.2
	L315.5,105z"/>
<path class="st17" d="M373.1,132.7V60.9H394c31.3,0,37,13.5,37,36.6c0,20.6-6.8,35.2-35.7,35.2H373.1z M387.6,73.1v47.4h8.1
	c18.3,0,20.9-8.9,20.9-23c0-16.1-1.9-24.4-22.6-24.4H387.6z"/>
<path class="st17" d="M463.8,90.4l24.4-29.5h18.5L482,90.3c7.7,3.7,11.8,9.3,15.7,18.6l10,23.8h-15.8l-8.4-20.3
	c-2.8-6.5-5.2-9.5-10.1-11.8l-9.5,11.5v20.6h-14.5V60.9h14.5L463.8,90.4z"/>
<path class="st17" d="M556.4,102.3l17.8,30.4h-16.5l-17-29.2h-3.9v29.2h-14.5V60.9h24.4c16,0,24.5,7.6,24.5,20.4
	C571.2,92.8,566.1,99.8,556.4,102.3z M536.7,73.1v18.2h10c6.8,0,10-2.2,10-9.6c0-5.1-3.3-8.6-10-8.6H536.7z"/>
<path class="st17" d="M632.3,117.2h-25.6l-5.5,15.5h-15.6l26.3-71.8h15.4l26.3,71.8h-15.6L632.3,117.2z M611.2,105h16.3l-8.2-23.2
	L611.2,105z"/>
<path class="st17" d="M710.6,96.5c6.4,2.8,9.8,7.7,9.8,15.8c0,14.3-7.7,20.4-24.7,20.4h-26.8V60.9h26.9c15.5,0,23.7,6.2,23.7,18.7
	C719.5,87.6,716.4,92.9,710.6,96.5z M683.3,90.7h10.5c7.4,0,11.2-2.6,11.2-9.3c0-6-3.9-8.3-11.6-8.3h-10L683.3,90.7z M683.3,102.9
	v17.5h10.4c8.1,0,12.2-2.4,12.2-9.6c0-5.9-4.1-7.9-12.1-7.9L683.3,102.9z"/>
<path class="st17" d="M780.7,117.2h-25.6l-5.6,15.5h-15.6l26.3-71.8h15.4l26.3,71.8h-15.6L780.7,117.2z M759.7,105H776l-8.2-23.2
	L759.7,105z"/>
<path class="st17" d="M830.5,60.9l28.8,43.5V60.9h14.5v71.8h-13.1l-28.9-43.4v43.4h-14.5V60.9H830.5z"/>
<path class="st17" d="M954.5,92.7v8.6c0,21.7-12.1,32.4-30.2,32.4c-17.5,0-32.3-8.7-32.3-36.8s14.8-37,32.3-37
	c13.6,0,24.4,5.6,29.2,20.7l-13.4,4.2c-2.6-9.3-8.5-12.7-15.9-12.7c-9.6,0-17.8,5.3-17.8,24.8s8.2,24.6,17.8,24.6
	c8.5,0,14.6-3.3,15.5-16.6h-19.3V92.7H954.5z"/>
</svg>
