<?xml version="1.0" encoding="utf-8"?>
<!-- Generator: Adobe Illustrator 21.1.0, SVG Export Plug-In . SVG Version: 6.00 Build 0)  -->
<svg version="1.1" id="Group_3_xA0_Image_1_" xmlns="http://www.w3.org/2000/svg" xmlns:xlink="http://www.w3.org/1999/xlink"
	 x="0px" y="0px" viewBox="0 0 182 156" style="enable-background:new 0 0 182 156;" xml:space="preserve">
<style type="text/css">
	.st0{fill:#FF5400;}
	.st1{fill:#0074CA;}
</style>
<path class="st0" d="M116.4,124.3c0,0,31.4-17.4,40-47.8c7.5-26.4-6.1-43.1-35.5-46.5c0,0-23.6-1.6-46.9,13.3c0,0,54-34.3,85.1-14.8
	S163.3,99.2,116.4,124.3z"/>
<path class="st1" d="M133.4,76.4H64.9c-6.1,0-11-4.9-11-11v0c0-6.1,4.9-11,11-11h68.5c6.1,0,11,4.9,11,11v0
	C144.4,71.5,139.5,76.4,133.4,76.4z"/>
<path class="st1" d="M110,134.5l0-67.4c0-6.1-4.9-11-11-11h0c-6.1,0-11,4.9-11,11l0,67.4c0,6.1,4.9,11,11,11h0
	C105.1,145.5,110,140.6,110,134.5z"/>
<path class="st1" d="M51.6,134.9l0-69.8c0-6.1-4.9-11-11-11h0c-6.1,0-11,4.9-11,11l0,69.8c0,6.1,4.9,11,11,11h0
	C46.7,145.9,51.6,141,51.6,134.9z"/>
<circle class="st1" cx="40.9" cy="36.5" r="11.2"/>
<circle class="st1" cx="21" cy="17" r="5.4"/>
<circle class="st1" cx="62.4" cy="30.1" r="5.4"/>
<circle class="st1" cx="15.5" cy="51.6" r="5.4"/>
<rect x="30.4" y="16.3" transform="matrix(0.7219 -0.692 0.692 0.7219 -10.5045 29.5043)" class="st1" width="2.2" height="23.1"/>
<polygon class="st1" points="43,37.6 42.3,35.5 64.3,28.5 65,30.6 "/>
<polygon class="st1" points="18.7,51.8 17.5,49.9 36.8,37 38,38.8 "/>
</svg>
