<svg xmlns="http://www.w3.org/2000/svg" xmlns:xlink="http://www.w3.org/1999/xlink" xmlns:fi="http://pattern.flaticon.com/" x="0" y="0" width="1340" height="670" viewBox="0 0 1340 670"><rect x="0px" y="0px" width="100%" height="100%" opacity="0" fill="#34b9f5"/><defs><g transform="matrix(0.16744979929612583 0.06977075131686912 -0.06977075131686912 0.16744979929612583 269.9941637173103 144.2715390430733)" id="L1_974"><path d="M405.228,20.608c-4.824,0-9.792,0.624-14.752,1.848l3.816,15.528c30.248-7.424,56.624,15.592,56.624,44.32    c0,67.288-76.624,116.88-108.568,126.216l4.488,15.36c40.576-11.864,120.088-67.264,120.096-141.576    C466.932,48.28,439.252,20.608,405.228,20.608z"/><path d="M61.06,82.304c0-28.728,26.368-51.776,56.624-44.312l3.832-15.536c-40.032-9.84-76.448,21.008-76.448,59.848    c0,74.32,79.52,129.72,120.08,141.576l4.488-15.36C137.684,199.176,61.06,149.592,61.06,82.304z"/><path d="M283.74,297.8h-55.488c-4.416,0-8,3.576-8,8v30.36c0,2.408,1.096,4.704,2.976,6.224c1.432,1.16,3.208,1.776,5.024,1.776    c0.56,0,1.128-0.064,1.688-0.184c16.48-3.56,35.64-3.56,52.112,0c2.368,0.496,4.832-0.08,6.712-1.592    c1.88-1.52,2.976-3.8,2.976-6.224V305.8C291.74,301.376,288.164,297.8,283.74,297.8z M275.74,326.624    c-12.816-1.768-26.672-1.776-39.488,0.008V313.8v-0.008h39.488V326.624z"/><path d="M363.972,466.448H148.02c-4.416,0-8,3.576-8,8V504c0,4.424,3.584,8,8,8h215.952c4.424,0,8-3.576,8-8v-29.552    C371.972,470.024,368.396,466.448,363.972,466.448z M355.972,496H156.02v-13.552h199.952V496z"/><path d="M350.124,353.736H161.868c-4.416,0-8,3.576-8,8v112.712c0,4.424,3.584,8,8,8h188.256c4.416,0,8-3.584,8-8V361.736    C358.124,357.312,354.548,353.736,350.124,353.736z M342.124,466.448H169.868v-96.712h172.256V466.448z"/><path d="M318.132,385.728H193.868c-4.416,0-8,3.576-8,8v48.712c0,4.424,3.584,8,8,8h124.264c4.416,0,8-3.584,8-8v-48.712    C326.132,389.304,322.556,385.728,318.132,385.728z M310.132,434.44H201.868v-32.712h108.264V434.44z"/><path d="M396.988,4.024C394.428,1.432,391.02,0,387.388,0H124.612c-3.616,0-7.024,1.424-9.584,4c-2.56,2.584-3.96,6-3.944,9.632    c0.056,5.448,0.272,10.808,0.52,16.912c0.2,4.928,0.48,9.808,0.808,14.664c3.992,59.248,17.192,113.384,38.184,156.56    c3.088,6.352,6.424,12.576,9.904,18.48c16.032,27.224,34.392,46.752,54.592,58.056c2.12,1.184,4.64,1.336,6.848,0.456    c1.856,0.064,3.952,0.064,6.304,0.064h61.936c0.904,0.336,1.856,0.504,2.808,0.504c1.344,0,2.688-0.336,3.912-1.016    c20.192-11.296,38.56-30.832,54.592-58.056c3.456-5.896,6.784-12.112,9.888-18.472c21.008-43.2,34.208-97.344,38.192-156.568    c0.32-4.856,0.6-9.72,0.8-14.688c0.232-5.592,0.456-11.192,0.512-16.856C400.932,10.04,399.548,6.616,396.988,4.024z     M384.388,29.888c-0.208,4.792-0.464,9.528-0.784,14.248c-3.84,57.192-16.504,109.28-36.616,150.64    c-2.912,5.984-6.04,11.832-9.288,17.36c-13.648,23.176-29.504,40.632-46.008,50.68h-63.44c0.016,0.008-5.376,0-7.944,0    c-16.512-10.056-32.368-27.504-46.008-50.688c-3.264-5.544-6.392-11.376-9.296-17.352c-20.104-41.344-32.76-93.432-36.616-150.64    c-0.312-4.712-0.584-9.456-0.808-14.968c-0.176-4.376-0.36-8.752-0.44-13.168h257.704    C384.764,20.664,384.572,25.272,384.388,29.888z"/><path d="M352.108,34.64c-0.128,2.512-0.272,4.88-0.432,7.224c-3.336,49.568-14.616,96.288-31.768,131.552    c-2.4,4.928-5.008,9.808-7.752,14.48c-9.48,16.096-20.104,28.592-30.712,36.144l9.28,13.04    c12.432-8.848,24.6-23.048,35.224-41.064c2.96-5.048,5.776-10.296,8.352-15.6c18.024-37.08,29.864-85.904,33.344-137.496    c0.16-2.44,0.304-4.864,0.448-7.448L352.108,34.64z"/><path d="M283.74,262.824h-55.848c-13.464,0-14.8,26.104-14.8,26.368c0,0.248,1.568,24.616,15.16,24.616h55.856    c13.232,0,14.8-24.368,14.8-24.616C298.908,288.928,297.572,262.824,283.74,262.824z M280.82,297.808h-49.648    c-1.04-2.624-2.056-6.984-2.088-8.608c0.024-1.944,1.184-7.288,2.328-10.376h49.168c1.152,3.088,2.304,8.432,2.328,10.36    C282.884,290.824,281.86,295.192,280.82,297.808z"/><path d="M285.428,328.336c-18.688-4.024-40.168-4.04-58.864,0c-26.504,5.736-42.328,18.224-42.328,33.392c0,4.424,3.584,8,8,8    h127.52c4.416,0,8-3.576,8-8C327.756,346.552,311.932,334.072,285.428,328.336z M205.884,353.728    c4.944-3.72,13.056-7.368,24.056-9.752c16.488-3.56,35.648-3.56,52.104,0c11.008,2.384,19.12,6.032,24.064,9.752H205.884z"/></g><g transform="matrix(0.12222437588614306 -0.06861719354845375 0.06861719354845375 0.12222437588614306 -11.7300065264903 323.3591195153061)" id="L1_977"><path d="M399.28,277.601c-0.171-5.904-2.792-11.536-7.191-15.454c-37.419-33.312-85.748-51.658-136.088-51.658    c-50.34,0-98.669,18.346-136.088,51.658c-4.398,3.916-7.019,9.548-7.19,15.451c-0.173,5.94,2.137,11.756,6.339,15.957    l41.123,41.123c8.001,7.999,20.553,8.545,29.2,1.267c18.55-15.62,42.209-24.221,66.616-24.22c24.409,0,48.067,8.603,66.617,24.22    c4.067,3.426,8.997,5.119,13.914,5.119c5.534-0.001,11.049-2.147,15.287-6.384l41.122-41.123    C397.141,289.356,399.452,283.541,399.28,277.601z M336.556,319.398l-0.004-0.002c-22.445-18.898-51.052-29.305-80.551-29.305    c-29.498,0-58.107,10.409-80.519,29.29l-41.183-41.075c33.453-29.78,76.674-46.181,121.703-46.181s88.25,16.401,121.642,46.133    L336.556,319.398z"/><path d="M288.191,383.008c-8.598-8.598-20.03-13.334-32.189-13.334s-23.592,4.736-32.19,13.333    c-17.748,17.751-17.748,46.63,0.001,64.379c8.874,8.874,20.533,13.311,32.189,13.311s23.314-4.436,32.188-13.311    c8.598-8.597,13.334-20.03,13.334-32.189C301.524,403.037,296.788,391.605,288.191,383.008z M272.892,432.09    c-9.312,9.314-24.468,9.314-33.782,0c-9.315-9.315-9.315-24.47,0-33.784c4.512-4.513,10.511-6.997,16.892-6.997    c6.38,0,12.379,2.485,16.891,6.997c0,0.001,0,0.001,0.001,0.001c4.512,4.512,6.996,10.511,6.996,16.892    C279.89,421.579,277.405,427.579,272.892,432.09z"/><path d="M505.147,149.718C365.44,18.499,146.563,18.498,6.854,149.717c-4.326,4.062-6.758,9.561-6.852,15.486    c-0.092,5.902,2.156,11.451,6.328,15.623l41.041,41.041c8.26,8.26,21.425,8.519,29.971,0.592    c48.605-45.098,112.053-69.935,178.659-69.935c66.604,0,130.053,24.837,178.658,69.935c4.16,3.862,9.416,5.781,14.668,5.781    c5.534,0,11.065-2.133,15.304-6.372l41.041-41.041c4.173-4.172,6.42-9.721,6.328-15.623    C511.905,159.28,509.473,153.78,505.147,149.718z M449.375,206.601c-52.619-48.824-121.293-75.711-193.373-75.711    c-72.081,0-140.755,26.888-193.332,75.679l-41.005-41.082c131.406-123.42,337.27-123.416,468.673,0.001l0.036,0.041    L449.375,206.601z"/></g><g transform="matrix(0.12554772318505217 -0.056851800354184696 0.056851800354184696 0.12554772318505217 68.35340503912127 137.04090866482036)" id="L1_978"><path d="M325.762,70.513l-17.706-4.854c-2.279-0.76-4.524-0.521-6.707,0.715c-2.19,1.237-3.669,3.094-4.429,5.568L190.426,440.53    c-0.76,2.475-0.522,4.809,0.715,6.995c1.237,2.19,3.09,3.665,5.568,4.425l17.701,4.856c2.284,0.766,4.521,0.526,6.71-0.712    c2.19-1.243,3.666-3.094,4.425-5.564L332.042,81.936c0.759-2.474,0.523-4.808-0.716-6.999    C330.088,72.747,328.237,71.272,325.762,70.513z"/><path d="M166.167,142.465c0-2.474-0.953-4.665-2.856-6.567l-14.277-14.276c-1.903-1.903-4.093-2.857-6.567-2.857    s-4.665,0.955-6.567,2.857L2.856,254.666C0.95,256.569,0,258.759,0,261.233c0,2.474,0.953,4.664,2.856,6.566l133.043,133.044    c1.902,1.906,4.089,2.854,6.567,2.854s4.665-0.951,6.567-2.854l14.277-14.268c1.903-1.902,2.856-4.093,2.856-6.57    c0-2.471-0.953-4.661-2.856-6.563L51.107,261.233l112.204-112.201C165.217,147.13,166.167,144.939,166.167,142.465z"/><path d="M519.614,254.663L386.567,121.619c-1.902-1.902-4.093-2.857-6.563-2.857c-2.478,0-4.661,0.955-6.57,2.857l-14.271,14.275    c-1.902,1.903-2.851,4.09-2.851,6.567s0.948,4.665,2.851,6.567l112.206,112.204L359.163,373.442    c-1.902,1.902-2.851,4.093-2.851,6.563c0,2.478,0.948,4.668,2.851,6.57l14.271,14.268c1.909,1.906,4.093,2.854,6.57,2.854    c2.471,0,4.661-0.951,6.563-2.854L519.614,267.8c1.903-1.902,2.854-4.096,2.854-6.57    C522.468,258.755,521.517,256.565,519.614,254.663z"/></g><g transform="matrix(0.09308193019186295 -0.0620546195771089 0.0620546195771089 0.09308193019186295 164.237695485242 22.075400805760914)" id="L1_979"><path d="M489.061,35.88H267.469V22.971c0-6.334-5.135-11.469-11.469-11.469c-6.334,0-11.469,5.135-11.469,11.469V35.88H22.939    C10.29,35.88,0,46.17,0,58.819v21.284c0,12.648,10.29,22.939,22.939,22.939h3.117v257.795c0,12.648,10.29,22.939,22.939,22.939    h195.536v33.662l-84.993,62.343c-5.107,3.747-6.212,10.925-2.465,16.032c3.748,5.108,10.925,6.211,16.032,2.465l71.426-52.392    v43.144c0,6.334,5.135,11.469,11.469,11.469c6.335,0,11.469-5.135,11.469-11.469v-43.144l71.426,52.392    c2.044,1.499,4.42,2.222,6.775,2.222c3.529,0,7.01-1.623,9.257-4.686c3.747-5.107,2.643-12.285-2.465-16.032l-84.993-62.343    v-33.662h195.536c12.648,0,22.939-10.29,22.939-22.939V103.041h3.117c12.648,0,22.939-10.29,22.939-22.939V58.819    C512,46.17,501.71,35.88,489.061,35.88z M463.005,360.835H48.995V103.041h414.011V360.835z M489.061,80.102H22.939V58.819h466.123    V80.102z"/><path d="M255.782,136.254c-5.701,0-10.322,4.621-10.322,10.322v79.157h-79.157c-5.701,0-10.322,4.621-10.322,10.322    c0,55.031,44.771,99.801,99.802,99.801s99.803-44.771,99.803-99.801S310.813,136.254,255.782,136.254z M255.782,315.212    c-40.15,0-73.413-30.046-78.487-68.834h78.487c5.701,0,10.322-4.621,10.322-10.322v-78.487    c38.788,5.074,68.835,38.337,68.835,78.487C334.94,279.703,299.43,315.212,255.782,315.212z"/><path d="M220.845,125.575c-41.652,0-75.539,33.891-75.539,75.548c0,5.701,4.621,10.322,10.322,10.322h65.217    c5.701,0,10.322-4.621,10.322-10.322v-65.226C231.168,130.196,226.547,125.575,220.845,125.575z M210.523,190.801h-43.599    c4.203-22.013,21.59-39.403,43.599-43.607V190.801z"/></g></defs><g fi:class="KUsePattern"><pattern id="pattern_L1_974" width="350" height="350" patternUnits="userSpaceOnUse"><use xlink:href="#L1_974" x="-350" y="-350"/><use xlink:href="#L1_974" x="0" y="-350"/><use xlink:href="#L1_974" x="350" y="-350"/><use xlink:href="#L1_974" x="-350" y="0"/><use xlink:href="#L1_974" x="0" y="0"/><use xlink:href="#L1_974" x="350" y="0"/><use xlink:href="#L1_974" x="-350" y="350"/><use xlink:href="#L1_974" x="0" y="350"/><use xlink:href="#L1_974" x="350" y="350"/></pattern><rect x="0" y="0" width="100%" height="100%" fill="url(#pattern_L1_974)"/></g><g fi:class="KUsePattern"><pattern id="pattern_L1_977" width="350" height="350" patternUnits="userSpaceOnUse"><use xlink:href="#L1_977" x="-350" y="-350"/><use xlink:href="#L1_977" x="0" y="-350"/><use xlink:href="#L1_977" x="350" y="-350"/><use xlink:href="#L1_977" x="-350" y="0"/><use xlink:href="#L1_977" x="0" y="0"/><use xlink:href="#L1_977" x="350" y="0"/><use xlink:href="#L1_977" x="-350" y="350"/><use xlink:href="#L1_977" x="0" y="350"/><use xlink:href="#L1_977" x="350" y="350"/></pattern><rect x="0" y="0" width="100%" height="100%" fill="url(#pattern_L1_977)"/></g><g fi:class="KUsePattern"><pattern id="pattern_L1_978" width="350" height="350" patternUnits="userSpaceOnUse"><use xlink:href="#L1_978" x="-350" y="-350"/><use xlink:href="#L1_978" x="0" y="-350"/><use xlink:href="#L1_978" x="350" y="-350"/><use xlink:href="#L1_978" x="-350" y="0"/><use xlink:href="#L1_978" x="0" y="0"/><use xlink:href="#L1_978" x="350" y="0"/><use xlink:href="#L1_978" x="-350" y="350"/><use xlink:href="#L1_978" x="0" y="350"/><use xlink:href="#L1_978" x="350" y="350"/></pattern><rect x="0" y="0" width="100%" height="100%" fill="url(#pattern_L1_978)"/></g><g fi:class="KUsePattern"><pattern id="pattern_L1_979" width="350" height="350" patternUnits="userSpaceOnUse"><use xlink:href="#L1_979" x="-350" y="-350"/><use xlink:href="#L1_979" x="0" y="-350"/><use xlink:href="#L1_979" x="350" y="-350"/><use xlink:href="#L1_979" x="-350" y="0"/><use xlink:href="#L1_979" x="0" y="0"/><use xlink:href="#L1_979" x="350" y="0"/><use xlink:href="#L1_979" x="-350" y="350"/><use xlink:href="#L1_979" x="0" y="350"/><use xlink:href="#L1_979" x="350" y="350"/></pattern><rect x="0" y="0" width="100%" height="100%" fill="url(#pattern_L1_979)"/></g></svg>