<svg id="Layer_1" data-name="Layer 1" xmlns="http://www.w3.org/2000/svg" viewBox="0 0 556.55 272.18"><defs><style>.cls-1{fill:#333376;}</style></defs><title>01_cdg</title><path class="cls-1" d="M1192.08,504.71v68.65h-39.86a56.88,56.88,0,0,1-22.54-4.57,62.34,62.34,0,0,1-18.89-12.44,59.31,59.31,0,0,1-12.95-18.51,55.75,55.75,0,0,1,0-45.25A60.13,60.13,0,0,1,1110.79,474a61.31,61.31,0,0,1,18.89-12.51,56.86,56.86,0,0,1,22.54-4.56h88.84V407.79h-88.84a107.6,107.6,0,0,0-54.53,14.69,111.2,111.2,0,0,0-22,16.85,107.76,107.76,0,0,0-13,15.45,107.29,107.29,0,0,0-13-15.45,111.63,111.63,0,0,0-22-16.85,107.78,107.78,0,0,0-54.55-14.69H884.44V573.4H805.23v0H792.84a56.94,56.94,0,0,1-22.54-4.57,62.45,62.45,0,0,1-18.88-12.44,59.09,59.09,0,0,1-13-18.51,55.7,55.7,0,0,1,0-45.25,59.9,59.9,0,0,1,13-18.57,61.42,61.42,0,0,1,18.88-12.51,56.92,56.92,0,0,1,22.54-4.56h71.45V407.79H792.84a107.63,107.63,0,0,0-54.53,14.69,111.3,111.3,0,0,0-22,16.85,106.48,106.48,0,0,0-17,21.73,108.48,108.48,0,0,0-10.93,25.61,106.49,106.49,0,0,0,0,57.08,108.19,108.19,0,0,0,10.93,25.63,106.48,106.48,0,0,0,17,21.74,110,110,0,0,0,22,16.78,108.61,108.61,0,0,0,25.84,10.79,107.5,107.5,0,0,0,28.69,3.81H973.29a107.44,107.44,0,0,0,28.69-3.81,108.61,108.61,0,0,0,25.86-10.79,110.33,110.33,0,0,0,22-16.78,106.93,106.93,0,0,0,13-15.46,107.4,107.4,0,0,0,13,15.46,108.54,108.54,0,0,0,47.79,27.57,107.6,107.6,0,0,0,28.69,3.81h88.84V504.71Zm-164.4,33.14a59.08,59.08,0,0,1-13,18.51,62,62,0,0,1-18.87,12.44,57,57,0,0,1-22.56,4.57H933.44V456.95h39.85a56.94,56.94,0,0,1,22.56,4.56A61,61,0,0,1,1014.72,474a59.89,59.89,0,0,1,13,18.57,55.83,55.83,0,0,1,0,45.25" transform="translate(-684.52 -407.79)"/><polygon class="cls-1" points="19.34 271.68 19.34 248.39 10.98 248.39 10.98 244.13 32.52 244.13 32.52 248.39 24.16 248.39 24.16 271.68 19.34 271.68"/><polygon class="cls-1" points="59.89 271.68 59.89 259.63 45.57 259.63 45.57 271.68 40.73 271.68 40.73 244.13 45.57 244.13 45.57 255.37 59.89 255.37 59.89 244.13 64.72 244.13 64.72 271.68 59.89 271.68"/><polygon class="cls-1" points="74.71 271.68 74.71 244.13 93.6 244.13 93.6 248.39 79.56 248.39 79.56 255.49 93.31 255.49 93.31 259.74 79.56 259.74 79.56 267.44 93.6 267.44 93.6 271.68 74.71 271.68"/><path class="cls-1" d="M802,679.47V651.92h12.14c5.78,0,9,3.94,9,8.63s-3.22,8.6-9,8.6h-7.31v10.32Zm16.14-18.92c0-2.64-1.95-4.37-4.66-4.37h-6.66v8.71h6.66c2.71,0,4.66-1.74,4.66-4.34" transform="translate(-684.52 -407.79)"/><path class="cls-1" d="M830.08,665.72c0-8.22,5.81-14.25,14.06-14.25s14.08,6,14.08,14.25S852.37,680,844.14,680s-14.06-6-14.06-14.25m23.2,0c0-5.69-3.59-10-9.15-10S835,660,835,665.72s3.56,9.94,9.12,9.94,9.15-4.27,9.15-9.94" transform="translate(-684.52 -407.79)"/><polygon class="cls-1" points="202.71 271.68 197.39 251.32 192.03 271.68 186.86 271.68 179.01 244.13 184.38 244.13 189.75 265.32 195.46 244.13 199.29 244.13 204.99 265.32 210.35 244.13 215.77 244.13 207.88 271.68 202.71 271.68"/><polygon class="cls-1" points="223.09 271.68 223.09 244.13 241.95 244.13 241.95 248.39 227.91 248.39 227.91 255.49 241.67 255.49 241.67 259.74 227.91 259.74 227.91 267.44 241.95 267.44 241.95 271.68 223.09 271.68"/><path class="cls-1" d="M951.3,679.47l-6.09-10.28h-4.8v10.28h-4.84V651.93h12.09c5.47,0,9,3.53,9,8.62a7.76,7.76,0,0,1-6.57,8.1l6.77,10.82Zm.45-19c0-2.62-2-4.34-4.71-4.34h-6.63v8.76H947c2.73,0,4.71-1.73,4.71-4.42" transform="translate(-684.52 -407.79)"/><path class="cls-1" d="M979.25,665.72c0-8.22,5.84-14.25,14.09-14.25s14.07,6,14.07,14.25S1001.54,680,993.34,680s-14.09-6-14.09-14.25m23.21,0c0-5.69-3.6-10-9.12-10s-9.13,4.26-9.13,10,3.55,9.94,9.13,9.94,9.12-4.27,9.12-9.94" transform="translate(-684.52 -407.79)"/><polygon class="cls-1" points="331.66 271.68 331.66 244.13 350.54 244.13 350.54 248.39 336.5 248.39 336.5 255.49 350.25 255.49 350.25 259.74 336.5 259.74 336.5 271.68 331.66 271.68"/><polygon class="cls-1" points="394.89 271.68 389.57 251.32 384.19 271.68 379.03 271.68 371.17 244.13 376.56 244.13 381.93 265.32 387.62 244.13 391.46 244.13 397.16 265.32 402.53 244.13 407.95 244.13 400.05 271.68 394.89 271.68"/><rect class="cls-1" x="415.26" y="244.14" width="4.83" height="27.54"/><path class="cls-1" d="M1112.83,675.59l2.73-3.76a11.83,11.83,0,0,0,8.7,3.82c4,0,5.5-1.92,5.5-3.79,0-5.79-16-2.19-16-12.29,0-4.6,4-8.1,10-8.1a14.35,14.35,0,0,1,10.29,3.88l-2.74,3.6a11.16,11.16,0,0,0-8-3.19c-2.81,0-4.64,1.4-4.64,3.43,0,5.16,16,2,16,12.23,0,4.57-3.27,8.55-10.65,8.55a15,15,0,0,1-11.23-4.38" transform="translate(-684.52 -407.79)"/><path class="cls-1" d="M1143.27,679.47V651.92h10.23c8.63,0,14.41,5.7,14.41,13.76s-5.78,13.79-14.37,13.79ZM1163,665.69c0-5.29-3.3-9.51-9.43-9.51h-5.44v19h5.4c6,0,9.47-4.31,9.47-9.54" transform="translate(-684.52 -407.79)"/><path class="cls-1" d="M1175.51,665.72c0-8.22,5.82-14.25,14.1-14.25s14.07,6,14.07,14.25S1197.82,680,1189.61,680s-14.1-6-14.1-14.25m23.21,0c0-5.69-3.59-10-9.11-10s-9.14,4.26-9.14,10,3.56,9.94,9.14,9.94,9.11-4.27,9.11-9.94" transform="translate(-684.52 -407.79)"/><polygon class="cls-1" points="551.72 271.68 551.72 250.42 543.29 271.68 541.22 271.68 532.76 250.42 532.76 271.68 527.93 271.68 527.93 244.13 534.75 244.13 542.26 263.06 549.73 244.13 556.55 244.13 556.55 271.68 551.72 271.68"/></svg>