<?xml version="1.0" encoding="utf-8"?>
<!-- Generator: Adobe Illustrator 19.0.0, SVG Export Plug-In . SVG Version: 6.00 Build 0)  -->
<svg version="1.0" id="Layer_1" xmlns="http://www.w3.org/2000/svg" xmlns:xlink="http://www.w3.org/1999/xlink" x="0px" y="0px"
	 viewBox="0 0 107.6 16.4" style="enable-background:new 0 0 107.6 16.4;" xml:space="preserve">
<g id="XMLID_2_">
	<path id="XMLID_17_" d="M46.2,15.2L41.5,2.1c-0.1-0.2-0.2-0.4-0.2-0.6c0-0.6,0.5-1.1,1.2-1.1c0.6,0,1,0.4,1.2,1l3.9,11.3l3.9-11.3
		c0.2-0.5,0.5-0.9,1.1-0.9h0.1c0.6,0,1,0.4,1.2,0.9l3.9,11.3l4-11.4c0.1-0.5,0.5-0.9,1.1-0.9c0.7,0,1.1,0.5,1.1,1.1
		c0,0.2-0.1,0.4-0.1,0.6l-4.7,13.1c-0.2,0.7-0.7,1-1.3,1h-0.1c-0.6,0-1.1-0.4-1.3-1L52.7,4l-3.9,11.1c-0.2,0.7-0.7,1-1.3,1h-0.1
		C46.9,16.2,46.4,15.9,46.2,15.2"/>
	<path id="XMLID_16_" d="M80.5,1.5c0-0.6,0.5-1.2,1.1-1.2c0.7,0,1.2,0.5,1.2,1.2v2.7c1.1-2.6,3.7-3.8,5.4-3.8c0.7,0,1.1,0.5,1.1,1.2
		c0,0.6-0.4,1.1-1,1.2c-3,0.4-5.5,2.6-5.5,7.1V15c0,0.6-0.5,1.2-1.1,1.2c-0.7,0-1.2-0.5-1.2-1.2V1.5"/>
	<path id="XMLID_13_" d="M96.8,16.4c-4.2,0-7.6-3.2-7.6-8V8.3c0-4.4,3.1-8,7.3-8c4.5,0,7.1,3.7,7.1,7.8c0,0.6-0.5,1.1-1.1,1.1h-11
		c0.3,3.3,2.6,5.2,5.4,5.2c1.9,0,3.3-0.7,4.4-1.8c0.2-0.1,0.4-0.3,0.7-0.3c0.6,0,1,0.4,1,1c0,0.3-0.1,0.5-0.4,0.7
		C101.1,15.4,99.4,16.4,96.8,16.4 M101.3,7.5c-0.2-2.8-1.8-5.2-4.9-5.2c-2.7,0-4.7,2.2-4.9,5.2H101.3z"/>
	<path id="XMLID_10_" d="M64.1,11.5L64.1,11.5c0-3.3,2.7-5.1,6.6-5.1c2,0,3.4,0.3,4.8,0.7V6.6c0-2.8-1.7-4.2-4.6-4.2
		c-1.6,0-2.5,0.2-3.6,0.7c-0.2,0.1-0.3,0.1-0.4,0.1c-0.5,0-1-0.5-1-1c0-0.5,0.2-0.8,0.6-1c1.5-0.7,2.7-0.9,4.6-0.9
		c2.2,0,3.9,0.6,5,1.7c1,1,1.6,2.5,1.6,4.5v8.6c0,0.7-0.5,1.1-1.1,1.1c-0.7,0-1.1-0.5-1.1-1.1v-1.5c-1.1,1.4-2.9,2.7-5.6,2.7
		C67,16.4,64.1,14.7,64.1,11.5 M75.5,10.3V8.8c-1.1-0.3-2.7-0.7-4.6-0.7c-2.9,0-4.5,1.3-4.5,3.2v0.1c0,1.9,1.8,3.1,3.9,3.1
		C73.2,14.5,75.5,12.8,75.5,10.3"/>
	<path id="XMLID_9_" d="M4.2,1.3C3.7,0.2,2.5-0.3,1.3,0.2C0.1,0.7-0.3,2,0.2,3.1l4.9,10.7c0.8,1.7,1.6,2.6,3.1,2.6
		c1.6,0,2.3-1,3.1-2.6c0,0,4.3-9.3,4.3-9.4c0-0.1,0.2-0.4,0.6-0.4C16.7,4,17,4.3,17,4.7v9.1c0,1.4,0.8,2.6,2.3,2.6
		c1.5,0,2.3-1.2,2.3-2.6V6.4c0-1.4,1-2.4,2.4-2.4c1.4,0,2.3,1,2.3,2.4v7.5c0,1.4,0.8,2.6,2.3,2.6c1.5,0,2.3-1.2,2.3-2.6V6.4
		C31,4.9,32,4,33.4,4c1.4,0,2.3,1,2.3,2.4v7.5c0,1.4,0.8,2.6,2.3,2.6c1.5,0,2.3-1.2,2.3-2.6V5.3c0-3.1-2.5-5.3-5.5-5.3
		c-3,0-4.9,2.1-4.9,2.1c-1-1.3-2.4-2.1-4.7-2.1c-2.5,0-4.6,2.1-4.6,2.1c-1-1.3-2.7-2.1-4.1-2.1c-2.2,0-3.9,1-5,3.4l-3.1,7.4L4.2,1.3
		"/>
	<path id="XMLID_6_" d="M103.7,2.2L103.7,2.2c0-1.1,0.8-1.9,1.9-1.9c1.1,0,1.9,0.9,1.9,1.9v0c0,1-0.8,1.9-1.9,1.9
		C104.6,4.1,103.7,3.3,103.7,2.2 M107.2,2.2L107.2,2.2c0-0.9-0.7-1.6-1.5-1.6c-0.9,0-1.6,0.7-1.6,1.6v0c0,0.9,0.7,1.6,1.6,1.6
		C106.5,3.8,107.2,3.1,107.2,2.2"/>
	<path id="XMLID_3_" d="M104.9,1.5c0-0.1,0.1-0.2,0.2-0.2h0.6c0.2,0,0.4,0.1,0.5,0.2c0.1,0.1,0.2,0.2,0.2,0.4v0
		c0,0.3-0.1,0.5-0.4,0.6l0.3,0.3c0,0,0.1,0.1,0.1,0.2c0,0.1-0.1,0.2-0.2,0.2c-0.1,0-0.2,0-0.2-0.1l-0.4-0.5h-0.3v0.4
		c0,0.1-0.1,0.2-0.2,0.2c-0.1,0-0.2-0.1-0.2-0.2V1.5z M105.7,2.2c0.2,0,0.3-0.1,0.3-0.3v0c0-0.2-0.1-0.3-0.3-0.3h-0.4v0.5H105.7z"/>
</g>
<g id="XMLID_44_">
</g>
<g id="XMLID_45_">
</g>
<g id="XMLID_46_">
</g>
<g id="XMLID_47_">
</g>
<g id="XMLID_48_">
</g>
<g id="XMLID_49_">
</g>
</svg>
