<?xml version="1.0" encoding="UTF-8" standalone="no"?><!DOCTYPE svg PUBLIC "-//W3C//DTD SVG 1.1//EN" "http://www.w3.org/Graphics/SVG/1.1/DTD/svg11.dtd"><svg width="100%" height="100%" viewBox="0 0 842 596" version="1.1" xmlns="http://www.w3.org/2000/svg" xmlns:xlink="http://www.w3.org/1999/xlink" xml:space="preserve" style="fill-rule:evenodd;clip-rule:evenodd;stroke-linejoin:round;stroke-miterlimit:1.41421;"><g id="Layer-1"><path d="M780.332,259.627c-5.02,-6.766 -11.079,-12.261 -18.037,-16.335c-6.794,-3.976 -13.756,-6.929 -20.708,-8.762c-6.625,-1.754 -11.923,-2.989 -15.725,-3.659c0.243,0.038 -29.613,-6.837 -29.613,-6.837c-7.316,-1.725 -13.065,-3.452 -17.115,-5.135c-4.5,-1.88 -6.072,-3.49 -6.623,-4.266c-0.992,-1.436 -1.493,-3.503 -1.493,-6.124c0,-2.894 0.655,-5.239 1.937,-6.969c1.489,-1.991 3.331,-3.597 5.626,-4.926c2.335,-1.344 4.99,-2.297 7.88,-2.839c3.142,-0.597 6.338,-0.893 9.453,-0.893c4.964,0 9.595,0.375 13.752,1.14c3.902,0.709 7.389,1.928 10.352,3.598c2.806,1.58 5.016,3.722 6.759,6.542c1.761,2.879 2.806,6.65 3.124,11.237l0.281,4.021l51.372,0l0,-4.282c0,-10.83 -2.372,-20.244 -7.052,-27.974c-4.669,-7.684 -11.061,-14.08 -19.001,-19.036c-7.827,-4.884 -16.864,-8.459 -26.878,-10.628c-9.803,-2.098 -20.153,-3.189 -30.795,-3.189c-9.211,0 -18.547,1.142 -27.751,3.353c-9.335,2.257 -17.826,5.775 -25.244,10.482c-0.793,0.503 -1.564,1.017 -2.319,1.557l0,81.873c5.158,3.191 10.89,5.92 17.134,8.051c7.14,2.433 14.554,4.497 22.049,6.172c7.072,1.787 14.281,3.447 21.295,4.938c6.701,1.411 12.776,3.084 18.06,4.99c4.899,1.736 8.866,3.918 11.801,6.453c2.446,2.136 3.646,4.907 3.646,8.49c0,3.451 -0.921,6.159 -2.806,8.279c-2.126,2.368 -4.721,4.195 -7.931,5.576c-3.401,1.438 -7.107,2.43 -11.014,2.945c-4.136,0.526 -8.059,0.799 -11.687,0.799c-5.262,0 -10.404,-0.56 -15.298,-1.701c-4.707,-1.085 -8.843,-2.768 -12.271,-4.98c-3.32,-2.135 -6.023,-4.979 -8.042,-8.44c-2.021,-3.478 -3.046,-7.857 -3.046,-13.022l0,-4.287l-4.796,0l-17.094,0l0,56.737c7.673,4.577 16.427,8.038 26.109,10.291c10.559,2.449 21.588,3.698 32.795,3.698c13.833,0 26.247,-1.464 36.867,-4.379c10.754,-2.921 19.94,-7.113 27.274,-12.434c7.454,-5.413 13.143,-11.927 16.939,-19.401c3.767,-7.407 5.674,-15.523 5.674,-24.144c0,-10.633 -2.649,-19.569 -7.84,-26.58" style="fill:#0071bc;fill-rule:nonzero;"/><path d="M627.317,154.43l-63.712,0l-3.66,0l-1.127,3.104l-41.17,113.991l-43.556,-114.064l-1.166,-3.031l-3.595,0l-63.717,0l-5.03,0l0,16.248c0.047,0.049 0.107,0.089 0.154,0.134c9.935,8.951 17.784,20.197 23.317,33.465c5.415,13.028 8.159,28.253 8.159,45.281c0,14.819 -2.2,28.8 -6.528,41.556c-4.502,13.233 -11.454,24.87 -20.643,34.565c-1.428,1.504 -2.925,2.94 -4.459,4.357l0,16.697l52.451,0l0,-4.484l0,-103.739l41.246,105.231l1.185,2.992l42.014,0l1.175,-3.01l41.238,-106.244l0,109.254l52.441,0l0,-4.484l0,-183.336l0,-4.483l-5.017,0Z" style="fill:#0071bc;fill-rule:nonzero;"/><path d="M285.12,303.9l0,-106.639l27.277,0c5.69,0 10.88,0.404 15.566,1.175c3.898,0.643 7.454,1.536 10.603,2.707c5.907,2.196 10.835,5.258 14.7,9.122c0.552,0.55 1.081,1.117 1.588,1.7c4.147,4.781 7.191,10.652 9.037,17.453c1.913,7.077 2.879,15.142 2.879,23.988c0,9.536 -1.355,17.659 -4.022,24.152c-2.616,6.384 -6.12,11.606 -10.407,15.49c-4.221,3.845 -9.106,6.627 -14.476,8.275c-5.588,1.719 -11.446,2.577 -17.393,2.577l-35.352,0Zm136.918,-54.342c0,-13.883 -1.942,-26.362 -5.775,-37.2c-0.499,-1.417 -1.026,-2.813 -1.591,-4.175c-2.447,-5.858 -5.395,-11.274 -8.816,-16.216c-0.035,-0.048 -0.067,-0.103 -0.1,-0.15c-0.402,-0.582 -0.836,-1.133 -1.252,-1.702c-0.477,-0.649 -0.942,-1.313 -1.436,-1.945c-2.78,-3.553 -5.827,-6.829 -9.131,-9.808c-2.909,-2.618 -6.023,-5.008 -9.296,-7.21c-6.698,-4.496 -14.117,-8.125 -22.226,-10.79c-11.943,-3.94 -24.994,-5.932 -38.774,-5.932l-88.759,0l-5.029,0l-3.643,0c12.37,7.879 21.577,19.686 25.466,33.41c0.003,0.011 0.005,0.019 0.007,0.029c0.31,1.219 0.583,2.451 0.82,3.691c0.002,0.01 0.003,0.018 0.006,0.027c0.232,1.226 0.428,2.464 0.587,3.709c0.012,0.095 0.02,0.19 0.031,0.286c0.127,1.04 0.222,2.088 0.297,3.137c0.021,0.297 0.044,0.596 0.06,0.894c0.061,1.107 0.103,2.217 0.104,3.331c0.001,0.049 0.004,0.098 0.004,0.146c0,0.084 -0.007,0.169 -0.007,0.254c-0.005,1.187 -0.042,2.369 -0.116,3.54c-0.009,0.109 -0.021,0.216 -0.027,0.324c-0.084,1.179 -0.193,2.351 -0.337,3.515c-0.002,0.024 -0.006,0.049 -0.009,0.073c-2.459,16.703 -12.223,30.989 -26.307,39.983c14.785,9.63 24.914,24.999 26.642,42.52c0.011,0.178 0.02,0.355 0.031,0.533c0.03,0.51 0.059,1.024 0.078,1.537c0.027,0.745 0.045,1.491 0.045,2.242c0,1.114 -0.04,2.219 -0.098,3.314c-0.016,0.303 -0.036,0.605 -0.057,0.907c-0.055,0.813 -0.129,1.623 -0.214,2.425c-0.036,0.324 -0.063,0.651 -0.102,0.973c-0.117,0.941 -0.259,1.873 -0.416,2.798c-0.096,0.558 -0.206,1.11 -0.317,1.665c-0.077,0.39 -0.158,0.776 -0.243,1.166c-0.145,0.652 -0.291,1.303 -0.456,1.948c-0.003,0.012 -0.006,0.025 -0.009,0.036c-0.403,1.578 -0.867,3.126 -1.387,4.648c-0.012,0.037 -0.022,0.071 -0.035,0.105c-4.463,11.913 -12.982,22.102 -24.057,29.137l97.447,0c16.396,0 30.92,-2.511 43.15,-7.463c9.55,-3.87 17.956,-8.944 25.101,-15.108c2.016,-1.741 3.948,-3.553 5.76,-5.466c1.79,-1.891 3.469,-3.878 5.065,-5.932c5.709,-7.333 10.194,-15.683 13.341,-24.93c3.976,-11.673 5.98,-24.565 5.98,-38.276" style="fill:#0071bc;fill-rule:nonzero;"/><path d="M84.985,380.326c1.061,1.466 1.576,3.214 1.576,5.249c0,2.103 -0.525,3.79 -1.583,5.061c-0.598,0.718 -1.472,1.373 -2.631,1.951c1.769,0.648 3.096,1.667 3.992,3.045c0.903,1.385 1.343,3.068 1.343,5.05c0,2.039 -0.509,3.867 -1.527,5.496c-0.648,1.073 -1.469,1.977 -2.446,2.715c-1.092,0.831 -2.39,1.425 -3.882,1.729c-1.503,0.302 -3.125,0.457 -4.872,0.457l-15.518,0l0,-34.411l16.633,0c4.194,0.06 7.166,1.281 8.915,3.658m-18.68,2.296l0,7.582l8.358,0c1.489,0 2.707,-0.275 3.635,-0.839c0.936,-0.58 1.397,-1.575 1.397,-3.027c0,-1.598 -0.617,-2.654 -1.839,-3.174c-1.073,-0.355 -2.42,-0.542 -4.074,-0.542l-7.477,0m0,13.293l0,9.208l8.358,0c1.489,0 2.647,-0.196 3.488,-0.605c1.498,-0.756 2.262,-2.189 2.262,-4.322c0,-1.785 -0.735,-3.016 -2.198,-3.702c-0.822,-0.375 -1.959,-0.569 -3.439,-0.579l-8.471,0" style="fill:#58595b;fill-rule:nonzero;"/><path d="M103.332,395.564c1.23,-0.166 2.11,-0.352 2.643,-0.58c0.95,-0.408 1.429,-1.049 1.429,-1.902c0,-1.05 -0.369,-1.771 -1.093,-2.166c-0.731,-0.395 -1.797,-0.607 -3.219,-0.607c-1.574,0 -2.694,0.391 -3.355,1.171c-0.473,0.58 -0.782,1.355 -0.94,2.341l-6.41,0c0.138,-2.227 0.768,-4.043 1.862,-5.487c1.768,-2.246 4.794,-3.367 9.083,-3.367c2.793,0 5.269,0.548 7.443,1.657c2.162,1.098 3.247,3.191 3.247,6.263l0,11.734c0,0.809 0.02,1.797 0.047,2.948c0.048,0.882 0.177,1.463 0.403,1.779c0.208,0.312 0.539,0.564 0.97,0.768l0,0.963l-7.224,0c-0.21,-0.504 -0.349,-0.988 -0.427,-1.439c-0.085,-0.449 -0.141,-0.963 -0.185,-1.532c-0.918,0.991 -1.984,1.857 -3.182,2.557c-1.438,0.821 -3.065,1.229 -4.87,1.229c-2.316,0 -4.219,-0.658 -5.724,-1.973c-1.511,-1.329 -2.264,-3.184 -2.264,-5.62c0,-3.133 1.218,-5.41 3.637,-6.817c1.323,-0.758 3.283,-1.314 5.855,-1.635l2.274,-0.285Zm4.05,3.115c-0.431,0.278 -0.854,0.484 -1.288,0.651c-0.429,0.164 -1.03,0.322 -1.776,0.456l-1.5,0.28c-1.41,0.246 -2.42,0.559 -3.032,0.922c-1.031,0.61 -1.546,1.554 -1.546,2.835c0,1.152 0.32,1.967 0.952,2.481c0.635,0.507 1.402,0.757 2.308,0.757c1.445,0 2.774,-0.425 3.99,-1.261c1.204,-0.857 1.845,-2.388 1.892,-4.625l0,-2.496" style="fill:#58595b;fill-rule:nonzero;"/><path d="M140.411,387.041c1.66,1.383 2.494,3.674 2.494,6.865l0,17.173l-6.874,0l0,-15.508c0,-1.341 -0.182,-2.366 -0.531,-3.09c-0.645,-1.314 -1.865,-1.96 -3.677,-1.96c-2.221,0 -3.739,0.953 -4.569,2.875c-0.43,1.015 -0.64,2.302 -0.64,3.879l0,13.804l-6.673,0l0,-25.453l6.465,0l0,3.723c0.853,-1.315 1.656,-2.254 2.41,-2.835c1.366,-1.032 3.094,-1.546 5.184,-1.546c2.607,0 4.752,0.698 6.411,2.073" style="fill:#58595b;fill-rule:nonzero;"/><path d="M161.676,385.55c1.618,0.661 2.916,1.904 3.912,3.701l0,-3.625l6.471,0l0,24.157c0,3.291 -0.556,5.764 -1.658,7.445c-1.901,2.863 -5.538,4.296 -10.906,4.296c-3.26,0 -5.908,-0.635 -7.969,-1.919c-2.043,-1.279 -3.181,-3.18 -3.392,-5.724l7.221,0c0.192,0.788 0.498,1.337 0.917,1.69c0.714,0.608 1.918,0.911 3.62,0.911c2.392,0 3.989,-0.808 4.804,-2.413c0.527,-1.031 0.79,-2.753 0.79,-5.193l0,-1.632c-0.636,1.079 -1.318,1.894 -2.054,2.433c-1.313,1 -3.039,1.512 -5.153,1.512c-3.266,0 -5.873,-1.152 -7.832,-3.452c-1.953,-2.307 -2.931,-5.42 -2.931,-9.356c0,-3.772 0.94,-6.962 2.826,-9.545c1.882,-2.575 4.545,-3.868 7.996,-3.868c1.273,0 2.379,0.197 3.338,0.582m2.205,18.309c1.071,-1.18 1.605,-3.062 1.605,-5.646c0,-2.421 -0.505,-4.277 -1.515,-5.536c-1.02,-1.264 -2.376,-1.902 -4.079,-1.902c-2.32,0 -3.919,1.099 -4.801,3.311c-0.461,1.168 -0.695,2.62 -0.695,4.338c0,1.491 0.243,2.81 0.744,3.967c0.891,2.158 2.494,3.255 4.821,3.255c1.551,0 2.861,-0.594 3.92,-1.787" style="fill:#58595b;fill-rule:nonzero;"/><path d="M178.249,376.721l6.518,0l0,18.616l8.382,-9.602l8.272,0l-9.114,9.483l9.46,15.86l-8.089,0l-6.153,-10.882l-2.758,2.873l0,8.009l-6.518,0l0,-34.357Z" style="fill:#58595b;fill-rule:nonzero;"/><path d="M226.107,407.975c-2.153,2.65 -5.412,3.976 -9.782,3.976c-4.384,0 -7.644,-1.326 -9.783,-3.976c-2.155,-2.655 -3.225,-5.849 -3.225,-9.595c0,-3.654 1.07,-6.842 3.225,-9.525c2.139,-2.702 5.399,-4.044 9.783,-4.044c4.37,0 7.629,1.342 9.782,4.044c2.151,2.683 3.217,5.871 3.217,9.525c0,3.746 -1.066,6.94 -3.217,9.595m-5.33,-3.654c1.053,-1.377 1.58,-3.353 1.58,-5.903c0,-2.548 -0.527,-4.519 -1.58,-5.888c-1.038,-1.379 -2.538,-2.063 -4.489,-2.063c-1.956,0 -3.467,0.684 -4.521,2.063c-1.053,1.369 -1.582,3.34 -1.582,5.888c0,2.55 0.529,4.526 1.582,5.903c1.054,1.383 2.565,2.077 4.521,2.077c1.951,0 3.451,-0.694 4.489,-2.077" style="fill:#58595b;fill-rule:nonzero;"/><path d="M234.044,376.721l6.52,0l0,18.616l8.385,-9.602l8.267,0l-9.114,9.483l9.463,15.86l-8.089,0l-6.163,-10.882l-2.749,2.873l0,8.009l-6.52,0l0,-34.357Z" style="fill:#58595b;fill-rule:nonzero;"/><path d="M294.665,377.423c2.419,0.792 4.381,2.247 5.871,4.364c1.205,1.709 2.021,3.567 2.462,5.552c0.433,1.991 0.66,3.895 0.66,5.698c0,4.579 -0.927,8.45 -2.767,11.627c-2.49,4.288 -6.346,6.415 -11.56,6.415l-14.854,0l0,-34.411l14.854,0c2.139,0.029 3.919,0.287 5.334,0.755m-13.212,5.199l0,22.501l6.652,0c3.402,0 5.774,-1.679 7.12,-5.031c0.729,-1.827 1.094,-4.024 1.094,-6.569c0,-3.504 -0.552,-6.201 -1.644,-8.076c-1.103,-1.875 -3.295,-2.825 -6.57,-2.825l-6.652,0" style="fill:#58595b;fill-rule:nonzero;"/><path d="M315.175,385.626l0,15.362c0,1.446 0.162,2.536 0.504,3.273c0.6,1.294 1.785,1.933 3.539,1.933c2.251,0 3.788,-0.912 4.626,-2.755c0.426,-0.995 0.648,-2.306 0.648,-3.945l0,-13.868l6.77,0l0,25.453l-6.473,0l0,-3.572c-0.054,0.072 -0.219,0.301 -0.467,0.696c-0.245,0.377 -0.543,0.727 -0.875,1.012c-1.053,0.936 -2.053,1.574 -3.031,1.918c-0.97,0.349 -2.114,0.514 -3.422,0.514c-3.753,0 -6.3,-1.361 -7.595,-4.048c-0.738,-1.499 -1.097,-3.711 -1.097,-6.617l0,-15.356l6.873,0Z" style="fill:#58595b;fill-rule:nonzero;"/><path d="M342.848,402.935c0.146,1.194 0.439,2.045 0.907,2.529c0.833,0.9 2.356,1.343 4.583,1.343c1.315,0 2.352,-0.199 3.13,-0.583c0.767,-0.388 1.158,-0.969 1.158,-1.756c0,-0.754 -0.32,-1.323 -0.948,-1.701c-0.638,-0.393 -2.95,-1.056 -6.952,-2.001c-2.88,-0.712 -4.908,-1.599 -6.097,-2.671c-1.191,-1.049 -1.788,-2.571 -1.788,-4.568c0,-2.331 0.924,-4.346 2.77,-6.03c1.841,-1.694 4.445,-2.53 7.797,-2.53c3.188,0 5.778,0.635 7.771,1.916c2.009,1.266 3.156,3.459 3.447,6.58l-6.667,0c-0.097,-0.859 -0.327,-1.534 -0.721,-2.045c-0.729,-0.897 -1.97,-1.357 -3.73,-1.357c-1.436,0 -2.457,0.225 -3.078,0.675c-0.614,0.449 -0.913,0.983 -0.913,1.595c0,0.779 0.316,1.319 0.97,1.659c0.654,0.358 2.961,0.966 6.941,1.834c2.642,0.609 4.623,1.565 5.956,2.805c1.304,1.283 1.963,2.875 1.963,4.774c0,2.516 -0.944,4.572 -2.822,6.164c-1.878,1.59 -4.781,2.384 -8.713,2.384c-3.996,0 -6.957,-0.849 -8.87,-2.543c-1.903,-1.691 -2.854,-3.848 -2.854,-6.473l6.76,0Z" style="fill:#58595b;fill-rule:nonzero;"/><path d="M371.121,382.576l-6.766,0l0,-6.113l6.766,0l0,6.113Zm-6.766,3.05l6.766,0l0,25.453l-6.766,0l0,-25.453Z" style="fill:#58595b;fill-rule:nonzero;"/><path d="M374.929,390.572l0,-4.689l3.567,0l0,-7.176l6.565,0l0,7.176l4.124,0l0,4.689l-4.124,0l0,13.485c0,1.051 0.14,1.702 0.397,1.955c0.271,0.26 1.074,0.386 2.427,0.386c0.199,0 0.412,0 0.638,-0.027c0.227,-0.007 0.448,-0.037 0.662,-0.077l0,4.995l-3.143,0.15c-3.128,0.114 -5.281,-0.436 -6.432,-1.632c-0.736,-0.764 -1.114,-1.944 -1.114,-3.535l0,-15.7l-3.567,0Z" style="fill:#58595b;fill-rule:nonzero;"/><path d="M430.158,376.668l10.322,0l0,34.411l-6.655,0l0,-23.271c0,-0.666 0,-1.61 0.018,-2.817c0.01,-1.211 0.022,-2.132 0.022,-2.794l-6.542,28.882l-7.013,0l-6.485,-28.882c0,0.662 0,1.583 0.01,2.794c0.027,1.207 0.032,2.151 0.032,2.817l0,23.271l-6.676,0l0,-34.411l10.451,0l6.281,27.06l6.235,-27.06Z" style="fill:#58595b;fill-rule:nonzero;"/><path d="M463.161,386.153c1.762,0.797 3.23,2.06 4.378,3.775c1.037,1.515 1.716,3.263 2.021,5.267c0.178,1.162 0.249,2.845 0.225,5.049l-18.491,0c0.111,2.543 0.989,4.33 2.643,5.352c1.016,0.634 2.231,0.954 3.651,0.954c1.505,0 2.727,-0.386 3.677,-1.156c0.506,-0.414 0.969,-0.995 1.357,-1.744l6.797,0c-0.175,1.502 -0.992,3.035 -2.451,4.588c-2.274,2.475 -5.453,3.713 -9.541,3.713c-3.374,0 -6.344,-1.047 -8.927,-3.136c-2.583,-2.078 -3.879,-5.473 -3.879,-10.185c0,-4.409 1.178,-7.788 3.502,-10.135c2.332,-2.348 5.354,-3.528 9.076,-3.528c2.199,0 4.189,0.402 5.962,1.186m-9.947,5.794c-0.931,0.94 -1.519,2.233 -1.77,3.86l11.408,0c-0.116,-1.733 -0.71,-3.038 -1.756,-3.944c-1.063,-0.893 -2.369,-1.342 -3.932,-1.342c-1.701,0 -3.018,0.474 -3.95,1.426" style="fill:#58595b;fill-rule:nonzero;"/><path d="M486.645,385.974c1.187,0.688 2.159,1.629 2.906,2.811l0,-12.064l6.762,0l0,34.357l-6.454,0l0,-3.5c-0.949,1.503 -2.033,2.616 -3.234,3.285c-1.213,0.69 -2.715,1.031 -4.525,1.031c-2.965,0 -5.462,-1.204 -7.483,-3.618c-2.028,-2.411 -3.035,-5.509 -3.035,-9.281c0,-4.366 0.99,-7.777 2.979,-10.275c1.999,-2.509 4.657,-3.753 7.988,-3.753c1.533,0 2.898,0.333 4.096,1.007m1.641,18.21c0.984,-1.417 1.464,-3.231 1.464,-5.468c0,-3.132 -0.777,-5.374 -2.359,-6.726c-0.958,-0.81 -2.07,-1.216 -3.331,-1.216c-1.935,0 -3.347,0.74 -4.254,2.214c-0.906,1.486 -1.35,3.315 -1.35,5.513c0,2.37 0.451,4.26 1.376,5.676c0.915,1.416 2.32,2.116 4.188,2.116c1.865,0 3.3,-0.7 4.266,-2.109" style="fill:#58595b;fill-rule:nonzero;"/><path d="M509.235,382.576l-6.772,0l0,-6.113l6.772,0l0,6.113Zm-6.772,3.05l6.772,0l0,25.453l-6.772,0l0,-25.453Z" style="fill:#58595b;fill-rule:nonzero;"/><path d="M530.815,394.692c-0.122,-0.937 -0.439,-1.793 -0.938,-2.553c-0.739,-1.02 -1.89,-1.523 -3.436,-1.523c-2.222,0 -3.732,1.103 -4.554,3.308c-0.427,1.192 -0.65,2.768 -0.65,4.741c0,1.873 0.223,3.385 0.644,4.529c0.779,2.137 2.259,3.204 4.402,3.204c1.531,0 2.619,-0.424 3.265,-1.275c0.644,-0.85 1.03,-1.948 1.172,-3.307l6.763,0c-0.149,2.035 -0.879,3.947 -2.184,5.763c-2.067,2.914 -5.134,4.372 -9.194,4.372c-4.052,0 -7.049,-1.222 -8.963,-3.632c-1.914,-2.431 -2.872,-5.585 -2.872,-9.471c0,-4.396 1.058,-7.795 3.194,-10.239c2.134,-2.425 5.061,-3.642 8.803,-3.642c3.187,0 5.795,0.715 7.819,2.144c2.022,1.431 3.228,3.955 3.603,7.581l-6.874,0Z" style="fill:#58595b;fill-rule:nonzero;"/><path d="M552.311,395.564c1.234,-0.166 2.117,-0.352 2.646,-0.58c0.954,-0.408 1.433,-1.049 1.433,-1.902c0,-1.05 -0.37,-1.771 -1.092,-2.166c-0.736,-0.395 -1.806,-0.607 -3.21,-0.607c-1.579,0 -2.708,0.391 -3.365,1.171c-0.466,0.58 -0.786,1.355 -0.932,2.341l-6.418,0c0.139,-2.227 0.759,-4.043 1.867,-5.487c1.765,-2.246 4.791,-3.367 9.081,-3.367c2.792,0 5.27,0.548 7.429,1.657c2.177,1.098 3.259,3.191 3.259,6.263l0,11.734c0,0.809 0.013,1.797 0.046,2.948c0.046,0.882 0.18,1.463 0.391,1.779c0.227,0.312 0.549,0.564 0.99,0.768l0,0.963l-7.24,0c-0.197,-0.504 -0.333,-0.988 -0.418,-1.439c-0.08,-0.449 -0.139,-0.963 -0.187,-1.532c-0.923,0.991 -1.981,1.857 -3.183,2.557c-1.438,0.821 -3.063,1.229 -4.869,1.229c-2.308,0 -4.219,-0.658 -5.722,-1.973c-1.506,-1.329 -2.259,-3.184 -2.259,-5.62c0,-3.133 1.207,-5.41 3.625,-6.817c1.332,-0.758 3.284,-1.314 5.855,-1.635l2.274,-0.285Zm4.048,3.115c-0.417,0.278 -0.85,0.484 -1.278,0.651c-0.425,0.164 -1.017,0.322 -1.775,0.456l-1.51,0.28c-1.407,0.246 -2.417,0.559 -3.027,0.922c-1.03,0.61 -1.543,1.554 -1.543,2.835c0,1.152 0.317,1.967 0.953,2.481c0.625,0.507 1.401,0.757 2.316,0.757c1.438,0 2.758,-0.425 3.975,-1.261c1.212,-0.857 1.842,-2.388 1.889,-4.625l0,-2.496" style="fill:#58595b;fill-rule:nonzero;"/><rect x="569.03" y="376.722" width="6.671" height="34.357" style="fill:#58595b;fill-rule:nonzero;"/><path d="M601.141,400.444c0.229,1.571 0.672,2.75 1.321,3.531c1.198,1.419 3.243,2.124 6.14,2.124c1.735,0 3.143,-0.184 4.23,-0.564c2.056,-0.719 3.072,-2.043 3.072,-3.994c0,-1.139 -0.5,-2.015 -1.529,-2.636c-1.013,-0.602 -2.613,-1.146 -4.789,-1.612l-3.724,-0.82c-3.657,-0.804 -6.172,-1.685 -7.545,-2.633c-2.327,-1.587 -3.49,-4.062 -3.49,-7.455c0,-3.069 1.137,-5.641 3.402,-7.673c2.262,-2.044 5.598,-3.064 9.986,-3.064c3.665,0 6.789,0.96 9.381,2.889c2.581,1.923 3.945,4.716 4.066,8.36l-6.876,0c-0.124,-2.067 -1.048,-3.549 -2.767,-4.419c-1.145,-0.592 -2.571,-0.871 -4.274,-0.871c-1.906,0 -3.415,0.374 -4.547,1.125c-1.121,0.75 -1.695,1.791 -1.695,3.137c0,1.225 0.562,2.154 1.674,2.765c0.715,0.393 2.234,0.88 4.568,1.418l6.038,1.421c2.656,0.63 4.633,1.457 5.94,2.506c2.038,1.612 3.061,3.955 3.061,7.027c0,3.134 -1.217,5.747 -3.642,7.832c-2.428,2.073 -5.861,3.113 -10.295,3.113c-4.524,0 -8.087,-1.028 -10.683,-3.071c-2.59,-2.042 -3.884,-4.853 -3.884,-8.436l6.861,0Z" style="fill:#58595b;fill-rule:nonzero;"/><path d="M643.876,386.153c1.768,0.797 3.23,2.06 4.387,3.775c1.033,1.515 1.7,3.263 2.015,5.267c0.175,1.162 0.254,2.845 0.219,5.049l-18.479,0c0.107,2.543 0.988,4.33 2.647,5.352c1.015,0.634 2.221,0.954 3.645,0.954c1.513,0 2.731,-0.386 3.673,-1.156c0.513,-0.414 0.968,-0.995 1.365,-1.744l6.799,0c-0.184,1.502 -1.005,3.035 -2.461,4.588c-2.271,2.475 -5.45,3.713 -9.536,3.713c-3.378,0 -6.35,-1.047 -8.931,-3.136c-2.579,-2.078 -3.865,-5.473 -3.865,-10.185c0,-4.409 1.168,-7.788 3.486,-10.135c2.323,-2.348 5.365,-3.528 9.074,-3.528c2.209,0 4.197,0.402 5.962,1.186m-9.948,5.794c-0.928,0.94 -1.516,2.233 -1.76,3.86l11.408,0c-0.121,-1.733 -0.705,-3.038 -1.763,-3.944c-1.053,-0.893 -2.367,-1.342 -3.916,-1.342c-1.702,0 -3.027,0.474 -3.969,1.426" style="fill:#58595b;fill-rule:nonzero;"/><path d="M668.064,384.976c0.082,0.015 0.279,0.021 0.575,0.04l0,6.818c-0.425,-0.031 -0.792,-0.061 -1.12,-0.068c-0.334,-0.025 -0.589,-0.036 -0.798,-0.036c-2.692,0 -4.486,0.88 -5.398,2.633c-0.527,0.974 -0.773,2.486 -0.773,4.528l0,12.188l-6.674,0l0,-25.454l6.317,0l0,4.414c1.024,-1.706 1.923,-2.874 2.686,-3.492c1.248,-1.06 2.872,-1.58 4.867,-1.58c0.12,0 0.241,0.009 0.317,0.009" style="fill:#58595b;fill-rule:nonzero;"/><path d="M688.215,385.626l7.142,0l-9.206,25.453l-6.999,0l-9.127,-25.453l7.459,0l5.312,18.781l5.419,-18.781Z" style="fill:#58595b;fill-rule:nonzero;"/><path d="M705.934,382.576l-6.757,0l0,-6.113l6.757,0l0,6.113Zm-6.757,3.05l6.757,0l0,25.453l-6.757,0l0,-25.453Z" style="fill:#58595b;fill-rule:nonzero;"/><path d="M727.521,394.692c-0.116,-0.937 -0.431,-1.793 -0.939,-2.553c-0.741,-1.02 -1.89,-1.523 -3.441,-1.523c-2.214,0 -3.725,1.103 -4.537,3.308c-0.442,1.192 -0.645,2.768 -0.645,4.741c0,1.873 0.203,3.385 0.638,4.529c0.782,2.137 2.247,3.204 4.403,3.204c1.525,0 2.599,-0.424 3.253,-1.275c0.649,-0.85 1.032,-1.948 1.17,-3.307l6.768,0c-0.153,2.035 -0.881,3.947 -2.17,5.763c-2.079,2.914 -5.147,4.372 -9.2,4.372c-4.073,0 -7.058,-1.222 -8.968,-3.632c-1.91,-2.431 -2.875,-5.585 -2.875,-9.471c0,-4.396 1.071,-7.795 3.193,-10.239c2.13,-2.425 5.065,-3.642 8.814,-3.642c3.18,0 5.783,0.715 7.811,2.144c2.038,1.431 3.224,3.955 3.605,7.581l-6.88,0Z" style="fill:#58595b;fill-rule:nonzero;"/><path d="M755.542,386.153c1.765,0.797 3.223,2.06 4.379,3.775c1.04,1.515 1.718,3.263 2.018,5.267c0.184,1.162 0.263,2.845 0.219,5.049l-18.47,0c0.094,2.543 0.982,4.33 2.636,5.352c1.011,0.634 2.23,0.954 3.655,0.954c1.497,0 2.728,-0.386 3.665,-1.156c0.507,-0.414 0.964,-0.995 1.368,-1.744l6.794,0c-0.184,1.502 -0.993,3.035 -2.458,4.588c-2.276,2.475 -5.452,3.713 -9.54,3.713c-3.377,0 -6.353,-1.047 -8.928,-3.136c-2.581,-2.078 -3.871,-5.473 -3.871,-10.185c0,-4.409 1.167,-7.788 3.494,-10.135c2.342,-2.348 5.36,-3.528 9.073,-3.528c2.208,0 4.189,0.402 5.966,1.186m-9.938,5.794c-0.934,0.94 -1.532,2.233 -1.766,3.86l11.408,0c-0.135,-1.733 -0.721,-3.038 -1.767,-3.944c-1.059,-0.893 -2.367,-1.342 -3.933,-1.342c-1.693,0 -3.013,0.474 -3.942,1.426" style="fill:#58595b;fill-rule:nonzero;"/><path d="M770.728,402.935c0.143,1.194 0.447,2.045 0.918,2.529c0.823,0.9 2.349,1.343 4.57,1.343c1.316,0 2.362,-0.199 3.132,-0.583c0.771,-0.388 1.151,-0.969 1.151,-1.756c0,-0.754 -0.311,-1.323 -0.946,-1.701c-0.625,-0.393 -2.944,-1.056 -6.944,-2.001c-2.875,-0.712 -4.917,-1.599 -6.103,-2.671c-1.187,-1.049 -1.786,-2.571 -1.786,-4.568c0,-2.331 0.93,-4.346 2.771,-6.03c1.861,-1.694 4.444,-2.53 7.8,-2.53c3.177,0 5.763,0.635 7.774,1.916c1.993,1.266 3.142,3.459 3.444,6.58l-6.672,0c-0.086,-0.859 -0.337,-1.534 -0.714,-2.045c-0.733,-0.897 -1.971,-1.357 -3.722,-1.357c-1.452,0 -2.482,0.225 -3.087,0.675c-0.607,0.449 -0.922,0.983 -0.922,1.595c0,0.779 0.329,1.319 0.975,1.659c0.654,0.358 2.963,0.966 6.946,1.834c2.639,0.609 4.625,1.565 5.942,2.805c1.314,1.283 1.969,2.875 1.969,4.774c0,2.516 -0.934,4.572 -2.814,6.164c-1.877,1.59 -4.793,2.384 -8.718,2.384c-4.007,0 -6.962,-0.849 -8.871,-2.543c-1.907,-1.691 -2.867,-3.848 -2.867,-6.473l6.773,0Z" style="fill:#58595b;fill-rule:nonzero;"/><path d="M103.142,227.614l0,-46.379l44.258,0l0,46.379l43.906,0l0,22.521c28.736,-0.505 51.863,-21.722 51.863,-47.841c0,-26.434 -23.688,-47.864 -52.909,-47.864l-131.26,0l0,73.184l44.142,0Z" style="fill:#ed1c24;fill-rule:nonzero;"/><path d="M191.306,251.236l0,22.793l-43.906,0l0,45.055l-44.258,0l0,-45.055l-44.142,0l0,72.914l131.26,0c29.221,0 52.909,-21.431 52.909,-47.867c0,-26.118 -23.127,-47.335 -51.863,-47.84" style="fill:#ed1c24;fill-rule:nonzero;"/></g></svg>