<?xml version="1.0" encoding="UTF-8" standalone="no"?><!DOCTYPE svg PUBLIC "-//W3C//DTD SVG 1.1//EN" "http://www.w3.org/Graphics/SVG/1.1/DTD/svg11.dtd"><svg width="100%" height="100%" viewBox="0 0 77 39" version="1.1" xmlns="http://www.w3.org/2000/svg" xmlns:xlink="http://www.w3.org/1999/xlink" xml:space="preserve" style="fill-rule:evenodd;clip-rule:evenodd;stroke-linejoin:round;stroke-miterlimit:1.41421;"><rect id="Artboard1" x="0" y="0" width="76.5" height="38.1" style="fill:none;"/><g id="XMLID_209_"><path id="XMLID_210_" d="M6.25,1.9l64.3,0l0,34.3l-64.3,0l0,-34.3ZM67.95,8.4c0,0.6 -0.2,1 -0.6,1.4c-0.4,0.4 -0.9,0.6 -1.4,0.6c-0.5,0 -1,-0.2 -1.4,-0.6c-0.4,-0.4 -0.6,-0.9 -0.6,-1.4c0,-0.5 0.2,-1 0.6,-1.4c0.4,-0.4 0.9,-0.6 1.4,-0.6c0.5,0 1,0.2 1.4,0.6c0.4,0.4 0.6,0.9 0.6,1.4ZM67.65,8.4c0,-0.5 -0.2,-0.9 -0.5,-1.2c-0.3,-0.3 -0.7,-0.5 -1.2,-0.5c-0.4,0 -0.8,0.2 -1.2,0.5c-0.3,0.3 -0.5,0.7 -0.5,1.2c0,0.5 0.2,0.8 0.5,1.2c0.3,0.3 0.7,0.5 1.2,0.5c0.4,0 0.8,-0.2 1.2,-0.5c0.3,-0.3 0.5,-0.7 0.5,-1.2ZM66.65,9.1l0.3,0.4l-0.4,0l-0.3,-0.3c-0.1,-0.2 -0.2,-0.4 -0.3,-0.5c-0.1,-0.1 -0.2,-0.1 -0.3,-0.1l-0.2,0l0,0.9l-0.3,0l0,-2.1l0.8,0c0.5,0 0.8,0.2 0.8,0.6c0,0.2 -0.1,0.3 -0.2,0.4c-0.1,0.1 -0.3,0.2 -0.5,0.2c0.2,0 0.4,0.2 0.6,0.5ZM65.95,8.3c0.3,0 0.4,-0.1 0.4,-0.3c0,-0.2 -0.1,-0.3 -0.4,-0.3l-0.5,0l0,0.7l0.4,0l0.1,-0.1ZM67.05,16.6c-0.4,0 -0.7,-0.1 -1.1,-0.1c-0.3,0 -0.6,0 -0.8,0l0,0.5c0.4,0 0.7,0 0.9,0.2c0.2,0.1 0.2,0.3 0.1,0.6l-0.1,1.2l-0.4,3.2c-0.1,0.5 -0.3,0.8 -0.5,1c-0.2,0.2 -0.4,0.2 -0.5,-0.1c-0.3,-1.7 -0.6,-3.4 -0.8,-5.1c-0.2,-0.6 0.1,-1 0.9,-1l0,-0.4c-1.4,0.1 -2.7,0.1 -4,0l-0.1,0l0,0.5l0.1,0c0.5,0 0.7,0.3 0.8,1c0.1,1 0.3,2.1 0.5,3.1c0.2,1 0.4,2.1 0.7,3.1c0.2,0.7 0.6,1 1,0.9c0.4,-0.1 1,-0.5 1.5,-1c-0.3,2.9 -1.3,3.9 -3.2,3l-0.4,0.5c2,1.1 3.5,1.1 4.4,-0.2c0.1,-0.1 0.2,-0.2 0.2,-0.3c0.2,-0.3 0.3,-0.8 0.5,-1.5c0.1,-0.7 0.3,-1.4 0.5,-2.3c0.1,-0.9 0.3,-1.8 0.5,-2.7c0.2,-0.9 0.4,-1.9 0.6,-2.7c0,-0.4 0.3,-0.6 0.9,-0.8l0,-0.4c-0.8,-0.2 -1.5,-0.2 -2.2,-0.2ZM60.65,20.4c0,0.4 0,0.9 -0.1,1.2c0,0.3 -0.1,0.6 -0.1,0.9c-0.1,0.7 -0.4,1.2 -0.8,1.6c-0.4,0.4 -0.8,0.7 -1.3,0.8c-0.5,0.1 -1,0.2 -1.5,0.2c-0.5,0 -1.1,-0.1 -1.6,-0.2c-0.5,-0.1 -1,-0.4 -1.4,-0.8c-0.4,-0.4 -0.6,-0.9 -0.7,-1.5c-0.1,-0.6 -0.1,-1.3 -0.1,-2c0,-0.7 0,-1.3 0.1,-1.9c0.1,-0.6 0.3,-1.1 0.6,-1.5c0.4,-0.4 0.8,-0.7 1.4,-0.9c0.5,-0.1 1,-0.2 1.6,-0.2c0.5,0 1.1,0.1 1.7,0.3c0.6,0.2 1,0.5 1.2,0.7c0.4,0.5 0.6,0.9 0.7,1.5c0,0.2 0.1,0.3 0.1,0.5c0.2,0.4 0.2,0.8 0.2,1.3ZM58.15,19.3c0,-0.5 -0.1,-0.9 -0.2,-1.4c0,-0.2 -0.1,-0.4 -0.3,-0.6c-0.2,-0.2 -0.4,-0.3 -0.7,-0.3c-0.3,0 -0.6,0.1 -0.7,0.4c-0.2,0.2 -0.3,0.5 -0.3,0.6c-0.1,0.5 -0.2,1.4 -0.2,2.7c0,0.4 0,0.8 0,1.2c0,0.4 0.1,0.8 0.1,1.2c0,0.3 0.1,0.6 0.3,0.9c0.2,0.3 0.5,0.3 0.8,0.3c0.3,-0.1 0.6,-0.2 0.7,-0.4c0.2,-0.2 0.3,-0.4 0.3,-0.6c0.1,-0.8 0.2,-1.7 0.2,-2.5c0,-0.5 0,-1 0,-1.5ZM51.15,16.2c-0.4,-0.1 -0.9,-0.2 -1.5,-0.2c-1.2,0.1 -2,0.5 -2.5,1.2c-0.3,0.4 -0.5,0.7 -0.6,1.2c-0.1,0.4 -0.1,0.9 0,1.4c0.1,0.6 0.3,1.1 0.8,1.3c0.5,0.2 1.1,0.3 1.9,0.3c1,0 1.4,0.6 1.1,1.8c-0.2,0.5 -0.4,0.9 -0.9,1c-0.4,0.1 -0.8,-0.1 -1,-0.8l-0.1,-1.3l-1.9,0l0,2.4c0.9,0.5 1.9,0.7 3.2,0.6c1.8,-0.3 2.7,-1.4 2.7,-3.4c0,-0.8 -0.2,-1.4 -0.6,-1.7c-0.4,-0.3 -1.2,-0.5 -2.5,-0.6c-0.8,0 -1,-0.6 -0.7,-1.6c0.1,-0.6 0.4,-0.9 0.9,-0.9c0.5,0 0.7,0.3 0.8,0.9l0,0.9l1.8,0l0,-2.1c0,-0.1 -0.4,-0.2 -0.9,-0.4ZM46.25,24.4l0,0.6c-0.3,0 -0.6,-0.1 -1,-0.1l-2.4,0l0,-0.6c-0.3,0.2 -0.7,0.4 -1,0.5c-0.9,0.3 -1.8,0.2 -2.7,-0.2c-0.4,-0.3 -0.6,-0.6 -0.7,-1c-0.1,-0.3 -0.2,-0.6 -0.2,-0.7c0,-0.3 0,-0.6 0,-0.9c0,-0.3 0,-0.5 0.1,-0.7c0.1,-0.3 0.2,-0.5 0.3,-0.7c0.1,-0.2 0.3,-0.4 0.6,-0.6c0.2,-0.1 0.4,-0.2 0.7,-0.3c0.3,-0.1 0.8,-0.1 1.5,-0.1c0.1,0 0.3,0 0.4,0.1c0.1,0 0.2,0 0.3,0.1c0.2,0.1 0.4,0.1 0.6,0.2l0,-2.3c0,-0.2 0,-0.4 -0.2,-0.6c-0.2,-0.2 -0.4,-0.3 -0.7,-0.3l-0.1,0c-0.2,0 -0.4,0 -0.5,0.1c-0.1,0.1 -0.2,0.1 -0.2,0.2c-0.1,0.1 -0.2,0.3 -0.2,0.7l0,1.2l-2.1,0c0.1,-0.9 0.2,-1.6 0.1,-2.4l1.1,-0.2l1.8,-0.2l0.1,0c0.7,0 1.4,0 1.9,0.2c0.5,0.2 0.8,0.3 1,0.6c0.2,0.2 0.4,0.5 0.4,0.8l0,6.2c0,0.3 0.1,0.4 0.2,0.5c0.3,0 0.5,0 0.9,-0.1ZM43.05,21.8c0,-0.2 -0.1,-0.5 -0.1,-0.7c0,0 -0.1,-0.1 -0.2,-0.3c-0.1,-0.1 -0.3,-0.2 -0.4,-0.2c-0.1,0 -0.3,0 -0.4,0c-0.2,0 -0.4,0.1 -0.6,0.2c-0.3,0.2 -0.5,0.5 -0.5,0.9c-0.1,0.5 -0.1,1 0,1.5c0,0.3 0.1,0.5 0.3,0.7c0.1,0.1 0.1,0.1 0.2,0.2c0.1,0.1 0.2,0.1 0.3,0.1c0.1,0 0.1,0 0.2,0c0.1,0 0.2,0 0.3,-0.1c0.1,-0.1 0.2,-0.1 0.3,-0.2c0.1,-0.1 0.2,-0.2 0.3,-0.3c0,-0.1 0.1,-0.2 0.1,-0.3c0.1,-0.2 0.1,-0.5 0.1,-1c0.1,-0.1 0.1,-0.3 0.1,-0.5ZM35.75,13.6l-1.2,0.4c-0.4,0.1 -0.6,0.2 -0.5,0.5l0,1.4l-1.1,0l0,0.9l0.6,0c0.3,0 0.5,0.2 0.5,0.3l0,7c0.3,0.8 0.8,1.1 1.7,1.1c0.9,0 1.6,-0.4 2.4,-1l-0.5,-0.5c-0.3,0.3 -0.6,0.4 -0.8,0.4c-0.2,0 -0.3,-0.2 -0.3,-0.6l0,-6.1c0,-0.5 0.1,-0.6 0.4,-0.6l1.1,0l0,-0.9l-1.6,0l0,-2.1c0,-0.3 -0.3,-0.3 -0.7,-0.2ZM32.55,21.8l-1.9,0l-0.1,1.3c0,0.9 -0.3,1.3 -0.8,1.3c-0.5,0 -0.9,-0.4 -1,-1.2c-0.3,-2 -0.3,-3.7 0,-5.3c0.1,-0.6 0.4,-1 0.9,-1c0.5,0 0.8,0.3 0.8,0.8c0.1,0.5 0.1,0.9 0,1.4l1.9,0c0,-0.4 0,-0.7 0,-1.1c0,-0.4 0,-0.8 0.1,-1.1c-2.3,-1.1 -4.1,-1 -5.4,0.1c-0.4,0.4 -0.6,0.9 -0.7,1.5c0,0.3 -0.1,0.5 -0.1,0.8c-0.1,0.4 -0.1,0.8 -0.1,1.3c0,0.5 0,0.9 0.1,1.3c0,0.4 0.1,0.7 0.2,1c0.2,0.6 0.4,1.1 0.7,1.3c0.7,0.6 1.5,0.9 2.4,0.9c0.9,0 1.9,-0.2 3,-0.7c-0.1,-0.8 -0.1,-1.7 0,-2.6ZM26.25,24.4l0,0.6c-0.3,0 -0.5,-0.1 -0.9,-0.1l-2.4,0l0,-0.6c-0.3,0.2 -0.6,0.4 -1,0.5c-0.9,0.3 -1.8,0.2 -2.7,-0.3c-0.4,-0.3 -0.6,-0.6 -0.7,-1c-0.1,-0.4 -0.2,-0.7 -0.2,-0.8c0,-0.3 0,-0.5 0,-0.8c0,-0.3 0,-0.5 0.1,-0.7c0.1,-0.2 0.2,-0.5 0.3,-0.7c0.1,-0.2 0.3,-0.4 0.6,-0.5c0.2,-0.1 0.4,-0.2 0.7,-0.3c0.3,-0.1 0.8,-0.1 1.4,-0.1c0.1,0 0.3,0 0.4,0.1c0.1,0 0.2,0 0.2,0.1c0.2,0.1 0.4,0.1 0.6,0.2l0,-2.3c0,-0.2 0,-0.4 -0.2,-0.5c-0.2,-0.2 -0.4,-0.2 -0.7,-0.3l-0.1,0c-0.2,0 -0.4,0 -0.5,0.1c-0.1,0.1 -0.2,0.1 -0.2,0.2c-0.1,0.2 -0.2,0.3 -0.2,0.7l0,1.1l-2,0c0.1,-0.8 0.2,-1.6 0.1,-2.4l1.1,-0.2l1.8,-0.2l0.1,0c0.7,0 1.3,0 1.9,0.2c0.4,0.2 0.8,0.3 1,0.6c0.2,0.2 0.3,0.5 0.4,0.8l0,6.1c0,0.3 0.1,0.4 0.3,0.5c0.2,0.1 0.5,0.1 0.8,0l0,0ZM23.15,21.8c0,-0.2 -0.1,-0.5 -0.2,-0.7c0,0 -0.1,-0.1 -0.2,-0.2c-0.1,-0.1 -0.3,-0.2 -0.4,-0.2c-0.1,0 -0.3,-0.1 -0.4,-0.1c-0.2,0 -0.4,0.1 -0.6,0.2c-0.3,0.2 -0.5,0.5 -0.5,0.9c-0.1,0.5 -0.1,1 0,1.5c0,0.3 0.1,0.5 0.3,0.7c0.1,0.1 0.2,0.1 0.2,0.2c0.1,0.1 0.2,0.1 0.3,0.1c0.1,0 0.2,0 0.2,0c0.1,0 0.2,0 0.3,-0.1c0.1,-0.1 0.2,-0.1 0.3,-0.2c0.1,-0.1 0.2,-0.2 0.3,-0.3c0,-0.1 0.1,-0.2 0.1,-0.3c0.1,-0.2 0.1,-0.5 0.1,-1c0.2,-0.1 0.2,-0.3 0.2,-0.5ZM30.75,28c-0.8,0.7 -1.8,0.9 -2.2,0.9l-12.1,0l0,-17.4c0,-1.2 -0.1,-1.8 1.3,-2.1l0,-1.6l-9.2,0l0,1.6c1.2,0.3 1.2,1 1.2,2.1l0,17.4l-1.3,0l0,4.2l24,0l0,-6.9c-0.4,0.6 -1,1.1 -1.7,1.8Z" style="fill:#0081c6;"/></g></svg>