<?xml version="1.0" encoding="utf-8"?>
<!-- Generator: Adobe Illustrator 19.2.0, SVG Export Plug-In . SVG Version: 6.00 Build 0)  -->
<svg version="1.1" id="Layer_1" xmlns="http://www.w3.org/2000/svg" xmlns:xlink="http://www.w3.org/1999/xlink" x="0px" y="0px"
	 viewBox="0 0 648 132.6" style="enable-background:new 0 0 648 132.6;" xml:space="preserve">
<style type="text/css">
	.st0{fill:none;}
	.st1{fill:#005288;}
</style>
<g>
	<rect class="st0" width="648" height="132.6"/>
	<g>
		<path class="st1" d="M126.4,67c0,35-28.5,63.2-63.2,63.2S0,101.7,0,67C0,32,28.5,3.8,63.2,3.8C98.2,3.7,126.4,31.9,126.4,67
			 M109,102.6c-0.9-0.3-2-0.3-2.8-0.3c-3.7,0-7.4,0.9-11.1,2.8c-2.3,1.1-5.1,2.8-8.3,4.8c-8.3,5.1-17.7,10.8-27.1,10.8
			c-11.1,0-17.7-3.4-27.3-8.5l-3.7-2c-2.3-1.1-4.6-2-6.6-2.6c10.5,11.1,25.6,17.4,41,17.4C81.1,125.1,98.2,116.8,109,102.6
			 M115.3,92.6c-3.4-1.4-6.8-2.3-10.3-2.3c-9.4,0-17.1,5.4-24.8,10.8c-2,1.4-4.3,2.8-6.3,4.3c-5.7,3.4-11.7,5.4-18.2,5.4
			c-7.7,0-14-2.6-16.2-3.7c-1.1-0.6-2.6-1.4-3.7-2c-4.6-2.6-9.1-5.1-14.5-5.1c-1.4,0-3.1,0.3-4.8,0.6c0.6,0.9,1.4,2,2,2.8
			c3.7,0.3,7.7,1.4,12,3.4l3.7,2c9.4,4.8,15.4,8,25.9,8c8.3,0,17.1-5.4,25.1-10.3c3.1-2,6-3.7,8.5-5.1c4.3-2,8.5-3.1,12.5-3.1
			c1.7,0,3.4,0.3,5.1,0.6C112.7,97.2,114.2,94.9,115.3,92.6 M121.3,67c0-31.9-25.9-58.1-58.1-58.1C31.3,8.9,5.1,35.1,5.1,67
			c0,11.1,3.1,21.7,8.8,31.1c2.3-0.9,4.6-1.1,6.8-1.1c6.3,0,11.4,2.8,16,5.4c1.4,0.9,2.6,1.4,4,2c2,1.1,7.7,3.4,14.8,3.4
			c6,0,11.4-1.7,16.2-4.8c1.7-1.1,3.1-2.3,4.8-3.4l1.1-0.9c6-4.3,12-8.5,19.1-10.5c2.6-0.9,5.1-1.1,7.7-1.1c4,0,7.7,0.9,11.7,2.6
			C119.9,82.3,121.3,74.9,121.3,67 M111.9,62.1c0,0-0.3,0.9-0.9,1.7l0,0c-0.3,0.3-0.3,0.6-0.6,0.9c-0.9,1.1-2,2.3-3.7,3.1
			c-0.3,0-0.3,0.3-0.6,0.3c-0.3,0.3-0.9,0.3-1.1,0.3c-1.7,0.6-4,1.1-6.8,1.1h-1.7c-1.7,0-3.1,0-4.8,0.3c-5.4,0-10.5,0.9-14.8,4
			c-3.4,2.3-6.3,5.7-9.4,8c-7.1,5.7-17.7,7.1-26.5,4c-5.1-2-10.5-6-13.4-11.1c-2-3.7-3.4-8-4.3-12.2c-1.1-3.4-4.8-6.6-8.5-7.1
			c0.3-0.6,0.6-1.1,1.1-1.4c3.1-3.7,8-5.7,12.8-4.3c4,1.1,5.7,5.4,7.4,8.5c0.9,1.4,2.3,2.8,4.3,2.8c1.1,0,2.6-0.9,2.8-2
			c0.6-1.7-0.6-3.1-1.7-4.6c-2.8-3.4-7.1-7.1-4.6-12c2-3.4,5.7-5.7,9.7-6.6c0,0,3.1-0.6,4.8-0.6h39.9c3.1-0.3,6-1.1,8.8-2.6l0,0
			c0,3.1-2.3,6-5.1,7.4c-1.4,0.6-4.3,1.4-5.7,1.4c-1.1,0-34.2,0-34.2,0c-0.9,0-1.7,0.3-2,1.1c-0.3,0.3-0.3,1.1,0,1.4
			c0.6,0.9,1.1,0.9,2.3,0.9h34.8c2.8,0,5.1-1.1,7.4-2.3c0.3,0.9-0.6,2.3-1.1,3.4c-2.6,3.4-6.3,4.8-10.3,4.8H61.7
			c-1.1,0-1.7,0.6-2,1.4c0,0.6,0,1.1,0.3,1.4c0.6,0.6,1.4,0.6,2.3,0.6h23.4c3.1,0,6.3-0.9,9.1-2c0,1.7-1.4,2.8-2.6,4
			c-3.4,3.1-7.7,4-12.5,4H67.2c-0.9,0-1.4,0.3-2,0.9c-0.3,0.3-0.6,1.1-0.3,1.7c0.6,0.6,1.4,0.9,2.3,0.9h35.9
			C104.2,64.1,107.3,63.8,111.9,62.1 M27,53.9c0-0.9-0.9-1.7-1.7-1.7c-0.9,0-1.7,0.9-1.7,1.7c0,0.9,0.9,1.7,1.7,1.7
			C26.1,55.6,27,54.7,27,53.9"/>
		<path class="st1" d="M147.5,119.4l-0.3-0.3c0-8.5,0.3-16.8,0.3-25.4c0-8.3,0-10.5-0.3-16.2l0.3-0.3h8.3c2,0,5.7,0,7.7,0
			c5.7,0,9.7,0.9,12.3,3.4c2,2.3,2.3,4.8,2.3,6.6c0,1.4-0.3,2.8-0.9,4.3c-1.4,3.1-4,4.3-6,5.1c1.1,0.3,2.6,0.6,3.7,1.1
			c3.4,1.7,5.1,5.1,5.1,9.1c0,3.4-1.1,7.1-5.1,10c-4.6,3.1-11.4,2.8-16.8,2.8h-10.6V119.4z M157.5,94c2.3,0,5.4,0,7.1-0.6
			c0.9-0.3,3.1-1.7,3.1-4.8c0-4-2.8-5.1-6.3-5.1c-1.1,0-2.6,0-4,0V94H157.5z M157.5,112.5c2.6,0,5.7,0,7.7-0.6
			c2.3-0.9,3.7-2.6,3.7-5.1c0-2-0.6-3.7-2.3-4.8c-1.7-1.1-4.3-1.1-8.8-0.9v11.4H157.5z"/>
		<path class="st1" d="M210.7,106c0,5.7,0,7.1,0.3,12.8l-0.3,0.6c-4,0-5.1,0-9.4,0.3l-0.3-0.3v-2.3c-1.1,1.1-3.7,3.1-8.3,3.1
			c-5.7,0-10.5-4-10.5-10.5c0-2.6,1.1-6,4.6-8.3c3.7-2.3,6.8-2.8,14-3.7c0-0.9-0.3-2-0.9-2.6c-0.9-0.9-1.7-1.1-4-1.1
			c-4,0-8,1.4-10,2.3l-0.3-0.3l0.3-6.6l0.3-0.6c3.4-1.1,6.6-2,11.7-2c7.7,0,10,2.3,11.1,4.3c1.4,2.6,1.4,4.8,1.4,10.3L210.7,106z
			 M200.8,103.7c-4,0.6-8.8,1.1-8.8,5.1c0,2.6,1.7,3.7,4,3.7c2,0,3.7-0.9,4.8-1.4V103.7z"/>
		<path class="st1" d="M244.9,119.1c-4.8,0-5.7,0-9.7,0.3l-0.3-0.3c0-2,0-4,0-6.3s0-10.5-0.3-12.3c-0.3-2.3-0.6-5.7-3.7-5.7
			c-2,0-3.4,1.1-4.6,1.7c0,10.5,0,13.1,0.6,22.2l-0.3,0.3c-4.8,0-5.7,0-10,0.3l-0.3-0.3c0-3.7,0-7.7,0-11.4c0-9.7-0.3-13.4-0.9-18.5
			l0.3-0.3c4.6-0.6,5.4-0.9,10-1.7l0.6,0.3v3.4c2.8-1.7,6-3.4,9.4-3.4c2.3,0,5.4,0.6,7.4,3.7c1.4,2.6,1.4,5.1,1.7,10.8v4.6
			c0,5.7,0,7.4,0.3,12.8L244.9,119.1z"/>
		<path class="st1" d="M313.9,119.1l-10.8,0.3l-0.6-0.3c-3.1-6.3-3.7-7.7-8.8-17.1v6.8l0.3,10v0.6c-4.6,0-5.7,0-9.7,0.3l-0.3-0.3
			c0-9.7,0-19.4,0-29.1c0-7.7-0.3-10.5-0.9-16.2l0.3-0.3l10.3-1.4l0.6,0.3c-0.3,9.1-0.3,11.4-0.3,22.5v6.6c2.8-4,3.4-5.1,8-13.1
			l0.6-0.3h9.7l0.3,0.6c-4.3,5.4-4.6,6-8.8,11.7c4.6,8.3,5.1,9.1,10.8,18.8L313.9,119.1z"/>
		<path class="st1" d="M329.2,119.9c-8.5,0-11.4-3.1-13.1-5.4c-2.3-3.1-2.8-7.1-2.8-10.8c0-10.8,6-16.5,16.2-16.5
			c1.4,0,4.6,0,7.4,1.1c8.3,3.4,8.3,12.8,8.3,15.1C345.2,112.3,341.8,119.9,329.2,119.9 M333.2,95.2c-0.9-0.9-2.3-2-3.7-2
			c-2,0-3.4,1.1-4.3,2.6c-1.1,2-1.1,6-1.1,7.7c0,5.7,1.1,7.7,2.3,8.8c0.9,0.6,1.7,1.4,3.4,1.4c4.8,0,5.7-5.4,5.7-10.3
			C334.9,100.3,334.7,96.9,333.2,95.2"/>
		<path class="st1" d="M379.4,119.1l-10.8,0.3l-0.6-0.3c-3.1-6.3-3.7-7.7-8.8-17.1v6.8l0.3,10v0.6c-4.6,0-5.7,0-9.7,0.3l-0.3-0.3
			c0-9.7,0-19.4,0-29.1c0-7.7-0.3-10.5-0.9-16.2l0.3-0.3l10.3-1.4l0.6,0.3c-0.3,9.1-0.3,11.4-0.3,22.5v6.6c2.8-4,3.4-5.1,8-13.1
			l0.6-0.3h9.7l0.3,0.6c-4.3,5.4-4.6,6-8.8,11.7c4.6,8.3,5.1,9.1,10.8,18.8L379.4,119.1z"/>
		<path class="st1" d="M405.6,77.5c-0.3,8.3-0.3,16.5-0.3,24.8c0,8.5,0,11.4,0.3,16.8l-0.3,0.3c-4.8,0-6.3,0-10.5,0.3l-0.3-0.3
			c0.3-6.3,0.3-10,0.3-16.8c0-15.1-0.3-18.2-0.6-24.8l0.3-0.3c4.3,0,5.7,0,10.8-0.3L405.6,77.5z"/>
		<path class="st1" d="M440.9,119.1c-4.8,0-5.7,0-9.7,0.3l-0.3-0.3c0-2,0-4,0-6.3s0-10.5-0.3-12.3c-0.3-2.3-0.6-5.7-3.7-5.7
			c-2,0-3.4,1.1-4.6,1.7c0,10.5,0,13.1,0.6,22.2l-0.3,0.3c-4.8,0-5.7,0-10,0.3l-0.3-0.3c0-3.7,0-7.7,0-11.4c0-9.7-0.3-13.4-0.9-18.5
			l0.3-0.3c4.6-0.6,5.4-0.9,10-1.7l0.6,0.3v3.4c2.8-1.7,6-3.4,9.4-3.4c2.3,0,5.4,0.6,7.4,3.7c1.4,2.6,1.4,5.1,1.7,10.8v4.6
			c0,5.7,0,7.4,0.6,12.8L440.9,119.1z"/>
		<path class="st1" d="M461.7,99.7c3.1,1.1,8,2.8,8,9.4c0,0.3,0,0.9,0,1.4c-1.1,8.5-10,9.4-14.5,9.4c-4.3,0-6.8-0.9-9.7-2l-0.3-0.6
			c0.3-2.8,0.3-3.7,0.3-6.8l0.6-0.3c0.9,0.9,1.4,1.1,2.3,1.7c2.3,1.1,4.6,1.7,6.3,1.7c3.4,0,4.8-1.7,4.8-3.1c0-2.3-2.6-3.1-4.3-3.7
			l-2.3-0.9c-2.8-1.1-7.7-2.8-7.7-9.4c0-2.3,0.9-4.3,1.7-5.1c3.1-4.6,8.8-4.8,12-4.8c4,0,6.3,0.9,9.1,1.4l0.3,0.3l-0.6,6.6l-0.6,0.3
			c-1.4-0.9-3.7-2.6-7.4-2.6s-4.3,2-4.3,2.6c0,1.7,1.7,2.3,3.7,3.1L461.7,99.7z"/>
		<path class="st1" d="M501.9,87.8c0,5.7-0.3,11.1-0.3,16.8c0,7.7,0,10,0.3,14.2l-0.3,0.3c-4,0-5.1,0-9.4,0.3l-0.3-0.3v-2.6
			c-2.3,1.7-4.6,3.7-8.8,3.7c-2.8,0-5.7-0.9-7.7-3.1c-2.3-2.6-2.6-5.1-2.3-11.7v-4.3c0-6,0-7.7-0.3-12.8l0.3-0.3l9.7-0.6l0.3,0.6v12
			c0,1.4,0,3.1,0,4.6c0,3.4,0,8,4.3,8c1.7,0,2.8-0.9,4.6-2c0-2.3,0-3.4,0-5.1c0-0.9,0-10.5-0.3-17.1l0.3-0.3l9.7-0.6L501.9,87.8z"/>
		<path class="st1" d="M523.8,97.4c-0.9-0.6-1.4-0.9-2.6-0.9c-4,0-4,4-4,6.6c0,4,0.3,10.8,0.6,15.7l-0.3,0.3c-4.8,0-5.7,0-10.3,0.3
			l-0.3-0.3c0-4.8,0.3-10,0.3-14.8c0-8.3-0.3-10.8-0.6-15.4l0.3-0.3c4.3-0.6,5.4-0.9,10-1.7l0.6,0.6l-0.3,5.4c2-4.3,4.6-5.7,7.1-5.7
			c0.3,0,0.9,0,1.1,0l0.3,0.3l-1.7,9.7L523.8,97.4z"/>
		<path class="st1" d="M554.3,106c0,5.7,0,7.1,0.3,12.8l-0.3,0.3c-4,0-5.1,0-9.4,0.3l-0.3-0.3v-2.3c-1.1,1.1-3.7,3.1-8.3,3.1
			c-5.7,0-10.5-4-10.5-10.5c0-2.6,1.1-6,4.6-8.3c3.7-2.3,6.8-2.8,14-3.7c0-0.9-0.3-2-0.9-2.6c-0.9-0.9-1.7-1.1-4-1.1
			c-4,0-8,1.4-10,2.3l-0.6-0.3l0.3-6.6l0.3-0.6c3.4-1.1,6.6-2,11.7-2c7.7,0,10,2.3,11.1,4.3c1.4,2.6,1.4,4.8,1.4,10.3L554.3,106z
			 M544.6,103.7c-4,0.6-8.8,1.1-8.8,5.1c0,2.6,1.7,3.7,4,3.7c2,0,3.7-0.9,4.8-1.4V103.7L544.6,103.7z"/>
		<path class="st1" d="M587.9,119.1c-4.8,0-5.7,0-9.7,0.3l-0.3-0.3c0-2,0-4,0-6.3s0-10.5-0.3-12.3c-0.3-2.3-0.6-5.7-3.7-5.7
			c-2,0-3.4,1.1-4.6,1.7c0,10.5,0,13.1,0.6,22.2l-0.3,0.3c-4.8,0-5.7,0-10,0.3l-0.3-0.3c0-3.7,0-7.7,0-11.4c0-9.7-0.3-13.4-0.9-18.5
			l0.3-0.3c4.6-0.6,5.4-0.9,10-1.7l0.6,0.3v3.4c2.8-1.7,6-3.4,9.4-3.4c2.3,0,5.4,0.6,7.4,3.7c1.4,2.6,1.4,5.1,1.7,10.8v4.6
			c0,5.7,0,7.4,0.3,12.8L587.9,119.1z"/>
		<path class="st1" d="M615.8,111.1l-0.3,7.1l-0.3,0.3c-2.6,0.6-4.6,1.4-7.7,1.4c-13.4,0-17.1-9.4-17.1-16.2c0-6,2.8-16.8,16.8-16.8
			c3.4,0,5.7,0.9,8.3,1.4l0.3,0.3c-0.6,3.1-0.6,4-0.9,7.1l-0.6,0.3c-1.7-1.1-3.1-2.3-5.7-2.3c-5.7,0-7.7,5.1-7.7,9.4
			c0,3.7,1.4,9.1,8,9.1c3.1,0,4.6-0.9,6.3-2L615.8,111.1z"/>
		<path class="st1" d="M646.6,110.5l-0.3,6.8l-0.3,0.6c-3.1,1.1-5.4,2.3-10.3,2.3c-4.3,0-12.5-0.9-16-8.8c-0.9-2-1.4-5.1-1.4-7.7
			c0-10.3,6.3-16.5,15.7-16.5c1.4,0,2.8,0,4.3,0.6c2,0.6,6.6,2,8.8,8.8c0.9,2.8,0.9,6,0.9,8.8l-0.3,0.3l-19.4,0.3
			c0.3,1.1,0.3,2.3,1.4,3.7c1.4,2.3,4,3.1,7.4,3.1c4.3,0,7.1-1.4,9.4-2.6L646.6,110.5z M638.1,99.4c0-1.4,0-2.8-0.9-4
			c-0.6-1.1-1.7-2-3.7-2c-0.9,0-1.7,0.3-2.3,0.6c-2.3,1.4-2.6,4-2.8,5.7L638.1,99.4z"/>
		<path class="st1" d="M278.8,102.6c0-6.8,0-10.3,0.3-15.7l-0.3-0.3c-14.2-0.3-18.8-0.3-23.6,2.8c-5.4,3.4-6.6,9.7-6.6,14.2
			c0,8.3,4.3,15.1,13.1,15.1c3.7,0,5.7-1.1,7.4-2.3l0,0v0.9l0,0c0,3.1-0.3,5.4-1.7,6.8c-1.4,1.4-3.1,1.7-4.6,1.7
			c-4,0-6.3-1.7-7.4-2.6h-0.6c-0.3,1.1-0.3,2.3-0.6,3.1c-0.3,0.9-0.6,2-0.9,2.8l0.3,0.6c1.1,0.9,2.6,1.4,5.7,2.3
			c2,0.3,4.3,0.6,6.3,0.6c5.1,0,9.7-1.7,11.7-5.4c1.1-1.7,1.4-4,1.7-6.8l0,0c0-0.6,0-2.8,0-4.8l0,0
			C278.8,112,278.8,107.4,278.8,102.6 M265.4,112c-6.3,0-6.3-7.7-6.3-9.4c0-3.7,1.4-9.1,8-9.1c0.6,0,1.1,0,1.7,0v17.1
			C267.7,111.4,266.9,112,265.4,112"/>
		<g>
			<path class="st1" d="M360,15.4v29.3l-8.5-26.2h-2L341,45V15.4h-15.4v0.9c1.7,1.7,2.8,4,2.8,5.7v21.4c0,6,0.3,10.8,10.8,10.8h6.3
				l4.6-17.1l5.4,17.1h7.4c3.4,0,9.4-1.7,9.4-8V15.4L360,15.4L360,15.4z"/>
			<path class="st1" d="M278.2,47.9V15.7h-12.3v34.2v4.6h15.4v-0.9C279.4,52.4,278.2,49.9,278.2,47.9"/>
			<path class="st1" d="M201.3,25.9c-0.6-1.1-0.6-2.8,0-3.7c0.3-0.3,1.4-2,5.7-2c4.3,0,11.4,2.6,11.7,2.6v-7.4
				c-3.7-1.1-7.4-1.7-11.1-1.7c-3.4,0-6.6,0.6-9.4,1.4c-5.7,2-8.3,5.1-9.1,10.8c0,0.9-0.6,5.7,2.8,9.1c3.7,3.7,9.4,3.7,10.8,3.7
				c2.6,0,4.8,0.3,7.1,1.4c1.4,0.6,2.6,2.3,2.6,4.3s-1.4,3.4-3.7,3.7c-1.1,0.3-2.6,0.3-4,0.3c-6.8,0-14.2-4.3-14.2-4.3v8.3
				c0.3,0,0.6,0.3,1.1,0.3c5.7,2,12.3,2.6,19.4,1.7c4.6-0.9,8-2.6,10.3-6c2.8-3.7,3.1-9.7,0.9-14c-1.1-2-3.1-4-6.8-5.4
				c-4-1.4-8.8-1.1-10.8-1.7C202.2,27.4,201.6,26.2,201.3,25.9"/>
			<path class="st1" d="M312.4,14.8c-8,0-15.1,9.4-15.1,9.4v-8.5h-14.8v0.9c1.1,0.9,2.3,2.8,2.6,6v31.9h12.2V42
				c0-4.8,0.3-8.5,2.3-11.1c0,0,4-5.7,7.4-5.7c3.1,0,3.7,3.1,3.7,4s0,25.6,0,25.6H323V26.9C322.7,21.9,320.4,14.8,312.4,14.8"/>
			<path class="st1" d="M432.9,25.9c-0.6-1.1-0.6-2.8,0-3.7c0.3-0.3,1.4-2,5.7-2c4.3,0,11.4,2.6,11.7,2.6v-7.4
				c-3.4-1.1-7.4-1.7-11.1-1.7c-3.4,0-6.6,0.6-9.4,1.4c-5.7,2-8.3,5.1-9.1,10.8c0,0.9-0.6,5.7,2.8,9.1c3.7,3.7,9.4,3.7,10.8,3.7
				c2.6,0,4.8,0.3,7.1,1.4c1.4,0.6,2.6,2.3,2.6,4.3c-0.3,2-1.4,3.4-3.7,3.7c-1.1,0.3-2.6,0.3-4,0.3c-6.8,0-14.2-4.3-14.2-4.3v8.3
				c0.3,0,0.6,0.3,1.1,0.3c5.7,2,12.3,2.6,19.4,1.7c4.6-0.9,8-2.6,10.3-6c2.8-3.7,3.1-9.7,0.9-14c-1.1-2-3.1-4-6.8-5.4
				c-4-1.4-8.8-1.1-10.8-1.7C433.8,27.4,432.9,26.2,432.9,25.9"/>
			<path class="st1" d="M550.3,54.4c-4,0-5.4-4-5.4-4s-4,5.4-12.5,5.4c-2.3,0-4.8-0.3-7.1-1.1c-4.3-1.4-6.3-6-6.3-9.7V22.5
				c0-0.3-0.9-4.3-2.6-6v-1.1h15.1c0,0,0,27.6,0,28.8c0,1.4,1.1,3.7,5.4,3.7c4,0,8.3-4,8.3-10.3V15.4h12.5v38.7h-7.4V54.4z"/>
			<path class="st1" d="M260,21.7c-0.3-0.9-1.7-4-4.6-6c-2.8-1.7-6.8-2-8.3-2c-3.4,0-6.6,1.7-6.8,1.7v7.4c1.4,0,8.5-3.1,8.5,9.1v4
				c0,3.1-0.3,5.7-0.9,7.1c-0.6,1.7-2,3.4-3.7,4.3c-0.6,0.3-1.7,0.9-3.1,0.9c-1.1,0-1.4-0.9-1.4-1.1c-0.6-1.1-6.3-28.5-6.3-28.5
				l-10.1,6.2c0,0,5.1,18.5,6.3,23.1c1.4,5.1,6.3,7.4,11.4,7.4c5.1,0,10.5-1.1,14.2-4.6c2-2,3.7-4,4.6-6.6c0.6-2,0.9-4,0.9-5.4
				c0-2.8,0-9.7,0-9.7C260.9,26.5,260.9,24.2,260,21.7"/>
			<path class="st1" d="M165.7,13.7c-17.1,0-19.9,7.7-19.9,7.7l6.3,4c0,0-4.6,1.7-4.6,7.7v21.1H160V30c0.3-2.3,3.1-4,3.1-4l-2.8-2.3
				c0.6-2.3,2.6-3.7,5.7-3.7c4,0,6,3.1,6,7.1v27.3h12.8V23.9C184.8,18.5,180,13.7,165.7,13.7"/>
			<path class="st1" d="M493,13.7c-16.8,0-19.4,7.7-19.4,7.7l6,4c0,0-4.6,1.7-4.6,7.7v21.1h12.5V30c0.3-2.3,3.1-4,3.1-4l-2.8-2.3
				c0.9-2.3,2.3-3.7,5.7-3.7c4.8,0,6.3,3.7,6.3,7.1v27.3h12.8V23.9C513,19.1,509.6,13.7,493,13.7"/>
			<path class="st1" d="M397.6,55c9.4-0.3,18.8-1.7,18.8-10.8V0.6h-12.8v41.6c0,5.4-2.8,6.3-6,6.3c-3.2,0-5.7-1.7-5.7-5.7V15.7
				h-15.4v0.6c1.1,0.9,2.6,2.8,2.6,4.8v23.4c0,9.7,10.8,10.5,18.2,10.8h0.3L397.6,55L397.6,55z"/>
			<path class="st1" d="M629.5,49c-2,0.9-4.8,0.6-7.1-0.6c-3.1-2.6-3.4-7.1-2.3-10c1.4-2.6,3.7-3.7,6-4.6v-5.4
				c-0.9,0-1.7,0.3-2.6,0.3c-0.3,0-0.9,0-1.1,0.3c-1.4,0-2.3-0.6-2.8-1.4s-0.9-2.3-0.6-3.7c0.3-1.1,0.9-2,1.7-2.6
				c0.9-0.6,1.7-0.9,2.8-0.9c2.3,0,4,1.4,4,1.4v-6.3c-0.9-0.3-4-1.4-9.4-0.9c-7.1,0.6-9.4,4-10.3,6c-1.1,2.6-0.6,6.3,1.4,8.5
				c0.9,0.9,1.1,1.1,2.8,2l0.9,0.6l-0.9,0.6c0,0-0.9,0.3-1.7,0.9c-3.1,2-4,7.4-3.4,10.5c0.6,4.6,4.3,9.1,9.1,10.3
				c3.4,0.9,6.8,1.4,10.5,1.4c4.8,0,9.4-0.9,13.4-2.6c3.1-1.7,6-4.6,6-10c0-4,0-27.1,0-27.1h-12.5v27.9
				C633.2,45.3,631.8,48.2,629.5,49"/>
			<path class="st1" d="M581.9,13.7c-16.8,0-19.1,7.7-19.1,7.7l6.3,4c0,0-4.6,1.7-4.6,7.7v14.2c0,0.9-0.9,4.3-2.6,6v0.9h1.1h10.3
				h0.3c3.1,0,3.4-4.8,3.4-4.8V32v-1.7c0-2.6,3.1-4.3,3.1-4.3l-2.8-2.3c0.6-2.3,2.3-3.7,5.7-3.7c4.8,0,6.3,3.7,6.3,7.1v27.3h12.8
				V23.9C601.9,19.1,598.5,13.7,581.9,13.7"/>
			<path class="st1" d="M203.9,60.1v2.3c0,0,0,0,0.3,0c1.1,0,2.6,0.9,2.6,2.6v8.5h11.4v-9.1c0-2.8-2-4-4.3-4
				C213.6,60.1,203.9,60.1,203.9,60.1"/>
			<path class="st1" d="M511,4.6c-1.4,0-2.6,0-4-0.3c-2.3-0.6-3.4-1.7-3.7-3.7c0-0.3,0-0.3,0-0.6h-10.8c0.3,1.7,0.9,3.4,2,4.6
				c2.3,3.1,5.7,5.1,10.3,5.7c7.1,0.9,13.7,0.3,19.1-1.7V0.9C521.8,2,516.4,4.6,511,4.6"/>
			<path class="st1" d="M599.6,4.6c-1.4,0-2.6,0-3.7-0.3c-2.3-0.6-3.4-1.7-3.7-3.7c0-0.3,0-0.3,0-0.6h-10.8c0.3,1.7,0.9,3.4,2,4.6
				c2.3,3.1,5.7,5.1,10.3,5.7c7.1,0.9,13.7,0.3,19.1-1.7V0.9C610.4,2,605,4.6,599.6,4.6"/>
		</g>
		<g>
			<path class="st1" d="M470.3,23.1h-0.6c-3.4,1.1-6.3,1.7-8,1.7c-2.6,0-4-1.7-4.3-1.7l-0.6-0.6l-0.9,0.3v6.3v0.3l0,0
				c0.3,0.3,2,2.3,5.1,2.3c2,0,4.8-0.6,8.3-1.7v-6.8L470.3,23.1L470.3,23.1z"/>
			<path class="st1" d="M470.3,39h-0.6c-3.4,1.1-6.3,1.7-8,1.7c-2.6,0-4-1.7-4.3-1.7l-0.6-0.6l-0.9,0.3V45v0.3l0,0
				c0.3,0.3,2,2.3,5.1,2.3c2,0,4.8-0.6,8.3-1.7v-6.8L470.3,39L470.3,39z"/>
		</g>
	</g>
</g>
</svg>
